<svg width="20" height="20" viewBox="0 0 20 20" fill="none" xmlns="http://www.w3.org/2000/svg">
<g clip-path="url(#clip0_194_2549)">
<path d="M0 0H20V20H0V0Z" fill="#000066"/>
<path fill-rule="evenodd" clip-rule="evenodd" d="M2.14453 14.3984L3.73047 15L4.25391 13.3828L4.77344 15L6.36328 14.3984L5.42188 15.8164L6.88281 16.6836L5.19141 16.8281L5.42578 18.5117L4.25391 17.2812L3.08203 18.5117L3.31641 16.832L1.62109 16.6836L3.08594 15.8164M15.7812 18.6094L15.0391 18.6719L15.1445 19.4062L14.6367 18.8711L14.1289 19.4062L14.2188 18.6719L13.4844 18.6094L14.1211 18.2344L13.7109 17.6172L14.4023 17.8789L14.6289 17.1758L14.8516 17.8789L15.5469 17.6172L15.1406 18.2344M15.7734 7.67187L15.0391 7.73438L15.1406 8.46875L14.6328 7.93359L14.125 8.46875L14.2188 7.73438L13.4844 7.67187L14.1211 7.29688L13.7109 6.67969L14.4023 6.94141L14.6289 6.23828L14.8516 6.94141L15.5469 6.67969L15.1406 7.29688M11.6719 12.1172L10.9375 12.1797L11.0391 12.9102L10.5312 12.375L10.0234 12.9102L10.1211 12.1797L9.38672 12.1172L10.0234 11.7383L9.61328 11.125L10.3047 11.3867L10.5312 10.6836L10.7539 11.3867L11.4453 11.125L11.0391 11.7383M19.4141 11.0234L18.6797 11.0859L18.7812 11.8164L18.2734 11.2812L17.7656 11.8164L17.8633 11.0859L17.1289 11.0234L17.7656 10.6445L17.3555 10.0312L18.0469 10.293L18.2734 9.58984L18.5 10.293L19.1875 10.0312L18.7812 10.6445M16.2734 13.8672L15.8711 14.1172L15.9844 13.6563L15.6211 13.3516L16.0898 13.3164L16.2734 12.8789L16.4453 13.3203L16.918 13.3594L16.5586 13.6602L16.6719 14.1211" fill="white"/>
<path d="M0 0H10V10H0V0Z" fill="#000066"/>
<path d="M10 0V1.25L6.28906 5L10 8.65234V10H8.69141L4.96094 6.32812L1.32812 10H0V8.67188L3.63281 5.01953L0 1.44531V0H1.21094L4.96094 3.67188L8.59375 0H10Z" fill="white"/>
<path d="M3.59375 6.32812L3.80859 6.99219L0.820312 10H0V9.94141L3.59375 6.32812ZM6.01562 6.09375L7.07031 6.25L10 9.12109V10L6.01562 6.09375ZM10 0L6.25 3.82812L6.17188 2.96875L9.10156 0H10ZM0 0.0195312L3.76953 3.71094L2.61719 3.55469L0 0.957031V0.0195312Z" fill="#C8102E"/>
<path d="M3.4375 0V10H6.5625V0H3.4375ZM0 3.4375V6.5625H10V3.4375H0Z" fill="white"/>
<path d="M0 4.0625V5.9375H10V4.0625H0ZM4.0625 0V10H5.9375V0H4.0625Z" fill="#C8102E"/>
</g>
<defs>
<clipPath id="clip0_194_2549">
<rect width="20" height="20" fill="white"/>
</clipPath>
</defs>
</svg>
