<svg width="20" height="20" viewBox="0 0 20 20" fill="none" xmlns="http://www.w3.org/2000/svg">
<g clip-path="url(#clip0_194_2514)">
<path fill-rule="evenodd" clip-rule="evenodd" d="M0 0H38.0004V1.53848H0V0ZM0 3.07695H38.0004V4.61543H0V3.07695ZM0 6.15391H38.0004V7.69238H0V6.15391ZM0 9.23086H38.0004V10.7693H0V9.23086ZM0 12.3078H38.0004V13.8463H0V12.3078ZM0 15.3848H38.0004V16.9232H0V15.3848ZM0 18.4617H38.0004V20.0002H0V18.4617Z" fill="#BD3D44"/>
<path fill-rule="evenodd" clip-rule="evenodd" d="M0 1.53848H38.0004V3.07696H0V1.53848ZM0 4.61544H38.0004V6.15391H0V4.61544ZM0 7.69239H38.0004V9.23087H0V7.69239ZM0 10.7693H38.0004V12.3078H0V10.7693ZM0 13.8463H38.0004V15.3848H0V13.8463ZM0 16.9232H38.0004V18.4617H0V16.9232Z" fill="white"/>
<path fill-rule="evenodd" clip-rule="evenodd" d="M0 0H15.2002V10.7693H0V0Z" fill="#192F5D"/>
<path fill-rule="evenodd" clip-rule="evenodd" d="M1.26156 0.461548L1.41539 0.89229H1.84617L1.49231 1.15385L1.63078 1.56924L1.26156 1.30768L0.923088 1.56924L1.06156 1.15385L0.692307 0.89229H1.15391L1.26156 0.461548ZM3.80004 0.461548L3.93852 0.89229H4.38465L4.01543 1.15385L4.16926 1.56924L3.80004 1.30768L3.43082 1.56924L3.58465 1.15385L3.21543 0.89229H3.66156L3.80004 0.461548ZM6.33852 0.461548L6.47699 0.89229H6.92313L6.55391 1.15385L6.70778 1.56924L6.33852 1.30768L5.9693 1.56924L6.12313 1.15385L5.75391 0.89229H6.20008L6.33852 0.461548ZM8.86164 0.461548L9.01547 0.89229H9.44625L9.09238 1.15385L9.23086 1.56924L8.86164 1.30768L8.50777 1.56924L8.64625 1.15385L8.27699 0.89229H8.73856L8.86164 0.461548ZM11.4001 0.461548L11.5386 0.89229H11.9847L11.6155 1.15385L11.7693 1.56924L11.3847 1.30768L11.0309 1.56924L11.1693 1.15385L10.8001 0.89229H11.2463L11.4001 0.461548ZM13.9386 0.461548L14.0771 0.89229H14.5232L14.154 1.15385L14.3078 1.56924L13.9386 1.30768L13.5694 1.56924L13.7232 1.15385L13.354 0.89229H13.8001L13.9386 0.461548ZM2.53848 1.53846L2.67695 1.96924H3.12313L2.75387 2.23077L2.90774 2.64616L2.53848 2.38463L2.16926 2.64616L2.32309 2.23077L1.95387 1.96924H2.40004L2.53848 1.53846ZM5.0616 1.53846L5.21543 1.96924H5.64621L5.29235 2.23077L5.43082 2.64616L5.0616 2.38463L4.70774 2.64616L4.84621 2.23077L4.47695 1.96924H4.93852L5.0616 1.53846ZM7.60008 1.53846L7.73856 1.96924H8.18469L7.81547 2.23077L7.9693 2.64616L7.60008 2.38463L7.23082 2.64616L7.38469 2.23077L7.01547 1.96924H7.4616L7.60008 1.53846ZM10.1386 1.53846L10.277 1.96924H10.7232L10.3539 2.23077L10.5078 2.64616L10.1386 2.38463L9.76934 2.64616L9.92317 2.23077L9.55395 1.96924H10.0001L10.1386 1.53846ZM12.6617 1.53846L12.8155 1.96924H13.2309L12.877 2.23077L13.0155 2.64616L12.6463 2.38463L12.2924 2.64616L12.4309 2.23077L12.0616 1.96924H12.5232L12.6617 1.53846ZM1.27692 2.61542L1.4 3.04616H1.86156L1.49231 3.30772L1.63078 3.72311L1.26156 3.46155L0.923088 3.72311L1.06156 3.30772L0.692307 3.04616H1.15391L1.27692 2.61542ZM3.80004 2.61542L3.93852 3.04616H4.38465L4.03082 3.30772L4.16926 3.72311L3.80004 3.46155L3.44617 3.72311L3.58465 3.30772L3.21543 3.04616H3.66156L3.80004 2.61542ZM6.33852 2.61542L6.47699 3.04616H6.92313L6.55391 3.30772L6.70778 3.72311L6.33852 3.46155L5.9693 3.72311L6.12313 3.30772L5.75391 3.04616H6.20008L6.33852 2.61542ZM8.86164 2.61542L9.01547 3.04616H9.44625L9.09238 3.30772L9.23086 3.72311L8.86164 3.46155L8.50777 3.72311L8.64625 3.30772L8.27699 3.04616H8.73856L8.86164 2.61542ZM11.4001 2.61542L11.5386 3.04616H11.9847L11.6309 3.30772L11.7693 3.72311L11.4001 3.46155L11.0463 3.72311L11.1847 3.30772L10.8155 3.04616H11.2616L11.4001 2.61542ZM13.9386 2.61542L14.0771 3.04616H14.5232L14.154 3.30772L14.3078 3.72311L13.9386 3.46155L13.5694 3.72311L13.7232 3.30772L13.354 3.04616H13.8001L13.9386 2.61542ZM2.53848 3.69229L2.67695 4.12307H3.12313L2.75387 4.38459L2.90774 4.79998L2.53848 4.53846L2.16926 4.79998L2.32309 4.38459L1.95387 4.12307H2.40004L2.53848 3.69229ZM5.0616 3.69229L5.21543 4.12307H5.64621L5.29235 4.38459L5.43082 4.79998L5.0616 4.53846L4.70774 4.79998L4.84621 4.38459L4.47695 4.12307H4.93852L5.0616 3.69229ZM7.60008 3.69229L7.73856 4.12307H8.18469L7.83086 4.38459L7.9693 4.79998L7.60008 4.53846L7.24621 4.79998L7.38469 4.38459L7.01547 4.12307H7.4616L7.60008 3.69229ZM10.1386 3.69229L10.277 4.12307H10.7232L10.3539 4.38459L10.5078 4.80002L10.1386 4.5385L9.76934 4.80002L9.92317 4.38463L9.55395 4.12311H10.0001L10.1386 3.69229ZM12.6617 3.69229L12.8155 4.12307H13.2309L12.877 4.38459L13.0155 4.79998L12.6463 4.53846L12.2924 4.79998L12.4309 4.38459L12.0616 4.12307H12.5232L12.6617 3.69229ZM1.27692 4.76924L1.4 5.19999H1.86156L1.49231 5.46155L1.63078 5.87694L1.26156 5.61538L0.923088 5.87694L1.06156 5.46155L0.692307 5.19999H1.15391L1.27692 4.76924ZM3.80004 4.76924L3.93852 5.19999H4.38465L4.03082 5.46155L4.16926 5.87694L3.80004 5.61538L3.44617 5.87694L3.58465 5.46155L3.21543 5.19999H3.66156L3.80004 4.76924ZM6.33852 4.76924L6.47699 5.19999H6.92313L6.55391 5.46155L6.70778 5.87694L6.33852 5.61538L5.9693 5.87694L6.12313 5.46155L5.75391 5.19999H6.20008L6.33852 4.76924ZM8.86164 4.76924L9.01547 5.19999H9.44625L9.09238 5.46155L9.23086 5.87694L8.86164 5.61538L8.50777 5.87694L8.64625 5.46155L8.27699 5.19999H8.73856L8.86164 4.76924ZM11.4001 4.76924L11.5386 5.19999H11.9847L11.6309 5.46155L11.7693 5.87694L11.4001 5.61538L11.0463 5.87694L11.1847 5.46155L10.8155 5.19999H11.2616L11.4001 4.76924ZM13.9386 4.76924L14.0771 5.19999H14.5232L14.154 5.46155L14.3078 5.87694L13.9386 5.61538L13.5694 5.87694L13.7232 5.46155L13.354 5.19999H13.8001L13.9386 4.76924ZM2.53848 5.84616L2.67695 6.27694H3.12313L2.75387 6.53846L2.90774 6.95385L2.53848 6.69233L2.16926 6.95385L2.32309 6.53846L1.95387 6.27694H2.40004L2.53848 5.84616ZM5.0616 5.84616L5.21543 6.27694H5.64621L5.29235 6.53846L5.43082 6.95385L5.0616 6.69233L4.70774 6.95385L4.84621 6.53846L4.47695 6.27694H4.93852L5.0616 5.84616ZM7.60008 5.84616L7.73856 6.27694H8.18469L7.83086 6.53846L7.9693 6.95385L7.60008 6.69233L7.24621 6.95385L7.38469 6.53846L7.01547 6.27694H7.4616L7.60008 5.84616ZM10.1386 5.84616L10.277 6.27694H10.7232L10.3539 6.53846L10.5078 6.95389L10.1386 6.69237L9.76934 6.95389L9.92317 6.5385L9.55395 6.27698H10.0001L10.1386 5.84616ZM12.6617 5.84616L12.8155 6.27694H13.2309L12.877 6.53846L13.0155 6.95385L12.6463 6.69233L12.2924 6.95385L12.4309 6.53846L12.0616 6.27694H12.5232L12.6617 5.84616ZM1.27692 6.92311L1.4 7.35385H1.86156L1.49231 7.61542L1.63078 8.03081L1.26156 7.76924L0.923088 8.03081L1.06156 7.61542L0.692307 7.35385H1.15391L1.27692 6.92311ZM3.80004 6.92311L3.93852 7.35385H4.38465L4.03082 7.61542L4.16926 8.03081L3.80004 7.76924L3.44617 8.03081L3.58465 7.61542L3.21543 7.35385H3.66156L3.80004 6.92311ZM6.33852 6.92311L6.47699 7.35385H6.92313L6.55391 7.61542L6.70778 8.03081L6.33852 7.76924L5.9693 8.03081L6.12313 7.61542L5.75391 7.35385H6.20008L6.33852 6.92311ZM8.86164 6.92311L9.01547 7.35385H9.44625L9.09238 7.61542L9.23086 8.03081L8.86164 7.76924L8.50777 8.03081L8.64625 7.61542L8.27699 7.35385H8.73856L8.86164 6.92311ZM11.4001 6.92311L11.5386 7.35385H11.9847L11.6309 7.61542L11.7693 8.03081L11.4001 7.76924L11.0463 8.03081L11.1847 7.61542L10.8155 7.35385H11.2616L11.4001 6.92311ZM13.9386 6.92311L14.0771 7.35385H14.5232L14.154 7.61542L14.3078 8.03081L13.9386 7.76924L13.5694 8.03081L13.7232 7.61542L13.354 7.35385H13.8001L13.9386 6.92311ZM2.53848 8.00006L2.67695 8.43085H3.12313L2.75387 8.69237L2.90774 9.10776L2.53848 8.84624L2.16926 9.10776L2.32309 8.69237L1.95387 8.43085H2.40004L2.53848 8.00006ZM5.0616 8.00006L5.21543 8.43085H5.64621L5.29235 8.69237L5.43082 9.10776L5.0616 8.84624L4.70774 9.10776L4.84621 8.69237L4.47695 8.43085H4.93852L5.0616 8.00006ZM7.60008 8.00006L7.73856 8.43085H8.18469L7.83086 8.69237L7.9693 9.10776L7.60008 8.84624L7.24621 9.10776L7.38469 8.69237L7.01547 8.43085H7.4616L7.60008 8.00006ZM10.1386 8.00006L10.277 8.43085H10.7232L10.3539 8.69237L10.5078 9.1078L10.1386 8.84627L9.76934 9.1078L9.92317 8.69241L9.55395 8.43088H10.0001L10.1386 8.00006ZM12.6617 8.00006L12.8155 8.43085H13.2309L12.877 8.69237L13.0155 9.10776L12.6463 8.84624L12.2924 9.10776L12.4309 8.69237L12.0616 8.43085H12.5232L12.6617 8.00006ZM1.27692 9.07702L1.4 9.50776H1.86156L1.49231 9.76932L1.63078 10.1847L1.26156 9.92315L0.923088 10.1847L1.06156 9.76932L0.692307 9.50776H1.15391L1.27692 9.07702ZM3.80004 9.07702L3.93852 9.50776H4.38465L4.03082 9.76932L4.16926 10.1847L3.80004 9.92315L3.44617 10.1847L3.58465 9.76932L3.21543 9.50776H3.66156L3.80004 9.07702ZM6.33852 9.07702L6.47699 9.50776H6.92313L6.55391 9.76932L6.70778 10.1847L6.33852 9.92315L5.9693 10.1847L6.12313 9.76932L5.75391 9.50776H6.20008L6.33852 9.07702ZM8.86164 9.07702L9.01547 9.50776H9.44625L9.09238 9.76932L9.23086 10.1847L8.86164 9.92315L8.50777 10.1847L8.64625 9.76932L8.27699 9.50776H8.73856L8.86164 9.07702ZM11.4001 9.07702L11.5386 9.50776H11.9847L11.6309 9.76932L11.7693 10.1847L11.4001 9.92315L11.0463 10.1847L11.1847 9.76932L10.8155 9.50776H11.2616L11.4001 9.07702ZM13.9386 9.07702L14.0771 9.50776H14.5232L14.154 9.76932L14.3078 10.1847L13.9386 9.92315L13.5694 10.1847L13.7232 9.76932L13.354 9.50776H13.8001L13.9386 9.07702Z" fill="white"/>
</g>
<defs>
<clipPath id="clip0_194_2514">
<rect width="20" height="20" fill="white"/>
</clipPath>
</defs>
</svg>
