<svg width="20" height="20" viewBox="0 0 20 20" fill="none" xmlns="http://www.w3.org/2000/svg">
<g clip-path="url(#clip0_194_2493)">
<path d="M0 0H20V20H0V0Z" fill="#3F9C35"/>
<path d="M0 0H20V13.332H0V0Z" fill="#ED2939"/>
<path d="M0 0H20V6.66797H0V0Z" fill="#00B9E4"/>
<path d="M9.32812 13C10.985 13 12.3281 11.6569 12.3281 10C12.3281 8.34315 10.985 7 9.32812 7C7.67127 7 6.32812 8.34315 6.32812 10C6.32812 11.6569 7.67127 13 9.32812 13Z" fill="white"/>
<path d="M9.99609 12.5C11.3768 12.5 12.4961 11.3807 12.4961 10C12.4961 8.61929 11.3768 7.5 9.99609 7.5C8.61538 7.5 7.49609 8.61929 7.49609 10C7.49609 11.3807 8.61538 12.5 9.99609 12.5Z" fill="#ED2939"/>
<path d="M12.6641 8.33203L12.9805 9.23047L13.8398 8.82031L13.4336 9.67969L14.332 10L13.4336 10.3203L13.8398 11.1797L12.9805 10.7695L12.6641 11.668L12.3438 10.7695L11.4844 11.1797L11.8945 10.3203L10.9961 10L11.8945 9.67969L11.4844 8.82031L12.3438 9.23047L12.6641 8.33203Z" fill="white"/>
</g>
<defs>
<clipPath id="clip0_194_2493">
<rect width="20" height="20" fill="white"/>
</clipPath>
</defs>
</svg>
