<svg width="20" height="20" viewBox="0 0 20 20" fill="none" xmlns="http://www.w3.org/2000/svg">
<g clip-path="url(#clip0_194_2058)">
<path fill-rule="evenodd" clip-rule="evenodd" d="M0 0H20V20H0V0Z" fill="#229E45"/>
<path fill-rule="evenodd" clip-rule="evenodd" d="M10.2109 15.8359L19.1875 10.0078L10.1562 4.16406L1.14453 10.0234L10.207 15.8359H10.2109Z" fill="#F8E509"/>
<path fill-rule="evenodd" clip-rule="evenodd" d="M14.1211 10C14.1369 10.5086 14.0503 11.0152 13.8664 11.4897C13.6826 11.9642 13.4052 12.3968 13.0508 12.762C12.6964 13.1272 12.2723 13.4174 11.8035 13.6154C11.3348 13.8134 10.831 13.9152 10.3221 13.9147C9.81328 13.9141 9.30972 13.8113 8.84138 13.6124C8.37304 13.4134 7.94947 13.1223 7.59584 12.7564C7.24222 12.3905 6.96575 11.9573 6.78286 11.4824C6.59998 11.0075 6.51441 10.5008 6.53125 9.99219C6.56387 9.00681 6.9785 8.07275 7.68744 7.38759C8.39638 6.70244 9.34403 6.31991 10.33 6.32092C11.3159 6.32194 12.2627 6.70642 12.9703 7.39303C13.6778 8.07965 14.0905 9.01455 14.1211 10Z" fill="#2B49A3"/>
<path fill-rule="evenodd" clip-rule="evenodd" d="M9.07422 12.2734L8.95703 12.2031L8.83594 12.2656L8.86328 12.1289L8.76953 12.0312L8.90234 12.0156L8.96484 11.8906L9.02344 12.0195L9.15625 12.043L9.05469 12.1367M11.6211 12.918L11.5039 12.8477L11.3789 12.9102L11.4062 12.7734L11.3125 12.6758L11.4492 12.6602L11.5117 12.5352L11.5664 12.6641L11.6992 12.6875L11.6016 12.7812M10.5234 11.8867L10.4219 11.8281L10.3164 11.8789L10.3398 11.7617L10.2617 11.6758L10.375 11.6641L10.4297 11.5586L10.4766 11.668L10.5938 11.6875L10.5078 11.7656M13.0938 11.5156L12.9922 11.457L12.8906 11.5078L12.9141 11.3945L12.8359 11.3125L12.9492 11.2969L13 11.1953L13.0508 11.3008L13.1641 11.3203L13.0781 11.3984M10.4766 10.7461L10.3594 10.6758L10.2383 10.7383L10.2656 10.6016L10.1719 10.5039L10.3047 10.4883L10.3672 10.3672L10.4258 10.4922L10.5586 10.5156L10.457 10.6094M7.34375 9.57031L7.22656 9.5L7.10937 9.5625L7.13281 9.42578L7.03906 9.32812L7.17578 9.3125L7.23828 9.1875L7.29297 9.31641L7.42578 9.33984L7.32812 9.43359M7.72266 11.1328L7.60547 11.0664L7.48438 11.125L7.51172 10.9922L7.41797 10.8906L7.55078 10.875L7.61328 10.7578L7.67187 10.8789L7.80469 10.9062L7.70312 10.9961M11.6328 8.99219L11.5312 8.93359L11.4219 8.98437L11.4453 8.86719L11.3672 8.77734L11.4844 8.76562L11.5391 8.65625L11.5898 8.76953L11.707 8.78906L11.6172 8.87109M11.4219 10.0117L11.3281 9.96094L11.2461 10L11.2617 9.90625L11.1992 9.83984L11.293 9.82812L11.3359 9.74219L11.375 9.83203L11.4688 9.84766L11.3984 9.91016M7.16406 11.4141L7.08594 11.3672L7.00391 11.4062L7.01953 11.3164L6.95703 11.25L7.05078 11.2422L7.08984 11.1641L7.12891 11.2422L7.21875 11.2617L7.15234 11.3242M13.1133 11.7734L13.0469 11.7422L12.9805 11.7695L12.9961 11.7031L12.9453 11.6523L13.0195 11.6445L13.0547 11.5859L13.082 11.6484L13.1562 11.6602L13.1016 11.707" fill="#FFFFEF"/>
<path fill-rule="evenodd" clip-rule="evenodd" d="M7.16797 11.418L7.08984 11.3711L7.00781 11.4102L7.02734 11.3203L6.96094 11.2539L7.05078 11.2461L7.09375 11.168L7.13281 11.2461L7.22266 11.2656L7.15625 11.3281" fill="#FFFFEF"/>
<path fill-rule="evenodd" clip-rule="evenodd" d="M7.16797 11.418L7.08984 11.3711L7.00781 11.4102L7.02734 11.3203L6.96094 11.2539L7.05078 11.2461L7.09375 11.168L7.13281 11.2461L7.22266 11.2656L7.15625 11.3281M8.41406 11.418L8.33594 11.3711L8.25781 11.4102L8.27344 11.3203L8.21094 11.2539L8.30078 11.2461L8.33984 11.1641L8.37891 11.2461L8.46875 11.2656L8.40234 11.3281M8.25781 11.8359L8.17969 11.7891L8.10156 11.8281L8.11719 11.7383L8.05469 11.6719L8.14453 11.6602L8.18359 11.582L8.22266 11.6602L8.3125 11.6797L8.24609 11.7422M10.8516 11.0781L10.7734 11.0312L10.6914 11.0703L10.707 10.9805L10.6445 10.9141L10.7344 10.9063L10.7773 10.8242L10.8164 10.9063L10.9023 10.9219L10.8359 10.9844M10.0898 11.0781L10.0117 11.0312L9.92969 11.0703L9.94922 10.9805L9.88672 10.9141L9.97656 10.9063L10.0156 10.8242L10.0547 10.9063L10.1445 10.9219L10.0781 10.9844M8.02734 10.8125L7.98047 10.7852L7.92969 10.8086L7.9375 10.75L7.89844 10.7109L7.95703 10.7031L7.98437 10.6523L8.00391 10.707L8.0625 10.7148L8.02344 10.7539M13.0156 12.1094L12.9375 12.0664L12.8555 12.1055L12.875 12.0156L12.8125 11.9492L12.9023 11.9375L12.9414 11.8594L12.9805 11.9375L13.0703 11.957L13.0039 12.0195M12.3789 12.1914L12.3164 12.1523L12.25 12.1914L12.2656 12.1133L12.2109 12.0586L12.2891 12.0508L12.3203 11.9844L12.3516 12.0508L12.4297 12.0664L12.3711 12.1172M12.6836 12.1875L12.6211 12.1484L12.5586 12.1836L12.5703 12.1133L12.5234 12.0625L12.5938 12.0547L12.625 11.9922L12.6523 12.0547L12.7227 12.0664L12.6719 12.1172M13.5391 11.4375L13.4805 11.4023L13.418 11.4336L13.4336 11.3672L13.3867 11.3164L13.4531 11.3086L13.4844 11.25L13.5117 11.3125L13.5781 11.3242L13.5273 11.3711M12.3828 12.6133L12.3047 12.5703L12.2266 12.6094L12.2461 12.5234L12.1836 12.4648L12.2695 12.4531L12.3125 12.3789L12.3516 12.457L12.4336 12.4727L12.3711 12.5273M12.3867 12.9531L12.3164 12.9141L12.2461 12.9492L12.2617 12.8633L12.207 12.8047L12.2852 12.793L12.3242 12.7188L12.3555 12.7969L12.4336 12.8125L12.375 12.8672M11.8086 12.1875L11.75 12.1523L11.6875 12.1836L11.7031 12.1133L11.6562 12.0664L11.7227 12.0586L11.7539 11.9961L11.7813 12.0586L11.8477 12.0703L11.7969 12.1172M11.2695 12.1875L11.2109 12.1523L11.1484 12.1836L11.1641 12.1133L11.1172 12.0664L11.1836 12.0586L11.2148 11.9961L11.2422 12.0586L11.3086 12.0703L11.2617 12.1172M10.3516 11.3828L10.293 11.3477L10.2305 11.3789L10.2461 11.3125L10.1992 11.2617L10.2656 11.2539L10.2969 11.1953L10.3242 11.2578L10.3906 11.2695L10.3398 11.3125M10.4531 13.0117L10.4023 12.9844L10.3516 13.0117L10.3633 12.9531L10.3242 12.9141L10.3789 12.9023L10.4062 12.8516L10.4297 12.9062L10.4883 12.9141L10.4453 12.9531M9.07031 10.375L8.95312 10.3086L8.83203 10.3672L8.85938 10.2344L8.76562 10.1328L8.89844 10.1172L8.96094 9.99609L9.01953 10.1211L9.15234 10.1445L9.05078 10.2383" fill="#FFFFEF"/>
<path fill-rule="evenodd" clip-rule="evenodd" d="M13.8711 11.3672C13.9446 11.1757 14.0021 10.9784 14.043 10.7773C12.0273 9.00391 9.77734 8.09375 6.93359 8.28125C6.83172 8.48033 6.74804 8.6882 6.68359 8.90234C7.98819 8.77059 9.30586 8.92228 10.5464 9.34703C11.7869 9.77178 12.921 10.4596 13.8711 11.3633V11.3672Z" fill="white"/>
<path d="M12.9648 10.3672L13.0352 10.4062C13.0242 10.428 13.0214 10.4529 13.0273 10.4766C13.0312 10.4922 13.0469 10.5117 13.0664 10.5234C13.0898 10.5391 13.1094 10.5469 13.1289 10.5469C13.1445 10.5469 13.1602 10.5352 13.168 10.5234C13.1719 10.5156 13.1758 10.5078 13.1719 10.4961L13.1602 10.4648L13.1133 10.4141C13.0884 10.3887 13.0697 10.358 13.0586 10.3242C13.0518 10.2988 13.0543 10.2718 13.0658 10.2481C13.0773 10.2244 13.0969 10.2057 13.1211 10.1953C13.1419 10.1861 13.1651 10.1834 13.1875 10.1875C13.2157 10.1936 13.2423 10.2056 13.2656 10.2227C13.2995 10.2465 13.3264 10.2788 13.3438 10.3164C13.3485 10.3337 13.3492 10.3519 13.3458 10.3695C13.3424 10.3871 13.335 10.4037 13.3242 10.418L13.2539 10.375C13.2617 10.3555 13.2656 10.3359 13.2617 10.3203C13.2578 10.3086 13.2422 10.293 13.2227 10.2813C13.2031 10.2656 13.1836 10.2617 13.168 10.2617C13.1634 10.2619 13.159 10.263 13.155 10.265C13.1509 10.267 13.1474 10.2699 13.1445 10.2734C13.1418 10.2774 13.1401 10.2819 13.1394 10.2867C13.1387 10.2914 13.1391 10.2962 13.1406 10.3008C13.1406 10.3164 13.1602 10.3398 13.1875 10.3672L13.2461 10.4453C13.2567 10.4648 13.2617 10.4868 13.2603 10.5089C13.2589 10.5311 13.2513 10.5524 13.2383 10.5703C13.2246 10.5897 13.2056 10.6046 13.1836 10.6133C13.1604 10.6239 13.1343 10.6266 13.1094 10.6211C13.0797 10.6135 13.0519 10.6003 13.0273 10.582C12.9904 10.5599 12.9627 10.5252 12.9492 10.4844C12.9375 10.4492 12.9414 10.4102 12.9648 10.3672ZM12.6211 10.1445L12.6992 10.1836C12.6901 10.2031 12.6873 10.225 12.6914 10.2461C12.6953 10.2656 12.7109 10.2852 12.7305 10.2969C12.7539 10.3125 12.7734 10.3164 12.793 10.3125C12.8086 10.3125 12.8242 10.3047 12.832 10.2891C12.8357 10.2818 12.8371 10.2737 12.8359 10.2656C12.8359 10.2539 12.832 10.2461 12.8203 10.2344L12.7734 10.1836C12.7477 10.1597 12.7277 10.1303 12.7148 10.0977C12.7097 10.0821 12.708 10.0657 12.7101 10.0495C12.7121 10.0332 12.7177 10.0177 12.7266 10.0039C12.7382 9.9867 12.7544 9.97315 12.7734 9.96484C12.7943 9.95585 12.8174 9.95313 12.8398 9.95703C12.8633 9.95703 12.8867 9.96875 12.918 9.98828C12.957 10.0156 12.9883 10.043 12.9961 10.0781C13.0019 10.0948 13.0039 10.1127 13.0019 10.1303C12.9999 10.1478 12.9939 10.1647 12.9844 10.1797L12.9102 10.1367C12.9219 10.1172 12.9219 10.0977 12.918 10.0859C12.9102 10.0703 12.8984 10.0586 12.8789 10.0469C12.8621 10.0339 12.8415 10.027 12.8203 10.0273C12.8155 10.0279 12.8108 10.0297 12.8067 10.0324C12.8027 10.0351 12.7993 10.0387 12.7969 10.043C12.7948 10.0472 12.7937 10.0519 12.7937 10.0566C12.7937 10.0614 12.7948 10.0661 12.7969 10.0703C12.7969 10.082 12.8164 10.1055 12.8437 10.1367C12.875 10.1641 12.8945 10.1914 12.9062 10.207C12.9183 10.2265 12.9243 10.2492 12.9236 10.2721C12.9229 10.295 12.9155 10.3172 12.9023 10.3359C12.889 10.3562 12.8702 10.3721 12.848 10.3818C12.8258 10.3915 12.8012 10.3946 12.7773 10.3906C12.7467 10.3847 12.7175 10.3727 12.6914 10.3555C12.654 10.3347 12.625 10.3016 12.6094 10.2617C12.5983 10.2226 12.6024 10.1807 12.6211 10.1445ZM12.1992 10.0273L12.418 9.67578L12.6797 9.83203L12.6406 9.89453L12.4531 9.77734L12.4023 9.85547L12.582 9.96484L12.543 10.0273L12.3672 9.91797L12.3086 10.0156L12.5039 10.1328L12.4688 10.1953L12.1992 10.0312V10.0273ZM11.582 9.52344L11.6172 9.46094L11.7734 9.54688L11.6992 9.69141C11.6359 9.70545 11.5696 9.69717 11.5117 9.66797C11.4768 9.64984 11.4472 9.62291 11.4258 9.58984C11.4051 9.56002 11.3942 9.52455 11.3945 9.48828C11.3945 9.44922 11.4062 9.41406 11.4258 9.37891C11.4438 9.34283 11.4707 9.31192 11.5039 9.28906C11.5312 9.26563 11.5703 9.25391 11.6094 9.25391C11.6367 9.25391 11.6719 9.26563 11.707 9.28125C11.7455 9.29935 11.7771 9.32952 11.7969 9.36719C11.8125 9.39844 11.8164 9.43359 11.8086 9.47266L11.7266 9.44922C11.731 9.42938 11.7282 9.40862 11.7187 9.39062C11.7084 9.37147 11.6919 9.35635 11.6719 9.34766C11.658 9.33907 11.6425 9.33358 11.6263 9.33156C11.6101 9.32953 11.5937 9.33103 11.5781 9.33594C11.5508 9.34766 11.5234 9.375 11.5 9.41406C11.481 9.44998 11.4741 9.4911 11.4805 9.53125C11.4883 9.5625 11.5078 9.58594 11.543 9.60156L11.5937 9.61719H11.6445L11.668 9.57031L11.582 9.52344ZM8.89453 8.85938L8.95703 8.44531L9.08203 8.46484L9.11328 8.75781L9.23047 8.48438L9.35156 8.50391L9.29297 8.91797L9.21484 8.90625L9.26172 8.58203L9.13281 8.89453L9.05469 8.88281L9.01953 8.54297L8.97266 8.87109L8.89453 8.85938ZM8.47656 8.80859L8.51562 8.39453L8.82031 8.42188L8.81641 8.49219L8.58984 8.47266L8.58203 8.5625L8.78906 8.58203L8.78516 8.65234L8.57813 8.63281L8.56641 8.75L8.79687 8.76953L8.78906 8.83984L8.47656 8.80859Z" fill="#309E3A"/>
<path d="M7.08594 8.54688C7.08594 8.50781 7.09375 8.46875 7.10547 8.44141L7.14453 8.38672L7.20312 8.34766C7.23198 8.33774 7.26254 8.33376 7.29297 8.33594C7.32008 8.33575 7.34693 8.34122 7.37181 8.35198C7.39669 8.36274 7.41907 8.37856 7.4375 8.39844C7.47656 8.4375 7.48828 8.48828 7.48828 8.55469C7.48828 8.625 7.46484 8.67578 7.42969 8.71094C7.41013 8.7299 7.38682 8.74456 7.36125 8.75398C7.33569 8.7634 7.30844 8.76737 7.28125 8.76563C7.25443 8.76631 7.22775 8.76146 7.20288 8.75138C7.17802 8.7413 7.15549 8.7262 7.13672 8.70703C7.11741 8.68624 7.10287 8.66149 7.0941 8.63451C7.08533 8.60752 7.08254 8.57895 7.08594 8.55078V8.54688Z" fill="#309E3A"/>
<path d="M7.17188 8.54688C7.17188 8.59375 7.17969 8.63281 7.20312 8.65625C7.22266 8.68359 7.25 8.69531 7.28125 8.69531C7.29721 8.69562 7.31307 8.69265 7.32785 8.68661C7.34263 8.68056 7.35601 8.67156 7.36719 8.66016C7.38672 8.63672 7.39844 8.60156 7.40234 8.55469C7.40234 8.50391 7.39453 8.46875 7.37109 8.44531C7.36162 8.4336 7.34974 8.42405 7.33626 8.41731C7.32279 8.41058 7.30803 8.4068 7.29297 8.40625C7.25391 8.40625 7.22656 8.41797 7.20703 8.44141C7.18359 8.46484 7.17188 8.5 7.16797 8.54688H7.17188Z" fill="#F7FFFF"/>
<path d="M7.57812 8.76562L7.58203 8.34766H7.75781C7.80469 8.34766 7.83594 8.35547 7.85547 8.36328C7.875 8.37109 7.89453 8.38281 7.90234 8.40234C7.91016 8.42188 7.92188 8.44141 7.92188 8.46875C7.92188 8.5 7.91016 8.52344 7.89453 8.54688C7.875 8.56641 7.84766 8.57813 7.80859 8.58594C7.82812 8.59375 7.84375 8.60547 7.85547 8.61719L7.90234 8.6875L7.95313 8.76562H7.85156L7.79297 8.67578C7.77866 8.65399 7.76301 8.63312 7.74609 8.61328C7.73957 8.60636 7.73156 8.60101 7.72266 8.59766C7.71009 8.59316 7.69693 8.59053 7.68359 8.58984H7.66406V8.76562H7.57812Z" fill="#309E3A"/>
<path d="M7.66406 8.52344H7.72656C7.7525 8.52666 7.77875 8.52666 7.80469 8.52344L7.82422 8.50391C7.83203 8.49609 7.83594 8.48437 7.83594 8.47266C7.83594 8.45703 7.83203 8.44531 7.82422 8.4375C7.81598 8.42876 7.80491 8.42322 7.79297 8.42188H7.66797V8.52344H7.66406Z" fill="white"/>
<path d="M8.05469 8.36719L8.20703 8.375C8.23348 8.37541 8.25975 8.37935 8.28516 8.38672C8.30741 8.39511 8.32745 8.40847 8.34375 8.42578C8.36199 8.4474 8.37532 8.47272 8.38281 8.5C8.39062 8.52734 8.39062 8.55859 8.39062 8.59766C8.39179 8.62757 8.38646 8.65737 8.37499 8.68502C8.36353 8.71267 8.34621 8.7375 8.32422 8.75781C8.30859 8.76953 8.28906 8.78125 8.26562 8.78906H8.1875L8.03125 8.78516L8.05469 8.36719Z" fill="#309E3A"/>
<path d="M8.13281 8.44141L8.12109 8.71484L8.18359 8.72266H8.23438L8.26953 8.70312C8.28125 8.69531 8.28516 8.68359 8.29297 8.66406L8.30469 8.58594L8.30078 8.51562C8.29297 8.49609 8.28906 8.48437 8.27734 8.47656C8.26694 8.46504 8.25334 8.45688 8.23828 8.45312C8.21642 8.44855 8.1942 8.44593 8.17188 8.44531H8.13281V8.44141Z" fill="white"/>
<path d="M10.0977 9.11328L10.1953 8.70703L10.3242 8.73828C10.375 8.75 10.4062 8.76172 10.4219 8.76953C10.4414 8.78125 10.4609 8.79688 10.4688 8.82031C10.4805 8.84766 10.4805 8.875 10.4727 8.90625C10.4692 8.9264 10.4605 8.94529 10.4475 8.96105C10.4345 8.97681 10.4176 8.98889 10.3984 8.99609C10.385 9.00271 10.3704 9.00669 10.3555 9.00781C10.3264 9.00529 10.2976 9.00006 10.2695 8.99219L10.2148 8.98047L10.1758 9.13281L10.0977 9.11328Z" fill="#309E3A"/>
<path d="M10.2578 8.79688L10.2305 8.91406L10.2773 8.92187C10.3086 8.92969 10.332 8.93359 10.3437 8.92969C10.3546 8.92857 10.3648 8.92426 10.3731 8.9173C10.3815 8.91034 10.3876 8.90106 10.3906 8.89063L10.3867 8.84766C10.38 8.83503 10.3689 8.82531 10.3555 8.82031L10.2969 8.80469L10.2578 8.79688Z" fill="white"/>
<path d="M10.4844 9.23047L10.6211 8.83594L10.7891 8.89453C10.8195 8.90313 10.8485 8.9163 10.875 8.93359C10.8906 8.94922 10.9023 8.96875 10.9102 8.99219C10.918 9.01562 10.9102 9.03516 10.9023 9.05859C10.8945 9.08984 10.875 9.10938 10.8516 9.12109C10.8381 9.12891 10.8232 9.13398 10.8078 9.13599C10.7924 9.138 10.7767 9.13692 10.7617 9.13281L10.793 9.17969L10.8164 9.25781L10.8359 9.35156L10.7422 9.32031L10.7148 9.21484C10.7087 9.1896 10.7009 9.1648 10.6914 9.14063C10.688 9.13173 10.6827 9.12371 10.6758 9.11719C10.6639 9.10857 10.6507 9.10197 10.6367 9.09766L10.6211 9.09375L10.5625 9.25781L10.4844 9.23047Z" fill="#309E3A"/>
<path d="M10.6406 9.03125L10.6992 9.05078L10.7734 9.07031C10.7852 9.07031 10.793 9.07031 10.8008 9.0625L10.8203 9.03516V8.99609C10.8153 8.98588 10.8071 8.97763 10.7969 8.97266L10.7383 8.95312L10.6758 8.92969L10.6406 9.03125Z" fill="white"/>
<path d="M10.9727 9.21484C10.9826 9.1791 10.9999 9.14584 11.0234 9.11719C11.0352 9.09766 11.0547 9.08594 11.0742 9.07422C11.0935 9.06357 11.1148 9.05693 11.1367 9.05469C11.1641 9.05469 11.1953 9.05469 11.2266 9.06641C11.2531 9.07304 11.2779 9.08515 11.2994 9.10197C11.321 9.11879 11.3387 9.13995 11.3516 9.16406C11.375 9.21094 11.3789 9.26953 11.3555 9.33203C11.349 9.36013 11.3371 9.38668 11.3203 9.41014C11.3035 9.4336 11.2823 9.45352 11.2578 9.46875C11.2337 9.48075 11.2074 9.48764 11.1805 9.48898C11.1536 9.49033 11.1267 9.4861 11.1016 9.47656C11.0751 9.46993 11.0502 9.45782 11.0287 9.441C11.0072 9.42417 10.9894 9.40302 10.9766 9.37891C10.9536 9.32689 10.9522 9.26789 10.9727 9.21484Z" fill="#309E3A"/>
<path d="M11.0547 9.23829C11.043 9.28126 11.043 9.31641 11.0547 9.34766C11.0703 9.37891 11.0937 9.39845 11.125 9.41016C11.1562 9.41798 11.1836 9.41407 11.2109 9.39845C11.2383 9.38282 11.2617 9.35157 11.2773 9.3047C11.2891 9.25782 11.2891 9.22266 11.2773 9.19141C11.2708 9.17699 11.261 9.16424 11.2489 9.15409C11.2367 9.14395 11.2224 9.13668 11.207 9.13282C11.1921 9.12798 11.1763 9.12651 11.1608 9.12854C11.1452 9.13057 11.1304 9.13603 11.1172 9.14454C11.0898 9.16016 11.0703 9.19141 11.0547 9.23829Z" fill="white"/>
<path d="M11.7852 9.79688L11.9766 9.42578L12.1328 9.50391C12.1719 9.52734 12.1992 9.54297 12.2109 9.55859C12.2266 9.57812 12.2344 9.59766 12.2383 9.61719C12.2422 9.63672 12.2383 9.66406 12.2227 9.68359C12.2109 9.71094 12.1914 9.73047 12.1641 9.74219C12.1367 9.75 12.1094 9.75 12.0742 9.73828C12.0859 9.75391 12.0938 9.77344 12.0977 9.78906L12.1094 9.87109L12.1172 9.96875L12.0273 9.92187L12.0156 9.8125L12.0039 9.73437C12.0005 9.72548 11.9952 9.71746 11.9883 9.71094C11.9778 9.70135 11.966 9.69344 11.9531 9.6875L11.9375 9.67969L11.8594 9.83594L11.7852 9.79688Z" fill="#309E3A"/>
<path d="M11.9688 9.62109L12.0234 9.64844L12.0938 9.67969C12.1055 9.67969 12.1133 9.67969 12.1211 9.67188C12.1316 9.66642 12.1402 9.65789 12.1458 9.64743C12.1514 9.63697 12.1537 9.62506 12.1523 9.61328C12.1481 9.60161 12.1398 9.59188 12.1289 9.58594C12.1124 9.57491 12.0954 9.56449 12.0781 9.55469L12.0195 9.52734L11.9688 9.62109Z" fill="white"/>
<path d="M13.3281 10.5586C13.3516 10.5195 13.375 10.4961 13.4063 10.4805C13.4253 10.4678 13.4465 10.4585 13.4687 10.4531C13.4894 10.4491 13.5106 10.4491 13.5312 10.4531C13.5586 10.457 13.5898 10.4688 13.6172 10.4922C13.6403 10.5063 13.6602 10.525 13.6756 10.5472C13.6911 10.5694 13.7018 10.5946 13.707 10.6211C13.7127 10.6779 13.6974 10.7349 13.6641 10.7813C13.6492 10.8065 13.6295 10.8285 13.606 10.8459C13.5825 10.8633 13.5558 10.8759 13.5273 10.8828C13.5009 10.8878 13.4737 10.8872 13.4475 10.8812C13.4213 10.8751 13.3966 10.8637 13.375 10.8477C13.3519 10.8336 13.332 10.8148 13.3165 10.7926C13.3011 10.7705 13.2904 10.7453 13.2852 10.7188C13.2808 10.6908 13.282 10.6623 13.2887 10.6348C13.2954 10.6073 13.3075 10.5814 13.3242 10.5586H13.3281Z" fill="#309E3A"/>
<path d="M13.3984 10.6016C13.375 10.6406 13.3633 10.6797 13.3672 10.7109C13.3699 10.7267 13.3757 10.7418 13.3845 10.7553C13.3932 10.7687 13.4046 10.7802 13.418 10.7891C13.4303 10.7977 13.4444 10.8035 13.4592 10.8062C13.4741 10.8089 13.4893 10.8084 13.5039 10.8047C13.5352 10.7969 13.5664 10.7734 13.5937 10.7305C13.6211 10.6914 13.6328 10.6563 13.625 10.625C13.625 10.5938 13.6055 10.5703 13.5781 10.5469C13.5508 10.5234 13.5195 10.5234 13.4883 10.5313C13.457 10.5391 13.4297 10.5625 13.4023 10.6016H13.3984Z" fill="white"/>
<path d="M9.625 8.94531L9.69141 8.64844L9.91016 8.69922L9.89844 8.75L9.74219 8.71094L9.72656 8.77734L9.87109 8.8125L9.85938 8.86328L9.71484 8.82422L9.69531 8.90625L9.85938 8.94531L9.84766 8.99609L9.625 8.94531Z" fill="#309E3A"/>
</g>
<defs>
<clipPath id="clip0_194_2058">
<rect width="20" height="20" fill="white"/>
</clipPath>
</defs>
</svg>
