<svg width="20" height="20" viewBox="0 0 20 20" fill="none" xmlns="http://www.w3.org/2000/svg">
<g clip-path="url(#clip0_194_2487)">
<path fill-rule="evenodd" clip-rule="evenodd" d="M-0.78125 0H29.219V20.0011H-0.78125V0Z" fill="white"/>
<path fill-rule="evenodd" clip-rule="evenodd" d="M-0.78125 0H29.219V9.99915H-0.78125V0Z" fill="#DF0000"/>
<path fill-rule="evenodd" clip-rule="evenodd" d="M6.13885 1.6764C5.34937 1.84556 4.64215 2.28123 4.13597 2.91026C3.62979 3.53928 3.35548 4.32333 3.35912 5.13071C3.36277 5.9381 3.64413 6.71964 4.15597 7.34407C4.6678 7.9685 5.37892 8.39778 6.16989 8.55981C5.63733 8.71567 5.07583 8.74564 4.52969 8.64736C3.98356 8.54909 3.46773 8.32525 3.02291 7.99351C2.57808 7.66177 2.21643 7.2312 1.96648 6.73578C1.71653 6.24035 1.58512 5.69363 1.58261 5.13873C1.58011 4.58383 1.70659 4.03593 1.95206 3.53828C2.19753 3.04062 2.55528 2.60681 2.9971 2.27107C3.43891 1.93533 3.9527 1.70685 4.49792 1.60365C5.04315 1.50045 5.6049 1.52536 6.13885 1.6764Z" fill="white"/>
<path fill-rule="evenodd" clip-rule="evenodd" d="M4.91965 4.58328L4.38625 4.19382L5.04947 4.18817L5.25267 3.55882L5.46434 4.18817H6.12474L5.59416 4.58328L5.79736 5.21264L5.25831 4.826L4.72209 5.21546L4.91965 4.58328ZM5.65343 6.75358L5.1172 6.36411L5.78043 6.35846L5.98645 5.72911L6.19529 6.35564H6.85852L6.32229 6.75075L6.52832 7.38011L5.99209 6.99629L5.45587 7.38576L5.65343 6.75358ZM8.08901 6.73664L7.55278 6.34718L8.21319 6.34153L8.41921 5.71217L8.62805 6.34153H9.2941L8.7607 6.73664L8.96672 7.366L8.42767 6.97935L7.89145 7.36882L8.08901 6.73664ZM8.81432 4.58611L8.2781 4.19664L8.94132 4.19099L9.14452 3.56164L9.35619 4.18817H10.0166L9.48601 4.58328L9.68921 5.21264L9.15016 4.82882L8.61394 5.21829L8.81432 4.58611ZM6.88674 3.16088L6.35052 2.77141L7.01374 2.76577L7.21976 2.13641L7.42861 2.76577H8.09183L7.55561 3.16088L7.76163 3.78742L7.22541 3.40359L6.68918 3.79306L6.88674 3.16088Z" fill="white"/>
</g>
<defs>
<clipPath id="clip0_194_2487">
<rect width="20" height="20" fill="white"/>
</clipPath>
</defs>
</svg>
