<svg width="20" height="20" viewBox="0 0 20 20" fill="none" xmlns="http://www.w3.org/2000/svg">
<g clip-path="url(#clip0_194_2526)">
<path fill-rule="evenodd" clip-rule="evenodd" d="M-5 0H24.9954V19.9969H-5V0Z" fill="#199D00"/>
<path fill-rule="evenodd" clip-rule="evenodd" d="M2.55933 5.66847C2.52707 6.13615 2.48273 6.9586 2.88186 7.04326C3.36162 7.08761 3.09553 6.22887 3.2689 6.07567C3.30518 5.99504 3.36565 5.99504 3.36969 6.09583V6.82152C3.36565 7.06342 3.51886 7.12793 3.63981 7.18034C3.76882 7.16825 3.84945 7.17228 3.90186 7.29323L3.95831 8.55513C3.95831 8.55513 4.25262 8.63576 4.26471 7.84556C4.28084 7.38192 4.17198 6.99085 4.23649 6.90216C4.23649 6.81346 4.34937 6.80943 4.43001 6.84975C4.55499 6.93844 4.61143 7.05133 4.80495 7.00295C5.10329 6.92231 5.28068 6.77718 5.28875 6.5514C5.27849 6.32905 5.2322 6.10983 5.15167 5.90231C5.16377 5.86199 5.0912 5.7612 5.10732 5.72089C5.15973 5.80152 5.24037 5.79749 5.26053 5.72089C5.20811 5.55156 5.13151 5.39432 5.0025 5.32579C4.89768 5.23306 4.74448 5.25322 4.68803 5.44673C4.68142 5.70087 4.76739 5.94874 4.92993 6.14421C4.98063 6.25376 5.00149 6.37476 4.99041 6.49496C4.90574 6.54737 4.82108 6.52318 4.74851 6.45061C4.74851 6.45061 4.51064 6.26919 4.51064 6.2329C4.57515 5.82974 4.52677 5.78539 4.49048 5.67251C4.46629 5.5193 4.39372 5.47092 4.33325 5.3661C4.27277 5.3016 4.19617 5.3016 4.15586 5.3661C4.05103 5.54753 4.09941 5.93456 4.17601 6.10792C4.23246 6.26919 4.31309 6.36998 4.27277 6.36998C4.24052 6.45868 4.17601 6.43852 4.12763 6.3337C4.0678 6.11164 4.0393 5.8823 4.04297 5.65235C4.02281 5.47092 4.00265 5.08792 3.8817 4.99116C3.80914 4.8944 3.70028 4.94278 3.664 5.03148C3.6538 5.20622 3.65784 5.3815 3.67609 5.55559C3.75672 5.8378 3.78091 6.09583 3.82123 6.39014C3.83333 6.78524 3.59143 6.5635 3.60352 6.36595C3.65996 6.11195 3.64384 5.70879 3.59546 5.608C3.55514 5.50721 3.51079 5.48302 3.41807 5.49915C3.33743 5.49108 3.14795 5.70073 3.09553 6.05551C3.09553 6.05551 3.04716 6.23694 3.027 6.39417C2.99878 6.57559 2.88186 6.70461 2.79719 6.36998C2.72462 6.12808 2.68028 5.52737 2.55933 5.66847Z" fill="white"/>
<path fill-rule="evenodd" clip-rule="evenodd" d="M3.86558 7.58754L2.61577 8.18826C2.62786 7.90604 3.20842 7.38999 3.60352 7.38193C3.86155 7.38999 3.79704 7.48272 3.86558 7.58351V7.58754Z" fill="white"/>
<path fill-rule="evenodd" clip-rule="evenodd" d="M3.64787 7.97863C2.98668 9.67595 5.18796 9.91382 5.43389 8.04717C5.45808 7.97057 5.55484 7.89397 5.56693 8.01895C5.51452 9.71224 3.86558 9.82512 3.58336 9.29295C3.51482 9.172 3.49467 8.88978 3.4866 8.72045C3.44629 8.38986 3.26889 8.51887 3.24471 8.84947C3.21648 9.03089 3.22051 9.0833 3.22051 9.26069C3.30921 10.5911 5.43792 10.0186 5.78464 8.918C5.96606 8.30923 5.75239 7.85768 5.85318 7.85768C6.06282 8.08749 6.36116 7.88994 6.42567 7.8093C6.45389 7.76899 6.52243 7.7448 6.57081 7.79721C6.73207 7.91816 7.02638 7.85768 7.08686 7.65207C7.11911 7.44646 7.14733 7.23681 7.1554 7.0191C7.02235 7.05942 6.92156 7.08764 6.9135 7.14005L6.88528 7.32551C6.87318 7.38195 6.75626 7.38598 6.75223 7.30938C6.69982 7.07958 6.49018 7.04732 6.36116 7.40614C6.2765 7.47871 6.11926 7.48677 6.10314 7.38598C6.1233 7.14408 6.02654 7.11183 5.83302 7.22471L5.64353 5.81364C5.72416 5.81364 5.80077 5.87008 5.87334 5.77736C5.7927 5.52336 5.61934 5.01134 5.52661 4.97103C5.47823 4.91459 5.44195 4.95087 5.38147 4.96296C5.27665 4.99522 5.17989 5.08391 5.21215 5.25727L5.53468 7.28116C5.5508 7.36582 5.47823 7.48274 5.38551 7.47065C5.22827 7.36179 5.18796 7.14811 4.92187 7.15618C4.72432 7.15618 4.50258 7.36985 4.47839 7.57547C4.4421 7.73673 4.43001 7.91413 4.47839 8.05523C4.61143 8.2165 4.77673 8.2044 4.92187 8.16409C5.03879 8.11571 5.13554 7.99879 5.17989 8.02701C5.20811 8.0633 5.18392 8.45033 4.61949 8.75271C4.28084 8.90591 4.00669 8.93816 3.86155 8.65998C3.77285 8.48662 3.86961 7.82543 3.64787 7.9746V7.97863Z" fill="white"/>
<path fill-rule="evenodd" clip-rule="evenodd" d="M6.4418 6.24904C6.57484 6.2047 7.19975 5.48303 7.19975 5.48303L7.10702 5.41046C7.07073 5.37821 7.07476 5.34999 7.10702 5.31774C7.26022 5.22904 7.21184 5.02746 7.13121 4.93876C7.07862 4.9125 7.02065 4.89883 6.96188 4.89883C6.9031 4.89883 6.84513 4.9125 6.79255 4.93876C6.68369 5.04762 6.6595 5.21291 6.74417 5.31774C6.8248 5.35805 6.9135 5.43868 6.85706 5.48706C6.59903 5.76122 5.89752 6.23292 5.97816 6.25308C5.99428 6.27323 6.4297 6.27323 6.4418 6.25308V6.24904ZM2.65609 8.78898C2.42225 9.16392 2.40209 9.72432 2.53514 9.88962C2.59964 9.97025 2.71253 10.0025 2.79719 9.97831C2.94636 9.91381 3.01087 9.61546 2.97459 9.50661C2.92621 9.42598 2.88589 9.41791 2.83751 9.48242C2.73269 9.69207 2.68834 9.54693 2.68028 9.43001C2.66415 9.20827 2.68431 8.99862 2.7085 8.83736C2.73672 8.67206 2.7085 8.72044 2.65609 8.78898ZM12.6989 8.18423C12.4731 7.6964 12.1587 7.21261 12.0579 7.02715C11.7538 6.54569 11.4311 6.07631 11.0903 5.62011C10.8484 5.32983 11.4894 5.74106 11.0096 5.16453C10.8282 5.00327 10.8161 4.99924 10.6629 4.87022C10.5863 4.81378 10.4009 4.71702 10.3686 4.87829C10.3526 4.99387 10.3581 5.11141 10.3847 5.22501C10.4009 5.30564 10.5178 5.43868 10.5783 5.51932C11.3443 6.54739 12.0256 7.59158 12.6787 8.89783C12.7836 8.84945 12.7594 8.2689 12.6989 8.18423Z" fill="white"/>
<path fill-rule="evenodd" clip-rule="evenodd" d="M11.7031 9.8251C11.6587 9.87751 11.8119 10.0912 12.0135 10.0912C12.3522 10.0509 12.6465 9.86138 12.9206 9.36549C12.9932 9.24454 13.1222 9.00264 13.1263 8.80509C13.1545 7.67623 13.0698 6.79734 12.9005 5.98294C12.8924 5.90231 12.9005 5.80555 12.9126 5.78136C12.9327 5.75717 13.0053 5.78136 13.0456 5.72089C13.1021 5.66041 12.8924 5.17258 12.7755 4.98713C12.7312 4.90246 12.715 4.84602 12.6465 4.99519C12.5699 5.11614 12.5255 5.32982 12.5255 5.52737C12.6868 6.6401 12.7392 7.61576 12.844 8.72446C12.8521 8.83331 12.836 8.99055 12.7634 9.05102C12.4685 9.38095 12.1072 9.64475 11.7031 9.8251ZM16.2508 9.82107C16.0089 9.95814 16.0089 10.1194 16.2064 10.1275C16.5411 10.0872 16.9402 10.0589 17.2143 9.64367C17.2869 9.52676 17.3756 9.21229 17.3796 9.0228C17.4038 7.89394 17.3635 7.0473 17.1942 6.23291C17.1861 6.15227 17.1498 5.97085 17.1619 5.94666C17.1861 5.89022 17.295 5.95069 17.3353 5.88618C17.3917 5.82974 17.0531 5.39029 16.9321 5.20081C16.8878 5.12017 16.8717 5.06373 16.8031 5.2129C16.7265 5.33385 16.7023 5.55156 16.7305 5.74105C16.912 6.95054 17.045 7.85766 17.0692 8.92604C17.0571 9.03086 17.0531 9.08731 17.0047 9.21229C16.8999 9.34936 16.783 9.51869 16.6701 9.59933C16.5612 9.67996 16.3274 9.76059 16.2508 9.82107Z" fill="white"/>
<path fill-rule="evenodd" clip-rule="evenodd" d="M16.4322 8.73658V7.99879C16.4291 7.81494 16.3879 7.63374 16.3113 7.46661C16.2387 7.30534 16.283 7.18036 16.2508 7.007C16.2185 6.83767 16.2266 6.57965 16.1782 6.37807C16.1621 6.29743 16.1218 6.04747 16.1379 6.02328C16.154 5.96684 16.2306 6.02328 16.2669 5.95878C16.3233 5.8983 16.0734 5.25324 15.9484 5.07182C15.9041 4.99118 15.8234 5.01537 15.7186 5.15245C15.6259 5.23711 15.6622 5.43869 15.6984 5.62818C15.9403 6.89009 16.1177 8.03507 16.0814 9.23247C16.0694 9.33729 16.4362 8.93009 16.4322 8.73658ZM14.6462 7.1723C14.497 7.1723 14.1785 6.87396 14.0818 6.70463C14.0678 6.66381 14.0624 6.62055 14.0658 6.57755C14.0693 6.53455 14.0816 6.49272 14.1019 6.45467C14.1584 6.41435 14.2471 6.37404 14.3116 6.41435C14.3116 6.41435 14.3761 6.51111 14.364 6.52321C14.4446 6.56352 14.4849 6.53933 14.493 6.50305C14.497 6.4466 14.4648 6.41032 14.4648 6.34178C14.5051 6.16842 14.7067 6.1402 14.7792 6.25309C14.8357 6.32162 14.8558 6.46676 14.8639 6.56755C14.8639 6.61593 14.7833 6.55546 14.7349 6.56755C14.6905 6.58368 14.6784 6.63609 14.6744 6.68447C14.6663 6.81348 14.6502 7.0191 14.6462 7.16827V7.1723ZM11.8402 9.05104C11.8805 8.66401 11.8281 7.98266 11.824 7.75689C11.8079 7.22068 11.7192 6.18455 11.6789 6.01522C11.6305 5.68866 11.8119 6.0515 11.7878 5.86202C11.7273 5.53949 11.5459 5.31371 11.3362 5.01537C11.2677 4.92264 11.2717 4.90249 11.1628 5.03956C11.05 5.30565 11.1508 5.48707 11.179 5.69269C11.3322 6.36597 11.4209 6.98281 11.4612 7.59562C11.5064 8.23301 11.5118 8.87259 11.4773 9.51065C11.5942 9.51871 11.7797 9.3252 11.8402 9.05104Z" fill="white"/>
<path fill-rule="evenodd" clip-rule="evenodd" d="M16.9523 8.43418C16.6822 7.98667 16.279 7.49884 16.1701 7.31742C15.8092 6.81065 15.4299 6.31712 15.0332 5.83781C14.6986 5.48705 15.1864 5.78136 14.9687 5.51124C14.7833 5.30966 14.7268 5.24516 14.5736 5.12421C14.493 5.0718 14.4446 4.97504 14.4204 5.14033C14.4083 5.28547 14.4003 5.4548 14.4083 5.57978C14.4083 5.64832 14.4809 5.7733 14.5414 5.8499C15.3477 6.84572 16.2347 7.86572 16.9483 9.14375C17.049 9.08731 17.0168 8.51482 16.9483 8.43418H16.9523Z" fill="white"/>
<path fill-rule="evenodd" clip-rule="evenodd" d="M4.78882 7.60368C4.76867 7.63997 4.72432 7.68431 4.74045 7.72463C4.7727 7.76495 4.79689 7.77704 4.84527 7.78107C4.88558 7.78107 4.95009 7.78914 4.96219 7.76495C4.97672 7.74718 4.98625 7.72586 4.98979 7.70318C4.99334 7.6805 4.99076 7.65729 4.98234 7.63593C4.94203 7.52305 4.81301 7.56336 4.78882 7.60368Z" fill="#1BA400"/>
<path fill-rule="evenodd" clip-rule="evenodd" d="M13.8358 14.1631C14.1946 14.1752 14.4285 14.1793 14.747 14.2156L15.1179 14.1752C15.5331 14.1349 15.5533 14.7679 15.5533 14.7679C15.5493 15.1388 15.4041 15.1549 15.2227 15.1952C15.1179 15.2114 15.0614 15.1348 15.009 15.0541C14.9405 15.0824 14.8478 15.0864 14.7308 15.0703C14.5817 15.0622 14.4325 15.0622 14.2874 15.0501C14.1261 15.038 14.0414 15.0703 13.8842 15.0541C13.8479 15.1065 13.8036 15.1751 13.7108 15.1549C13.6302 15.1469 13.5335 14.9171 13.5617 14.7477C13.6181 14.6227 13.602 14.6631 13.598 14.6066C12.1304 14.5703 10.6549 14.5058 9.21556 14.526C8.0867 14.526 6.978 14.5744 5.8693 14.6227C5.27665 14.6147 4.82108 14.5179 4.51064 14.0583C4.53886 14.0583 6.0225 14.147 6.45389 14.1188C7.26022 14.1067 7.98994 14.0422 8.80837 14.018C10.421 14.0462 12.0135 14.0462 13.6262 14.1591C13.473 14.0543 13.4649 13.8043 13.7068 13.7438C13.7229 13.7318 13.735 13.8648 13.7713 13.8648C13.9568 13.8527 13.8761 14.1067 13.8358 14.1631ZM7.36907 5.28144C7.12717 5.97891 7.50615 6.74089 7.77224 6.66832C7.96575 6.74895 8.0867 6.38207 8.16734 5.98294C8.21975 5.87006 8.26007 5.85796 8.28829 5.9144C8.28022 6.44658 8.3286 6.5635 8.46568 6.72476C8.54456 6.79518 8.646 6.83509 8.75171 6.83731C8.85742 6.83952 8.96044 6.8039 9.0422 6.73686L9.28007 6.49496C9.33248 6.44255 9.40102 6.43852 9.47762 6.4869C9.55019 6.55543 9.53809 6.66832 9.69533 6.74895C9.82434 6.80136 10.1066 6.76105 10.1711 6.64816C10.2557 6.49899 10.2799 6.44658 10.3202 6.39014C10.3807 6.3095 10.4855 6.34176 10.4855 6.36998C10.4775 6.41433 10.417 6.46271 10.4573 6.54334C10.5299 6.59978 10.55 6.5635 10.5944 6.5514C10.7476 6.47883 10.8645 6.14018 10.8645 6.14018C10.8685 6.01923 10.8 6.02729 10.7556 6.05148L10.6347 6.13614C10.5541 6.14824 10.4089 6.19662 10.3364 6.08373C10.2638 5.95069 10.2598 5.7612 10.2033 5.62413C10.2033 5.61606 10.1066 5.41045 10.1993 5.39835C10.2436 5.40642 10.3444 5.43061 10.3605 5.34997C10.4089 5.26934 10.2557 5.03954 10.1509 4.92262C10.0622 4.82586 9.9332 4.81377 9.81225 4.91456C9.73161 4.99519 9.73968 5.07582 9.72355 5.16049C9.70961 5.21931 9.70964 5.28058 9.72364 5.33939C9.73764 5.3982 9.76523 5.45291 9.80418 5.49914C9.88885 5.66444 10.0461 5.87812 9.99367 6.18452C9.99367 6.18452 9.90094 6.32563 9.74371 6.30547C9.6792 6.28935 9.57438 6.26516 9.51794 5.84587C9.47762 5.52737 9.526 5.08389 9.39296 4.87827C9.34458 4.74926 9.31232 4.62831 9.19137 4.84602C9.15912 4.92665 9.02205 5.05566 9.1188 5.32175C9.21104 5.55608 9.23888 5.81082 9.19944 6.05954C9.14299 6.14421 9.1309 6.17646 9.0543 6.26112C8.95351 6.36998 8.84062 6.34176 8.75596 6.30144C8.67532 6.24903 8.61082 6.22081 8.57453 6.04745C8.5826 5.7733 8.59469 5.32578 8.54631 5.22902C8.47374 5.08389 8.35279 5.1363 8.30038 5.18064C8.06644 5.44008 7.91 5.75995 7.84884 6.10389C7.7803 6.32563 7.70773 6.26516 7.65532 6.17243C7.53034 6.05148 7.52227 5.12823 7.36907 5.28144Z" fill="white"/>
<path fill-rule="evenodd" clip-rule="evenodd" d="M8.10283 6.80136C8.21572 6.72073 8.16331 6.66832 8.3286 6.83362C8.54137 7.20771 8.6655 7.62562 8.69145 8.0552C8.67936 8.156 8.75193 8.21647 8.78418 8.19631C8.80031 7.96248 9.37683 7.63188 9.90094 7.5835C9.98158 7.56738 9.94126 7.41417 9.95335 7.33354C9.9211 7.04326 10.1146 6.77717 10.3928 6.75702C10.7637 6.81346 10.8887 7.01101 10.8968 7.31338C10.8564 7.89797 10.2477 7.99876 9.90498 8.03908C9.85256 8.06327 9.83241 8.08746 9.90498 8.11568L11.3362 8.11971L11.4088 8.16003C11.4168 8.20034 11.3886 8.16809 11.3281 8.26082C11.2677 8.35355 11.1911 8.57125 11.187 8.71236C10.758 8.8376 10.3178 8.92131 9.87272 8.96232C9.71952 9.04296 9.64292 9.14778 9.67114 9.2647C9.72355 9.39774 10.0703 9.52675 10.0703 9.53482C10.1348 9.57513 10.2114 9.67189 10.0501 9.86541C9.35264 9.83719 8.8124 9.53885 8.62695 9.11956C8.5705 9.07924 8.506 9.11956 8.46971 9.176C8.22698 9.54912 7.87702 9.84006 7.46583 10.0106C7.18765 10.0791 6.90543 9.97023 6.77239 9.78881C6.68369 9.68399 6.68773 9.5711 6.65144 9.54691C6.50227 9.61142 5.21618 10.1597 5.38147 9.90573C5.69191 9.56707 6.23618 9.32114 6.71192 8.99054C6.75223 8.88169 6.81271 8.50675 7.00219 8.3858C7.01026 8.3858 6.96994 8.60351 6.97397 8.69623C6.97397 8.77284 6.96994 8.80106 6.98607 8.7809C7.01832 8.76074 7.59888 8.30517 7.64323 8.16406C7.69967 8.08343 7.65935 7.88184 7.65935 7.87378C7.55453 7.59157 7.40133 7.57141 7.34488 7.4303C7.29247 7.24484 7.31666 7.0352 7.42148 6.97472C7.51421 6.89006 7.62307 6.89812 7.72789 6.99085C7.84884 7.09567 7.94963 7.30129 7.98188 7.45449C7.96172 7.51496 7.82868 7.41417 7.7803 7.44643C7.86093 7.52706 7.90125 7.62785 7.92947 7.7488C8.0101 8.07133 7.98188 8.19228 7.90931 8.40193C7.65129 8.94216 7.32069 9.10746 7.03042 9.30501C7.02235 9.30904 7.01832 9.44612 7.12717 9.51869C7.16749 9.55901 7.31666 9.57513 7.49002 9.51869C7.86711 9.31049 8.17217 8.99278 8.36489 8.60754C8.4173 8.31726 8.34473 8.01086 8.26813 7.74477C8.18025 7.53254 8.09957 7.31739 8.02623 7.09971C8.01817 6.93844 8.03026 6.882 8.10686 6.80136H8.10283ZM4.36147 5.29353C4.52273 5.37013 4.83317 5.33385 4.82108 5.07179L4.81301 4.94681C4.78076 4.86618 4.68803 4.88633 4.66787 4.971C4.65981 4.99519 4.67997 5.03954 4.65578 5.05163C4.63965 5.06373 4.58724 5.05566 4.59127 4.98309C4.59127 4.9589 4.57515 4.93471 4.56305 4.91859C4.55096 4.91456 4.54693 4.91052 4.52677 4.91052C4.50258 4.91052 4.50661 4.91859 4.49048 4.93875L4.47839 4.99922C4.47839 5.02744 4.46629 5.03551 4.44613 5.03954C4.42598 5.03954 4.43001 5.03954 4.41388 5.03147C4.40179 5.01938 4.38969 5.01535 4.38969 4.99519L4.38163 4.93068C4.37089 4.91879 4.35685 4.91037 4.34131 4.90649C4.24858 4.90649 4.24455 5.01132 4.24858 5.05163C4.24052 5.05566 4.23649 5.24112 4.36147 5.29353Z" fill="white"/>
<path fill-rule="evenodd" clip-rule="evenodd" d="M9.18331 7.33357C9.34458 7.4142 9.73968 7.36582 9.64292 7.11183L9.63486 6.99088C9.6026 6.91025 9.51391 6.9304 9.48972 7.01104C9.48568 7.03523 9.50181 7.07958 9.47762 7.09167C9.46553 7.1078 9.41312 7.09973 9.41312 7.02716C9.41312 7.00297 9.39699 6.97878 9.38489 6.96266C9.37683 6.95459 9.36877 6.95459 9.34861 6.95459C9.32845 6.95459 9.32845 6.95863 9.31636 6.97878L9.30426 7.03926C9.30023 7.06748 9.28813 7.07958 9.27201 7.07958C9.24782 7.07958 9.25588 7.07958 9.23572 7.07151C9.22766 7.05942 9.21153 7.05539 9.21153 7.03523C9.21153 7.01507 9.21153 6.98282 9.20347 6.97072C9.19541 6.95863 9.17928 6.95459 9.16315 6.95056C9.07446 6.95056 9.06639 7.05135 9.07043 7.09167C9.06639 7.09973 9.06236 7.28116 9.18331 7.33357ZM11.9974 6.48692C12.1587 6.56756 12.4691 6.53127 12.457 6.26922L12.4489 6.14423C12.4167 6.0636 12.324 6.08376 12.3038 6.16439C12.2957 6.19261 12.3159 6.23293 12.2917 6.24503C12.2756 6.26115 12.2232 6.25309 12.2272 6.18052C12.2272 6.15633 12.207 6.13214 12.199 6.11601C12.1869 6.11198 12.1829 6.10795 12.1587 6.10795C12.1385 6.10795 12.1385 6.11601 12.1264 6.13617L12.1143 6.19665C12.1143 6.22084 12.1022 6.23293 12.0821 6.23696C12.0619 6.23696 12.0659 6.23696 12.0498 6.22487C12.0377 6.2168 12.0256 6.20874 12.0256 6.19261C12.0256 6.17246 12.0216 6.1402 12.0135 6.12408C12.0055 6.11198 11.9934 6.10795 11.9732 6.10392C11.8845 6.10392 11.8805 6.20874 11.8845 6.24503C11.8764 6.25309 11.8724 6.43854 11.9974 6.48692ZM13.4488 8.6116C13.1666 8.93413 13.2916 9.46631 13.3561 9.57919C13.4528 9.77271 13.5254 9.89366 13.7108 9.98639C13.8802 10.1073 14.0092 10.0307 14.0818 9.94607C14.2511 9.77271 14.2511 9.3252 14.3317 9.2365C14.3882 9.07524 14.5252 9.10346 14.5938 9.17603C14.656 9.26365 14.7392 9.33433 14.8357 9.38164C14.9929 9.51872 15.1784 9.54291 15.3638 9.42196C15.4888 9.34939 15.5735 9.25666 15.646 9.07524C15.7267 8.8535 15.6863 7.83752 15.6662 7.23681C15.6622 7.18843 15.5049 6.40629 15.5049 6.39823C15.5049 6.39016 15.4807 5.9991 15.4646 5.90637C15.4646 5.87008 15.4525 5.85799 15.4928 5.86605C15.5331 5.8983 15.5412 5.90234 15.5654 5.91443C15.6057 5.92249 15.646 5.84992 15.6218 5.78139L15.2267 5.05569C15.1985 5.02747 15.1582 4.99522 15.1058 5.06779C15.0753 5.09438 15.0509 5.12723 15.0342 5.1641C15.0175 5.20096 15.0089 5.24099 15.009 5.28146C15.0211 5.45482 15.0493 5.62818 15.0614 5.80155L15.2227 6.68044C15.2711 7.30938 15.2832 7.8214 15.3316 8.45437C15.3235 8.71642 15.2429 8.95026 15.1622 8.97848C15.1622 8.97848 15.0453 9.05105 14.9687 8.97848C14.9082 8.95026 14.6784 8.59144 14.6784 8.59144C14.5575 8.48259 14.4849 8.51081 14.3962 8.59144C14.1705 8.81318 14.0656 9.23247 13.9084 9.51872C13.8681 9.58322 13.7512 9.63967 13.6262 9.51469C13.3036 9.07121 13.4931 8.45033 13.4528 8.6116H13.4488ZM12.07 4.94684C12.2191 5.00731 12.3199 5.30969 12.2877 5.45482C12.2595 5.63222 12.1788 5.82977 12.1264 5.80155C12.0619 5.78139 12.1667 5.62415 12.1063 5.45886C12.074 5.35403 11.8724 5.15648 11.8926 5.10004C11.8523 4.97909 11.9813 4.92668 12.07 4.94684Z" fill="white"/>
<path fill-rule="evenodd" clip-rule="evenodd" d="M13.9286 8.78897C13.9568 8.42612 13.9044 8.20841 13.8963 7.99876C13.8882 7.78912 13.6544 6.18453 13.6141 6.02326C13.5536 5.72089 13.8358 5.98294 13.8036 5.80555C13.7068 5.58381 13.4689 5.26128 13.3923 5.07179C13.348 4.99116 13.3641 4.91456 13.2633 5.0476C13.1763 5.28737 13.1459 5.54403 13.1746 5.79749C13.4165 7.05939 13.6625 8.10762 13.6221 9.30905C13.7391 9.30905 13.8721 9.04699 13.9286 8.78493V8.78897ZM16.4443 5.4548C16.5814 5.52334 16.658 5.89828 16.6459 6.0031C16.6177 6.20065 16.5451 6.40627 16.4927 6.38208C16.4403 6.35789 16.5048 6.0918 16.4766 6.01117C16.4483 5.89425 16.2669 5.6846 16.283 5.6201C16.2467 5.49108 16.3637 5.43464 16.4443 5.45883V5.4548ZM6.45792 8.10762C6.58694 8.16003 6.6595 8.43015 6.64741 8.51078C6.62322 8.65592 6.55468 8.80912 6.5063 8.793C6.45389 8.77284 6.51437 8.57932 6.49018 8.51885C6.47808 8.36968 6.30069 8.29307 6.30472 8.2326C6.27247 8.11165 6.38132 8.09149 6.45792 8.11165V8.10762Z" fill="white"/>
<path fill-rule="evenodd" clip-rule="evenodd" d="M9.56632 8.52288C9.72758 8.53095 9.81225 8.66399 9.65905 8.7164C9.50584 8.76881 9.35667 8.80913 9.35667 9.03087C9.41312 9.34131 9.27604 9.23245 9.19541 9.19214C9.10268 9.1236 8.83659 8.96233 8.80031 8.60755C8.79627 8.52692 8.86078 8.45435 8.9656 8.45435C9.12687 8.49466 9.3607 8.50273 9.56229 8.52288H9.56632Z" fill="#1B9D00"/>
<path fill-rule="evenodd" clip-rule="evenodd" d="M3.02297 4.85813C3.21245 4.91458 3.22455 5.19276 3.20842 5.27742C3.18423 5.42659 3.11569 5.58383 3.06731 5.56367C3.0149 5.54754 3.06731 5.34596 3.04312 5.28145C3.0149 5.19276 2.85364 5.03149 2.8738 4.98311C2.83348 4.88635 2.94636 4.84201 3.02297 4.86216V4.85813ZM6.76836 6.17245C6.62322 6.25308 6.56678 6.48692 6.65547 6.62399C6.74014 6.74494 6.87318 6.70059 6.89334 6.70059C7.03445 6.71672 7.11911 6.43047 7.11911 6.43047C7.11911 6.43047 7.12314 6.34984 6.95785 6.50304C6.88528 6.51514 6.87721 6.49095 6.85706 6.45063C6.83986 6.37477 6.84837 6.29535 6.88125 6.22486C6.90544 6.15632 6.84899 6.12407 6.76836 6.17245ZM7.8569 4.74928C7.78836 4.80169 7.63919 4.95086 7.63516 5.12422C7.63516 5.22098 7.615 5.22098 7.67548 5.28549C7.72386 5.34999 7.77224 5.34596 7.86497 5.29758C7.88804 5.28263 7.90782 5.26311 7.92307 5.24023C7.93832 5.21735 7.94873 5.19159 7.95366 5.16454C7.97785 5.05165 7.83674 5.21695 7.82062 5.09197C7.78837 4.97908 7.87706 4.9307 7.96173 4.81782C7.96173 4.74121 7.96173 4.6888 7.86093 4.74928H7.8569ZM8.73983 4.91054C8.70468 5.05196 8.68308 5.19641 8.67533 5.34193C8.65114 5.45078 8.78821 5.49513 8.85272 5.35402C8.94545 5.10003 8.94545 4.99118 8.95351 4.88232C8.92529 4.72106 8.8124 4.72106 8.73983 4.90651V4.91054ZM14.2833 7.72866C14.2995 7.7085 15.0655 7.16423 15.0655 7.16423C15.1421 7.14004 15.126 7.44645 15.0897 7.44645C14.8531 7.67576 14.5807 7.86504 14.2833 8.00684C14.243 8.03103 14.2067 7.7972 14.2833 7.72463V7.72866ZM14.9768 7.72463C15.1098 7.78914 15.1663 8.18424 15.1501 8.28906C15.1542 8.4987 15.0211 8.664 14.9687 8.63578C14.9123 8.61159 14.9727 8.37775 14.9486 8.29712C14.9203 8.1802 14.8034 7.9625 14.8236 7.90202C14.7833 7.76898 14.8961 7.70044 14.9768 7.72463ZM10.4452 9.41792C10.4976 9.33729 10.6589 9.22843 10.6629 9.22843C10.7395 9.18811 10.8121 9.25665 10.8081 9.25262C10.8202 9.32922 10.7597 9.39776 10.7798 9.49855C10.796 9.53887 10.8081 9.58322 10.8847 9.56709C11.0056 9.47436 11.1185 9.4663 11.2394 9.45823C11.3322 9.4663 11.3322 9.6195 11.2757 9.62353C11.05 9.67191 10.9532 9.73239 10.7919 9.79286C10.7153 9.83721 10.6508 9.78077 10.6508 9.77673C10.6508 9.7727 10.6105 9.73239 10.6387 9.63159C10.6428 9.55096 10.6105 9.51065 10.546 9.51871C10.4936 9.5429 10.4492 9.55903 10.4251 9.50258C10.413 9.46227 10.413 9.44211 10.4452 9.41792ZM15.7791 9.62756C15.8113 9.66788 15.8355 9.7082 15.7791 9.77673L15.6339 9.89768C15.6057 9.94606 15.5936 10.0106 15.6702 10.0307C15.8113 10.071 16.1419 9.85737 16.1419 9.85333C16.1943 9.81302 16.1782 9.73642 16.1701 9.73642C16.1419 9.70013 16.0694 9.72029 16.025 9.71626C16.0008 9.71626 15.9282 9.70416 15.9605 9.63966C15.9928 9.59934 16.0008 9.57515 16.021 9.52274C16.0452 9.47436 16.025 9.44211 15.9444 9.41389C15.8637 9.40179 15.8315 9.40985 15.7428 9.41389C15.6904 9.42598 15.6743 9.44614 15.6622 9.50661C15.6702 9.59531 15.7226 9.59128 15.7831 9.62756H15.7791Z" fill="white"/>
<path fill-rule="evenodd" clip-rule="evenodd" d="M10.4734 7.41017C10.4533 7.45048 10.3807 7.44645 10.3122 7.41017C10.2436 7.37388 10.2114 7.30938 10.2315 7.27309C10.2517 7.23681 10.3243 7.23681 10.3928 7.27309C10.4613 7.30938 10.4936 7.37388 10.4734 7.41017ZM6.99413 5.32178C6.95381 5.33387 6.9014 5.29759 6.87721 5.24114C6.85302 5.1847 6.86512 5.14035 6.90543 5.12826C6.94575 5.11616 6.99816 5.15648 7.02235 5.20889C7.04654 5.2613 7.03445 5.31371 6.99413 5.32178Z" fill="#259F00"/>
<path fill-rule="evenodd" clip-rule="evenodd" d="M13.8761 14.6469C14.239 14.6631 14.5857 14.651 14.9486 14.6711C15.0171 14.7235 14.9687 14.8647 14.9244 14.8526L14.618 14.8445C14.618 14.7276 14.3156 14.7477 14.3277 14.8485C14.1664 14.8687 14.0213 14.8445 13.86 14.8364C13.8116 14.776 13.8197 14.6711 13.8761 14.6469Z" fill="#209000"/>
</g>
<defs>
<clipPath id="clip0_194_2526">
<rect width="20" height="20" fill="white"/>
</clipPath>
</defs>
</svg>
