<svg width="72" height="48" viewBox="0 0 72 48" fill="none" xmlns="http://www.w3.org/2000/svg">
<path d="M31.0343 6.0003L63.61 6.15038C63.7135 6.15085 63.8185 6.18528 63.9004 6.24859C65.9695 7.84766 62.2164 8.22186 59.7329 8.21212C59.5096 8.21125 59.3115 8.35473 59.2458 8.56812L58.8162 9.96429C58.7852 10.0653 58.7236 10.1537 58.638 10.2157C57.36 11.14 54.1327 13.0352 50.3847 13.9439C45.5309 15.1205 45.678 14.3851 43.6189 15.8559C42.0481 16.9779 41.5115 21.0419 41.4225 23.2024C41.4148 23.3888 41.3075 23.5558 41.1401 23.6379L34.3466 26.968C34.1041 27.0869 33.811 26.9917 33.6846 26.753L24.8683 10.1C24.7434 9.86404 24.4551 9.76786 24.2135 9.88155L22.2404 10.8101C22.1773 10.8398 22.1211 10.8823 22.0755 10.935L18.5463 15.0072C18.4104 15.164 18.3854 15.3884 18.4836 15.5712L22.5565 23.1552C22.5761 23.1917 22.591 23.2304 22.6011 23.2705L23.0727 25.1572C23.1315 25.3922 23.0133 25.6356 22.7922 25.7347L19.2839 27.3074C19.066 27.4051 18.8094 27.335 18.6713 27.1402L16.6564 24.2955C16.5138 24.0942 16.2458 24.0265 16.0265 24.1397C14.7703 24.7879 12.7554 25.9156 12.4372 26.4459C11.996 27.1813 11.1135 30.8584 11.2606 31.7409C11.3714 32.4062 13.9294 37.3039 15.4137 40.0817C15.5527 40.3419 15.4376 40.6646 15.1655 40.7787L11.5297 42.3035C11.2932 42.4026 11.0215 42.3058 10.8764 42.0945C10.5067 41.5559 9.90905 40.9137 9.34848 41.0072C8.46598 41.1542 8.02426 41.8897 7.58301 39.9776C7.14176 38.0655 8.46573 28.7993 11.4074 20.5626C13.626 14.3506 17.5004 10.7878 19.4567 9.57863C19.651 9.45854 19.7524 9.22928 19.697 9.00769L19.2233 7.11365C19.1406 6.78313 19.4055 6.46854 19.7452 6.49371L26.9157 7.02483C26.9703 7.02888 27.0252 7.02392 27.0783 7.01015L30.9063 6.01634C30.9481 6.00549 30.9911 6.0001 31.0343 6.0003Z" stroke="#7D839C" stroke-width="1.5"/>
</svg>
