<svg width="72" height="48" viewBox="0 0 72 48" fill="none" xmlns="http://www.w3.org/2000/svg">
<path d="M22.6897 7.55676C26.4479 8.55742 39.1564 9.93281 42.107 10.0655C44.8513 10.189 44.1164 11.5737 44.0003 11.7666C43.991 11.782 43.9825 11.7961 43.974 11.812C42.9154 13.8016 39.455 17.5486 33.9643 16.7998C27.0742 15.8603 25.5083 15.3905 23.4726 17.113C21.4369 18.8355 23.6292 22.2806 25.0385 24.9427C26.4479 27.6048 27.8572 28.8575 30.0495 29.0141C31.7291 29.1341 33.1597 26.8701 33.7363 25.5779C33.784 25.471 33.8646 25.3828 33.9683 25.3287L37.309 23.5857C37.3751 23.5512 37.4481 23.532 37.5226 23.5293L50.7198 23.0636L59.5635 23.2187C59.6179 23.2197 59.6717 23.2295 59.7229 23.2478L61.5979 23.9174C61.7487 23.9712 61.8646 24.094 61.9096 24.2476L64.381 32.6795C64.4497 32.9139 64.3391 33.1635 64.1193 33.2701L59.3693 35.5731C59.3447 35.585 59.3193 35.5949 59.2932 35.6026L50.8764 38.0965L30.8447 42.5651C30.6477 42.6091 30.4435 42.5302 30.3272 42.3652L23.8068 33.1154C23.7928 33.0955 23.7807 33.0756 23.7698 33.0538C21.415 28.3966 16.6127 18.8643 16.1127 17.7394C15.4863 16.33 7.5 8.18582 7.5 6.77648C7.5 5.65899 10.7819 5.98703 12.4665 6.29762C12.4968 6.30322 12.5252 6.30591 12.5561 6.30598C14.4124 6.31003 18.9619 6.5642 22.6897 7.55676Z" stroke="#7D839C" stroke-width="1.5"/>
</svg>
