<svg width="72" height="48" viewBox="0 0 72 48" fill="none" xmlns="http://www.w3.org/2000/svg">
<path d="M29.7385 38.55H41.1H49.65C54.45 38.55 54.3 37.5 53.85 35.7C53.4 33.9 53.85 33.3 55.95 34.05C58.05 34.8 60.9 34.95 61.35 34.05L64.2731 28.2037C64.3981 27.9538 64.2934 27.651 64.0413 27.5303L53.9738 22.7093C53.8927 22.6705 53.8028 22.6542 53.7133 22.6622L45.7204 23.3759C45.5518 23.3909 45.4033 23.4903 45.3187 23.637C44.801 24.535 43.7226 26.0359 42.6377 26.3882C42.6125 26.3964 42.5859 26.4019 42.5597 26.4054C35.8422 27.2946 33.8949 25.9461 31.35 24C28.8 22.05 27 16.5 25.95 15C24.9 13.5 20.4 10.5 18.3 10.5C16.2 10.5 14.55 12.3 13.5 13.2C12.7974 13.8022 11.5561 14.0267 10.7592 14.084C10.5214 14.1011 10.3164 14.2682 10.2696 14.5019L9.91087 16.2956C9.90365 16.3318 9.89245 16.367 9.87749 16.4007L8.13179 20.3285C8.11072 20.3759 8.09716 20.4263 8.09159 20.4778L7.52627 25.707C7.5097 25.8603 7.56482 26.0127 7.67567 26.12L11.8709 30.1799C12.0351 30.3388 12.0707 30.5885 11.9586 30.7877C11.4151 31.7538 10.616 33.2321 10.4035 33.8329C10.3559 33.9675 10.4081 34.1045 10.5215 34.1913C13.4397 36.426 22.8543 35.847 25.5 35.7C27.455 35.5914 28.7382 37.1949 29.2608 38.2416C29.3521 38.4246 29.5341 38.55 29.7385 38.55Z" stroke="#7D839C" stroke-width="1.5"/>
</svg>
