<svg width="72" height="48" viewBox="0 0 72 48" fill="none" xmlns="http://www.w3.org/2000/svg">
<path d="M46.3639 10.6139L60.8267 6.14137C61.0823 6.06231 61.3549 6.19857 61.4451 6.45052L64.3264 14.498C64.4214 14.7635 64.2782 15.055 64.01 15.1421L34.5001 24.7247C34.4651 24.736 34.4314 24.7513 34.3997 24.7701L25.5939 29.9883C25.5097 30.0382 25.442 30.1117 25.3992 30.1997L23.519 34.0645C23.4859 34.1325 23.4378 34.1922 23.3783 34.2389L18.9055 37.7533C18.8435 37.802 18.7939 37.8647 18.7607 37.9363L16.9343 41.8775C16.8107 42.1442 16.4848 42.2473 16.2303 42.1001L7.93307 37.3016C7.69393 37.1633 7.61226 36.8573 7.75069 36.6182L8.64206 35.0789C8.69287 34.9911 8.7158 34.89 8.70781 34.789L8.39745 30.8601C8.39072 30.7749 8.40594 30.6894 8.44166 30.6117L10.8481 25.3803C10.9054 25.2559 11.0112 25.1603 11.1409 25.1161L19.8873 22.132C20.15 22.0424 20.4353 22.1838 20.5231 22.447L20.6779 22.9111C20.6903 22.9485 20.7072 22.9844 20.7282 23.0179L21.1251 23.653C21.2048 23.7806 21.3378 23.8655 21.4871 23.8841L22.0367 23.9528C22.1037 23.9612 22.1683 23.9831 22.2266 24.0171L23.2963 24.641C23.4071 24.7057 23.4889 24.8106 23.5246 24.9339L24.4641 28.1788C24.5674 28.5358 25.0104 28.6592 25.2835 28.4071L26.0604 27.69C26.1068 27.6471 26.161 27.6134 26.22 27.5907L27.5283 27.0875C27.5575 27.0763 27.5856 27.0623 27.6123 27.0458L32.9694 23.7241C33.0648 23.665 33.1375 23.5755 33.1758 23.4701L33.4978 22.5852C33.5383 22.474 33.6169 22.3808 33.7196 22.3221L37.4091 20.2137C37.4308 20.2013 37.4534 20.1906 37.4767 20.1815L47.3049 16.377C47.556 16.2799 47.6851 16.0013 47.5969 15.7469L46.0392 11.2554C45.9465 10.9882 46.0937 10.6974 46.3639 10.6139Z" stroke="#7D839C" strokeWidth="1.5"/>
</svg>
