<svg width="59" height="38" viewBox="0 0 59 38" fill="none" xmlns="http://www.w3.org/2000/svg">
<path d="M54.4463 37.1602L57.406 36.1574C58.0028 35.9552 58.2674 35.2603 57.9513 34.7152C51.9633 24.3856 40.0895 5.00644 38.6804 4.16828C35.7807 2.44355 34.328 8.02724 32.828 10.2772C31.328 12.5272 32.8013 15.7817 34.5755 17.7494C35.6985 18.9949 39.7385 19.1683 41.2385 20.6683C43.8096 23.2394 44.9765 28.1679 41.6186 28.1679H23.1735C17.9235 28.1679 10.2218 28.2784 9.47179 27.5287C8.72179 26.779 9.8455 26.2658 11.085 24.5443C12.0529 23.1999 14.7416 23.6839 18.1133 24.0999C21.1133 24.5999 27.5304 25.6407 28.7304 25.0407C30.2304 24.2907 29.5815 24.0303 24.3315 20.2803C19.0815 16.5303 20.2041 16.3704 20.6804 13.1683C21.0245 10.8549 18.982 9.89396 17.0793 9.4519C16.9806 9.42898 16.8866 9.39357 16.7993 9.34233C15.0008 8.28706 11.4279 5.66054 10.2571 3.31891C9.30087 1.40653 7.72995 0.972338 6.75163 1.00133C6.37051 1.01263 6.10639 1.33641 6.0551 1.71423L2.49766 27.9214C2.47569 28.0833 2.49371 28.2481 2.55016 28.4014L4.08829 32.5791C4.21901 32.9341 4.13817 33.3325 3.8794 33.6086L1.28938 36.3711C0.99 36.6905 1.21642 37.2131 1.65414 37.2131H54.1254C54.2346 37.2131 54.343 37.1953 54.4463 37.1602Z" stroke="#7D839C" strokeWidth="1.5"/>
</svg>
