<svg width="452" height="320" viewBox="0 0 452 320" fill="none" xmlns="http://www.w3.org/2000/svg">
<path d="M275.267 298.297L271.703 297.941L268.495 297.941L265.644 297.584L259.584 297.584L256.376 297.228L249.96 297.228L247.109 296.871L243.901 296.871L240.693 296.515L234.277 296.515L231.069 296.158L228.218 296.158L224.653 295.802L218.238 295.802L214.673 295.446L211.822 295.446L208.257 295.089L201.842 295.089L198.634 294.733L192.574 294.733L189.01 294.376L185.802 294.376L182.238 294.02L175.822 294.02L172.614 293.663L169.406 293.663L166.198 293.307L159.069 293.307L155.861 292.95L152.297 292.95L148.733 292.594L142.317 292.594L138.752 292.238L135.545 292.238L132.337 291.881L125.564 291.881L122 291.525L115.228 291.525L111.663 291.168L108.455 291.168L104.891 290.812L98.1188 290.812L94.9109 290.455L91.703 290.455L88.495 290.099L81.7228 290.099L78.1584 289.743L74.594 289.743L71.3861 289.386L62.4752 289.386L59.6237 289.03L54.6337 289.03L52.1386 288.673L45.3663 288.673L43.5841 288.317L33.9604 288.317L32.1782 287.96L28.2574 287.96L25.7624 287.604L23.9802 287.604L22.198 287.248L21.1287 286.891L19.703 286.535L17.9208 285.822L16.495 284.752L15.7822 284.04L14.7129 282.614L14.3564 281.901L14 280.832L14 278.337L14.3564 276.911L15.0693 275.485L15.7822 274.059L16.495 273.347L17.5644 272.277L18.9901 271.208L20.0594 270.139L21.1287 269.069L22.5545 268L23.6238 266.931L25.0495 265.505L26.4752 264.079L27.901 262.297L28.9703 260.515L30.0396 258.733L30.7525 256.95L31.1089 255.881L31.4653 254.812L31.8218 253.743L32.1782 252.317L32.1782 251.248L32.5346 249.822L32.5346 245.188L32.1782 243.05L31.8218 241.624L31.8218 240.198L31.4653 238.772L30.7525 237.347L30.396 235.921L30.0396 234.495L29.6832 232.713L28.9703 231.287L28.2574 229.861L27.901 228.079L27.1881 226.297L26.8317 224.871L26.4752 223.089L25.7624 221.307L25.4059 219.881L25.0495 217.743L25.0495 215.96L24.6931 214.178L24.6931 212.04L24.3366 210.257L24.3366 206.337L24.6931 204.198L24.6931 202.416L25.0495 200.277L25.0495 198.139L25.4059 196L25.7624 194.218L26.1188 192.079L26.4752 189.941L26.8317 187.802L27.1881 185.663L27.5445 183.168L27.901 181.03L28.2574 178.891L28.9703 176.752L29.3267 174.257L29.6832 172.119L30.0396 169.98L30.396 167.485L30.7525 164.99L31.4653 162.851L31.8218 160.356L32.5346 156.792L32.8911 154.297L33.6039 152.158L33.9604 149.663L34.3168 147.168L35.0297 144.673L35.3861 142.178L35.7426 139.683L36.4554 137.188L36.8119 134.693L37.1683 132.198L37.8812 129.703L38.2376 127.208L38.594 124.713L39.3069 122.218L39.6634 119.366L40.0198 116.515L40.7327 114.02L41.0891 111.525L41.802 108.673L42.1584 106.178L42.5148 103.683L43.2277 100.832L43.5841 97.9802L43.9406 95.4852L44.6534 92.9901L45.0099 90.1386L45.7228 87.2871L46.0792 84.7921L46.4356 81.9406L47.1485 79.0891L47.5049 76.2376L48.2178 73.3861L48.5742 70.8911L49.2871 68.0396L49.6435 65.1881L50 62.6931L50.7128 59.8416L51.0693 57.3466L51.7822 54.4951L52.1386 52L52.495 49.505L53.2079 47.0099L53.5643 44.5149L53.9208 42.3762L54.2772 40.2376L54.6336 38.4555L54.9901 36.3168L55.3465 34.8911L55.7029 33.1089L56.0594 31.6832L56.4158 29.5446L56.7723 28.4753L57.1287 26.6931L57.8416 24.9109L58.5544 23.1287L59.6237 21.703L60.3366 20.6337L61.4059 19.5644L62.1188 18.8515L63.5445 17.7822L64.2574 17.4258L65.3267 17.0693L66.396 16.7129L67.1089 16.3565L68.5346 16L72.8119 16L74.594 16.3565L76.3762 16.7129L78.1584 17.4258L79.5841 17.7822L81.0099 18.4951L82.792 19.2079L84.5742 20.2772L85.6435 21.3465L87.0693 22.4159L88.1386 23.4852L89.2079 24.5545L89.9208 25.6238L90.9901 26.6931L91.7029 27.7624L92.7722 29.1881L93.4851 30.2574L94.198 31.6832L95.2673 33.1089L95.9802 34.5347L96.693 35.604L97.7623 37.0297L98.4752 38.4555L99.5445 39.8812L100.257 41.307L101.327 42.7327L102.396 44.1584L103.465 45.5842L104.535 46.6535L105.604 48.0792L106.673 49.505L108.099 50.9307L109.168 52.3565L110.594 53.7822L112.02 55.2079L113.446 56.6337L114.871 57.703L116.297 59.1287L117.366 60.5545L119.148 61.9802L120.574 63.0495L122 64.4753L123.426 65.5446L124.851 66.9703L126.277 68.0396L128.059 69.1089L129.485 70.5347L130.911 71.604L132.693 72.6733L134.119 73.3861L135.901 74.4555L137.327 75.5248L139.109 76.5941L140.891 77.3069L142.317 78.3762L143.743 79.0891L145.525 79.802L146.95 80.8713L148.376 81.9406L149.802 82.6535L150.871 83.7228L152.297 84.4356L153.366 85.505L154.436 86.5743L155.505 87.6436L156.574 88.7129L157.644 90.1386L158.356 91.2079L159.069 92.2772L159.782 93.703L160.495 95.1287L161.208 96.198L161.921 97.6238L162.277 99.0495L162.634 100.475L162.99 101.901L163.346 103.327L163.346 104.752L163.703 106.178L163.703 109.03L163.346 110.455L163.346 113.307L162.99 114.733L162.99 116.515L162.634 117.941L162.634 121.149L162.277 122.574L162.634 124L162.634 127.208L162.99 128.634L163.346 130.416L163.703 131.842L164.059 133.267L164.416 134.693L164.772 136.119L165.485 137.545L166.198 138.97L166.911 140.396L167.624 141.822L168.337 142.891L169.049 144.317L170.119 145.743L171.188 147.168L171.901 148.238L173.327 149.663L174.396 150.733L175.465 152.158L176.535 153.228L177.96 154.297L179.03 155.366L180.455 156.792L181.881 157.861L184.02 159.287L185.445 160.356L186.871 161.426L188.297 162.495L189.723 163.564L191.505 164.634L192.931 165.347L194.713 166.416L196.139 167.485L197.921 168.198L199.346 169.267L201.129 170.337L202.554 171.05L203.98 172.119L205.406 172.832L206.832 173.545L208.257 174.257L209.327 175.327L210.396 176.04L211.822 176.752L213.247 177.822L214.317 178.535L215.743 179.604L217.525 181.03L218.594 182.099L219.663 182.812L220.733 183.881L221.802 184.95L222.871 186.376L223.941 187.446L224.653 188.871L225.01 190.653L225.366 191.723L225.366 193.149L225.01 194.218L224.653 195.287L224.297 196.356L223.584 197.426L222.515 198.495L221.802 199.564L220.376 200.277L219.307 200.99L217.525 201.703L216.099 202.059L214.673 202.416L212.891 202.772L209.327 202.772L207.544 202.416L205.406 202.059L203.624 201.703L202.198 201.347L200.416 200.99L197.921 200.634L196.851 200.277L195.069 199.921L193.644 199.564L192.574 199.208L190.436 198.851L189.01 198.495L187.584 198.139L186.158 197.782L184.733 197.426L183.663 197.069L181.881 196.713L180.455 196.356L179.03 196L177.247 195.644L175.822 195.287L174.396 194.931L172.614 194.574L170.832 194.218L169.406 193.861L167.624 193.505L165.842 193.149L164.416 192.792L162.634 192.792L160.851 192.436L159.069 192.079L157.287 191.723L155.505 191.366L153.723 191.01L151.941 190.653L149.802 190.297L148.02 189.941L146.238 189.584L144.099 189.228L142.317 188.871L140.178 188.515L138.396 188.158L136.257 187.802L134.475 187.446L132.337 187.089L130.554 186.733L128.416 186.733L126.634 186.376L124.851 186.02L122.713 185.663L119.148 185.663L117.366 185.307L110.95 185.307L109.525 185.663L108.099 185.663L106.673 186.02L105.247 186.02L103.822 186.376L102.396 186.733L101.327 187.089L99.901 187.089L98.4752 187.446L96.693 188.158L95.6237 188.515L94.198 189.228L93.1287 189.584L91.3465 190.653L89.9208 191.366L88.495 192.079L86.7128 193.505L85.2871 194.218L83.5049 195.644L82.4356 196.713L81.0099 198.139L80.297 199.208L79.2277 200.634L78.1584 201.703L77.4455 203.129L76.7327 204.554L76.3762 205.624L76.0198 207.406L76.0198 209.901L76.3762 210.614L76.7327 211.327L77.0891 212.396L78.1584 213.465L79.2277 214.178L80.6534 214.891L82.0792 215.604L83.5049 215.96L84.9307 216.317L86 216.317L87.4257 216.673L88.8515 217.03L90.6336 217.03L92.4158 217.386L93.8416 217.743L95.2673 217.743L97.4059 218.099L99.5445 218.455L101.327 218.455L103.109 218.812L105.247 218.812L106.673 219.168L108.099 219.168L109.525 219.525L110.95 219.525L112.376 219.881L115.584 219.881L117.01 220.238L118.792 220.238L120.218 220.594L122 220.594L123.426 220.95L127.346 220.95L129.129 221.307L130.911 221.307L133.049 221.663L134.832 221.663L136.97 222.02L140.891 222.02L143.03 222.376L147.307 222.376L149.445 222.733L154.079 222.733L156.218 223.089L161.208 223.089L163.346 223.446L170.832 223.446L173.327 223.802L178.673 223.802L181.168 224.158L189.366 224.158L192.218 224.515L197.564 224.515L200.059 224.871L205.762 224.871L208.614 225.228L217.168 225.228L220.02 225.584L225.723 225.584L230.356 225.941L236.059 225.941L238.911 226.297L244.97 226.297L248.178 226.653L251.03 226.653L254.238 227.01L257.445 227.01L260.653 227.366L263.505 227.366L266.713 227.723L269.921 227.723L273.129 228.079L275.98 228.079L279.188 228.436L282.396 228.436L285.604 228.792L288.812 228.792L291.663 229.149L297.723 229.149L300.574 229.505L302.713 229.505L305.208 229.861L313.406 229.861L314.832 229.505L316.614 229.505L318.04 229.149L320.178 228.436L321.604 228.079L322.673 227.723L324.099 227.01L325.168 226.297L326.238 225.584L326.95 224.871L328.02 223.802L329.089 222.733L329.802 222.02L330.515 220.594L331.228 219.525L332.297 217.743L333.01 216.317L333.366 215.248L333.723 213.822L334.079 212.396L334.436 210.97L334.436 209.545L334.792 208.119L334.792 202.059L334.436 200.634L334.436 198.851L334.079 197.426L333.723 195.644L333.01 194.218L332.653 192.792L331.94 191.01L331.228 189.584L330.515 188.158L329.802 186.376L328.733 184.95L327.663 183.168L326.594 181.743L325.525 180.317L324.455 178.891L323.03 177.822L321.604 176.396L320.178 174.97L318.752 173.901L316.97 172.832L315.188 171.762L313.762 170.693L311.98 169.624L310.198 168.554L308.059 167.485L306.277 166.772L304.495 165.703L302.713 164.99L300.574 164.277L298.792 163.564L296.653 162.495L294.515 161.782L292.376 161.069L290.594 160.356L288.455 159.287L286.317 158.574L283.465 157.149L281.327 156.079L279.544 154.653L277.762 153.584L275.624 152.515L274.198 151.089L272.059 149.663L270.634 148.238L268.851 146.455L267.426 144.673L266 142.891L264.574 141.109L263.148 139.327L262.079 137.188L261.01 135.406L259.941 133.267L258.871 131.129L258.158 128.99L257.089 126.495L256.733 124.356L256.02 122.218L255.663 119.723L255.307 117.228L254.95 114.733L254.95 110.099L255.307 107.604L255.663 105.109L255.663 102.97L256.376 100.475L256.733 98.3366L257.445 95.8416L258.158 93.3465L258.871 91.2079L259.584 88.7129L260.653 86.5743L261.366 84.4356L262.436 82.297L263.505 79.802L264.574 77.6634L265.643 75.1683L266.713 72.6733L267.782 70.5347L269.208 68.396L270.277 65.901L271.346 64.1188L272.416 62.3366L273.841 60.198L274.911 58.7723L275.98 57.3465L277.049 55.9208L278.475 54.495L279.544 53.0693L280.97 52L282.396 50.9307L283.465 50.2178L284.891 49.1485L286.317 48.4356L288.099 48.0792L289.525 47.3663L290.95 47.0099L292.376 46.6535L294.158 46.297L298.436 46.297L299.861 46.6535L301.287 46.6535L302.713 47.0099L304.139 47.7228L305.564 48.0792L306.634 48.7921L308.059 49.8614L309.485 50.5743L310.554 51.6436L311.98 52.7129L313.049 53.7822L314.119 54.8515L314.832 55.9208L315.901 57.3465L316.97 58.7723L318.04 60.198L318.752 61.6238L319.822 63.4059L320.535 64.8317L321.247 66.2574L321.96 68.0396L323.03 69.4654L323.742 70.8911L324.455 72.6733L325.525 74.4554L326.238 76.2376L327.307 77.6634L328.02 79.4455L329.089 81.2277L329.802 82.6535L330.871 84.4356L331.94 86.2178L332.653 88L333.723 89.7822L334.792 91.5644L335.861 93.3465L336.931 95.1287L337.643 96.9109L338.713 99.0495L339.782 100.832L341.208 102.97L341.921 104.752L343.346 106.891L344.416 108.673L345.485 110.812L346.554 112.95L347.624 115.089L348.693 116.871L349.762 119.01L351.188 121.149L352.257 122.931L353.327 125.069L354.396 127.208L355.822 129.347L356.891 131.485L357.96 133.624L359.386 135.762L360.455 138.257L361.881 140.396L362.95 142.535L364.376 145.03L365.445 147.168L366.871 149.663L367.94 151.802L369.366 154.297L370.792 156.436L372.218 158.931L373.287 161.426L374.713 163.564L376.139 166.059L377.208 168.554L378.634 171.049L380.059 173.545L381.485 176.396L382.911 178.535L384.337 181.386L386.119 183.881L387.188 186.376L388.614 188.871L390.039 191.723L391.822 194.218L393.247 196.713L394.673 199.564L396.099 202.059L397.525 204.554L398.95 207.049L400.376 209.545L401.802 212.04L403.228 214.891L404.653 217.386L406.079 220.238L407.505 222.733L409.287 225.584L410.713 228.079L412.139 230.931L413.921 233.782L415.346 236.277L416.772 239.129L418.198 241.624L419.624 244.475L421.049 246.97L422.475 249.465L423.901 251.96L425.327 254.455L426.396 256.594L427.822 258.733L428.891 260.515L429.96 262.653L431.03 264.436L432.099 266.218L432.812 268L433.881 269.426L434.594 270.851L435.307 272.277L436.02 273.703L436.376 274.772L437.089 276.554L437.445 277.98L437.802 280.475L437.802 284.04L437.445 285.822L437.089 286.891L436.733 287.96L436.376 289.03L436.02 290.099L434.95 291.525L433.525 293.307L432.099 294.733L430.673 296.158L429.604 296.871L428.535 297.584L426.752 298.653L424.614 299.366L423.188 300.079L422.119 300.792L420.693 301.148L419.267 301.505L417.841 302.218L416.059 302.574L414.634 302.931L412.851 303.287L411.069 303.287L409.287 303.644L407.505 303.644L405.723 304L390.752 304L388.257 303.644L379.703 303.644L377.564 303.287L370.792 303.287L368.297 302.931L361.168 302.931L359.03 302.574L354.04 302.574L351.544 302.218L346.554 302.218L344.059 301.861L338.713 301.861L335.861 301.505L330.515 301.505L328.02 301.149L322.673 301.149L319.822 300.792L314.119 300.792L311.267 300.436L305.564 300.436L302.356 300.079L299.505 300.079L296.653 299.723L290.594 299.723L287.743 299.366L284.891 299.366L282.04 299.01L276.069 298.286" stroke="#374151" strokeWidth="8"/>
<path d="M275.267 298.297L271.703 297.941L268.495 297.941L265.644 297.584L259.584 297.584L256.376 297.228L249.96 297.228L247.109 296.871L243.901 296.871L240.693 296.515L234.277 296.515L231.069 296.158L228.218 296.158L224.653 295.802L218.238 295.802L214.673 295.446L211.822 295.446L208.257 295.089L201.842 295.089L198.634 294.733L192.574 294.733L189.01 294.376L185.802 294.376L182.238 294.02L175.822 294.02L172.614 293.663L169.406 293.663L166.198 293.307L159.069 293.307L155.861 292.95L152.297 292.95L148.733 292.594L142.317 292.594L138.752 292.238L135.545 292.238L132.337 291.881L125.564 291.881L122 291.525L115.228 291.525L111.663 291.168L108.455 291.168L104.891 290.812L98.1188 290.812L94.9109 290.455L91.703 290.455L88.495 290.099L81.7228 290.099L78.1584 289.743L74.594 289.743L71.3861 289.386L62.4752 289.386L59.6238 289.03L54.6337 289.03L52.1386 288.673L45.3663 288.673L43.5842 288.317L33.9604 288.317L32.1782 287.96L28.2574 287.96L25.7624 287.604L23.9802 287.604L22.198 287.247L21.1287 286.891L19.703 286.535L17.9208 285.822L16.495 284.752L15.7822 284.04L14.7129 282.614L14.3564 281.901L14 280.832L14 278.337L14.3564 276.911L15.0693 275.485L15.7822 274.059L16.495 273.347L17.5644 272.277L18.9901 271.208L20.0594 270.139L21.1287 269.069L22.5545 268L23.6238 266.931L25.0495 265.505L26.4752 264.079L27.901 262.297L28.9703 260.515L30.0396 258.733L30.7525 256.95L31.1089 255.881L31.4653 254.812L31.8218 253.743L32.1782 252.317L32.1782 251.247L32.5346 249.822L32.5346 245.188L32.1782 243.049L31.8218 241.624L31.8218 240.198L31.4653 238.772L30.7525 237.347L30.396 235.921L30.0396 234.495L29.6832 232.713L28.9703 231.287L28.2574 229.861L27.901 228.079L27.1881 226.297L26.8317 224.871L26.4752 223.089L25.7624 221.307L25.4059 219.881L25.0495 217.743L25.0495 215.96L24.6931 214.178L24.6931 212.04L24.3366 210.257L24.3366 206.337L24.6931 204.198L24.6931 202.416L25.0495 200.277L25.0495 198.139L25.4059 196L25.7624 194.218L26.1188 192.079L26.4752 189.941L26.8317 187.802L27.1881 185.663L27.5445 183.168L27.901 181.03L28.2574 178.891L28.9703 176.752L29.3267 174.257L29.6832 172.119L30.0396 169.98L30.396 167.485L30.7525 164.99L31.4653 162.851L31.8218 160.356L32.5346 156.792L32.8911 154.297L33.604 152.158L33.9604 149.663L34.3168 147.168L35.0297 144.673L35.3861 142.178L35.7426 139.683L36.4554 137.188L36.8119 134.693L37.1683 132.198L37.8812 129.703L38.2376 127.208L38.594 124.713L39.3069 122.218L39.6634 119.366L40.0198 116.515L40.7327 114.02L41.0891 111.525L41.802 108.673L42.1584 106.178L42.5148 103.683L43.2277 100.832L43.5841 97.9802L43.9406 95.4851L44.6535 92.9901L45.0099 90.1386L45.7228 87.2871L46.0792 84.7921L46.4356 81.9406L47.1485 79.0891L47.5049 76.2376L48.2178 73.3861L48.5742 70.8911L49.2871 68.0396L49.6435 65.1881L50 62.6931L50.7129 59.8416L51.0693 57.3465L51.7822 54.495L52.1386 52L52.495 49.5049L53.2079 47.0099L53.5643 44.5149L53.9208 42.3762L54.2772 40.2376L54.6336 38.4554L54.9901 36.3168L55.3465 34.8911L55.7029 33.1089L56.0594 31.6832L56.4158 29.5446L56.7723 28.4753L57.1287 26.6931L57.8416 24.9109L58.5544 23.1287L59.6237 21.703L60.3366 20.6337L61.4059 19.5644L62.1188 18.8515L63.5445 17.7822L64.2574 17.4258L65.3267 17.0693L66.396 16.7129L67.1089 16.3564L68.5346 16L72.8119 16L74.594 16.3564L76.3762 16.7129L78.1584 17.4258L79.5841 17.7822L81.0099 18.4951L82.7921 19.2079L84.5742 20.2772L85.6435 21.3465L87.0693 22.4158L88.1386 23.4852L89.2079 24.5544L89.9208 25.6238L90.9901 26.6931L91.7029 27.7624L92.7723 29.1881L93.4851 30.2574L94.198 31.6832L95.2673 33.1089L95.9802 34.5347L96.693 35.604L97.7623 37.0297L98.4752 38.4554L99.5445 39.8812L100.257 41.3069L101.327 42.7327L102.396 44.1584L103.465 45.5842L104.535 46.6535L105.604 48.0792L106.673 49.5049L108.099 50.9307L109.168 52.3564L110.594 53.7822L112.02 55.2079L113.446 56.6337L114.871 57.703L116.297 59.1287L117.366 60.5544L119.148 61.9802L120.574 63.0495L122 64.4753L123.426 65.5446L124.851 66.9703L126.277 68.0396L128.059 69.1089L129.485 70.5347L130.911 71.604" stroke="#EF4444" strokeWidth="2"/>
<path d="M130.911 71.6039L132.693 72.6732L134.119 73.3861L135.901 74.4554L137.327 75.5247L139.109 76.594L140.891 77.3069L142.317 78.3762L143.743 79.0891L145.525 79.8019L146.95 80.8712L148.376 81.9406L149.802 82.6534L150.871 83.7227L152.297 84.4356L153.366 85.5049L154.436 86.5742L155.505 87.6435L156.574 88.7128L157.644 90.1386L158.356 91.2079L159.069 92.2772L159.782 93.7029L160.495 95.1287L161.208 96.198L161.921 97.6237L162.277 99.0495L162.634 100.475L162.99 101.901L163.346 103.327L163.346 104.752L163.703 106.178L163.703 109.03L163.346 110.455L163.346 113.307L162.99 114.733L162.99 116.515L162.634 117.941L162.634 121.148L162.277 122.574L162.634 124L162.634 127.208L162.99 128.634L163.346 130.416L163.703 131.842L164.059 133.267L164.416 134.693L164.772 136.119L165.485 137.545L166.198 138.97L166.911 140.396L167.624 141.822L168.337 142.891L169.049 144.317L170.119 145.743L171.188 147.168L171.901 148.238L173.327 149.663L174.396 150.733L175.465 152.158L176.535 153.228L177.96 154.297L179.03 155.366L180.455 156.792L181.881 157.861L184.02 159.287L185.445 160.356L186.871 161.426L188.297 162.495L189.723 163.564L191.505 164.634L192.931 165.346L194.713 166.416L196.139 167.485L197.921 168.198L199.346 169.267L201.129 170.337L202.554 171.049L203.98 172.119L205.406 172.832L206.832 173.544L208.257 174.257L209.327 175.327L210.396 176.04L211.822 176.752L213.247 177.822L214.317 178.535L215.743 179.604L217.525 181.03L218.594 182.099L219.663 182.812L220.733 183.881L221.802 184.95L222.871 186.376L223.941 187.445L224.653 188.871L225.01 190.653L225.366 191.723L225.366 193.148L225.01 194.218L224.653 195.287L224.297 196.356L223.584 197.426L222.515 198.495L221.802 199.564L220.376 200.277L219.307 200.99L217.525 201.703L216.099 202.059L214.673 202.416L212.891 202.772L209.327 202.772L207.544 202.416L205.406 202.059L203.624 201.703L202.198 201.346L200.416 200.99L197.921 200.634L196.851 200.277L195.069 199.921L193.644 199.564L192.574 199.208L190.436 198.851L189.01 198.495L187.584 198.139L186.158 197.782L184.733 197.426L183.663 197.069L181.881 196.713L180.455 196.356L179.03 196L177.247 195.644L175.822 195.287L174.396 194.931L172.614 194.574L170.832 194.218L169.406 193.861L167.624 193.505L165.842 193.148L164.416 192.792L162.634 192.792L160.851 192.436L159.069 192.079L157.287 191.723L155.505 191.366L153.723 191.01L151.941 190.653L149.802 190.297L148.02 189.941L146.238 189.584L144.099 189.228L142.317 188.871L140.178 188.515L138.396 188.158L136.257 187.802L134.475 187.445L132.337 187.089L130.554 186.733L128.416 186.733L126.634 186.376L124.851 186.02L122.713 185.663L119.148 185.663L117.366 185.307L110.95 185.307L109.525 185.663L108.099 185.663L106.673 186.02L105.247 186.02L103.822 186.376L102.396 186.733L101.327 187.089L99.901 187.089L98.4752 187.445L96.693 188.158L95.6237 188.515L94.198 189.228L93.1287 189.584L91.3465 190.653L89.9208 191.366L88.495 192.079L86.7128 193.505L85.2871 194.218L83.5049 195.644L82.4356 196.713L81.0099 198.139L80.297 199.208L79.2277 200.634L78.1584 201.703L77.4455 203.129L76.7326 204.554L76.3762 205.624L76.0198 207.406L76.0198 209.901L76.3762 210.614L76.7326 211.327L77.0891 212.396L78.1584 213.465L79.2277 214.178L80.6534 214.891L82.0792 215.604L83.5049 215.96L84.9307 216.317L86 216.317L87.4257 216.673L88.8515 217.03L90.6336 217.03L92.4158 217.386L93.8416 217.743L95.2673 217.743L97.4059 218.099L99.5445 218.455L101.327 218.455L103.109 218.812L105.247 218.812L106.673 219.168L108.099 219.168L109.525 219.525L110.95 219.525L112.376 219.881L115.584 219.881L117.01 220.238L118.792 220.238L120.218 220.594L122 220.594L123.426 220.95L127.346 220.95L129.129 221.307L130.911 221.307L133.049 221.663L134.832 221.663L136.97 222.02L140.891 222.02L143.03 222.376L147.307 222.376L149.446 222.733L154.079 222.733L156.218 223.089L161.208 223.089L163.346 223.445L170.832 223.445L173.327 223.802L178.673 223.802L181.168 224.158L189.366 224.158L192.218 224.515L197.564 224.515L200.059 224.871L205.762 224.871L208.614 225.228L217.168 225.228L220.02 225.584L225.723 225.584L230.356 225.941L236.059 225.941L238.911 226.297L244.97 226.297L248.178 226.653L251.03 226.653L254.238 227.01L257.445 227.01L260.653 227.366L263.505 227.366L266.713 227.723L269.921 227.723L273.129 228.079L275.98 228.079L279.188 228.436L282.396 228.436L285.604 228.792L288.812 228.792L291.663 229.148L297.723 229.148L300.574 229.505L302.713 229.505L305.208 229.861L313.406 229.861L314.832 229.505L316.614 229.505L318.04 229.148L320.178 228.436L321.604 228.079L322.673 227.723L324.099 227.01L325.168 226.297L326.238 225.584L326.95 224.871L328.02 223.802L329.089 222.733L329.802 222.02L330.515 220.594L331.228 219.525L332.297 217.743L333.01 216.317L333.366 215.247L333.723 213.822L334.079 212.396L334.436 210.97L334.436 209.544L334.792 208.119L334.792 202.059L334.436 200.634L334.436 198.851L334.079 197.426L333.723 195.643L333.01 194.218L332.653 192.792L331.941 191.01L331.228 189.584L330.515 188.158L329.802 186.376L328.733 184.95L327.663 183.168L326.594 181.743L325.525 180.317L324.455 178.891L323.03 177.822L321.604 176.396L320.178 174.97L318.752 173.901L316.97 172.832L315.188 171.762L313.762 170.693L311.98 169.624L310.198 168.554L308.059 167.485L306.277 166.772L304.495 165.703L302.713 164.99L300.574 164.277L298.792 163.564L296.653 162.495L294.515 161.782L292.376 161.069L290.594 160.356L288.455 159.287L286.317 158.574L283.465 157.148L281.327 156.079L279.544 154.653L277.762 153.584L275.624 152.515L274.198 151.089L272.059 149.663L270.634 148.238L268.851 146.455L267.426 144.673L266 142.891L264.574 141.109L263.148 139.327L262.079 137.188L261.01 135.406L259.941 133.267L258.871 131.129L258.158 128.99L257.089 126.495L256.733 124.356L256.02 122.218L255.663 119.723L255.307 117.228L254.95 114.733L254.95 110.099L255.307 107.604L255.663 105.109L255.663 102.97L256.376 100.475L256.733 98.3366L257.445 95.8415L258.158 93.3465L258.871 91.2079L259.584 88.7128L260.653 86.5742L261.366 84.4356L262.436 82.297L263.505 79.8019L264.574 77.6633" stroke="#3B82F6" strokeWidth="2"/>
<path d="M264.574 77.6634L265.644 75.1684L266.713 72.6733L267.782 70.5347L269.208 68.3961L270.277 65.901L271.346 64.1189L272.416 62.3367L273.842 60.1981L274.911 58.7723L275.98 57.3466L277.049 55.9208L278.475 54.4951L279.545 53.0694L280.97 52.0001L282.396 50.9307L283.465 50.2179L284.891 49.1486L286.317 48.4357L288.099 48.0793L289.525 47.3664L290.95 47.01L292.376 46.6535L294.158 46.2971L298.436 46.2971L299.861 46.6535L301.287 46.6535L302.713 47.01L304.139 47.7228L305.564 48.0793L306.634 48.7921L308.059 49.8614L309.485 50.5743L310.554 51.6436L311.98 52.7129L313.049 53.7822L314.119 54.8515L314.832 55.9208L315.901 57.3466L316.97 58.7723L318.04 60.1981L318.752 61.6238L319.822 63.406L320.535 64.8317L321.247 66.2575L321.96 68.0397L323.03 69.4654L323.743 70.8911L324.455 72.6733L325.525 74.4555L326.238 76.2377L327.307 77.6634L328.02 79.4456L329.089 81.2278L329.802 82.6535L330.871 84.4357L331.941 86.2179L332.653 88L333.723 89.7822L334.792 91.5644L335.861 93.3466L336.931 95.1288L337.644 96.9109L338.713 99.0495L339.782 100.832L341.208 102.97L341.921 104.753L343.346 106.891L344.416 108.673L345.485 110.812L346.554 112.951L347.624 115.089L348.693 116.871L349.762 119.01L351.188 121.149L352.257 122.931L353.327 125.069L354.396 127.208L355.822 129.347L356.891 131.485L357.96 133.624L359.386 135.762L360.455 138.257L361.881 140.396L362.95 142.535L364.376 145.03L365.445 147.168L366.871 149.663L367.941 151.802L369.366 154.297L370.792 156.436L372.218 158.931L373.287 161.426L374.713 163.564L376.139 166.059L377.208 168.554L378.634 171.05L380.059 173.545L381.485 176.396L382.911 178.535L384.337 181.386L386.119 183.881L387.188 186.376L388.614 188.871L390.04 191.723L391.822 194.218L393.247 196.713L394.673 199.564L396.099 202.059L397.525 204.554L398.95 207.05L400.376 209.545L401.802 212.04L403.228 214.891L404.653 217.386L406.079 220.238L407.505 222.733L409.287 225.584L410.713 228.079L412.139 230.931L413.921 233.782L415.346 236.277L416.772 239.129L418.198 241.624L419.624 244.475L421.049 246.97L422.475 249.465L423.901 251.96L425.327 254.455L426.396 256.594L427.822 258.733L428.891 260.515L429.96 262.653L431.03 264.436L432.099 266.218L432.812 268L433.881 269.426L434.594 270.851L435.307 272.277L436.02 273.703L436.376 274.772L437.089 276.554L437.445 277.98L437.802 280.475L437.802 284.04L437.445 285.822L437.089 286.891L436.733 287.96L436.376 289.03L436.02 290.099L434.95 291.525L433.525 293.307L432.099 294.733L430.673 296.158L429.604 296.871L428.535 297.584L426.752 298.653L424.614 299.366L423.188 300.079L422.119 300.792L420.693 301.149L419.267 301.505L417.842 302.218L416.059 302.574L414.634 302.931L412.851 303.287L411.069 303.287L409.287 303.644L407.505 303.644L405.723 304L390.752 304L388.257 303.644L379.703 303.644L377.564 303.287L370.792 303.287L368.297 302.931L361.168 302.931L359.03 302.574L354.04 302.574L351.544 302.218L346.554 302.218L344.059 301.861L338.713 301.861L335.861 301.505L330.515 301.505L328.02 301.149L322.673 301.149L319.822 300.792L314.119 300.792L311.267 300.436L305.564 300.436L302.356 300.079L299.505 300.079L296.653 299.723L290.594 299.723L287.743 299.366L284.891 299.366L282.04 299.01L278.832 298.653L275.98 298.297L275.267 298.297" stroke="#FBBF24" strokeWidth="2"/>
<path d="M287.552 286.539L279.488 277.269L288.759 269.205L287.552 286.539Z" fill="#979797"/>
</svg>