<svg width="72" height="48" viewBox="0 0 72 48" fill="none" xmlns="http://www.w3.org/2000/svg">
<path d="M61.4463 42.1602L64.406 41.1574C65.0028 40.9552 65.2674 40.2603 64.9513 39.7152C58.9633 29.3856 47.0895 10.0064 45.6804 9.16828C42.7807 7.44355 41.328 13.0272 39.828 15.2772C38.328 17.5272 39.8013 20.7817 41.5755 22.7494C42.6985 23.9949 46.7385 24.1683 48.2385 25.6683C50.8096 28.2394 51.9765 33.1679 48.6186 33.1679H30.1735C24.9235 33.1679 17.2218 33.2784 16.4718 32.5287C15.7218 31.779 16.8455 31.2658 18.085 29.5443C19.0529 28.1999 21.7416 28.6839 25.1133 29.0999C28.1133 29.5999 34.5304 30.6407 35.7304 30.0407C37.2304 29.2907 36.5815 29.0303 31.3315 25.2803C26.0815 21.5303 27.2041 21.3704 27.6804 18.1683C28.0245 15.8549 25.982 14.894 24.0793 14.4519C23.9806 14.429 23.8866 14.3936 23.7993 14.3423C22.0008 13.2871 18.4279 10.6605 17.2571 8.31891C16.3009 6.40653 14.73 5.97234 13.7516 6.00133C13.3705 6.01263 13.1064 6.33641 13.0551 6.71423L9.49766 32.9214C9.47569 33.0833 9.49371 33.2481 9.55016 33.4014L11.0883 37.5791C11.219 37.9341 11.1382 38.3325 10.8794 38.6086L8.28938 41.3711C7.99 41.6905 8.21642 42.2131 8.65414 42.2131H61.1254C61.2346 42.2131 61.343 42.1953 61.4463 42.1602Z" stroke="#7D839C" strokeWidth="1.5"/>
</svg>
