<svg width="72" height="48" viewBox="0 0 72 48" fill="none" xmlns="http://www.w3.org/2000/svg">
<path d="M30.5803 14.0683C31.304 13.5074 45.1515 8.47663 51.6235 6.11033C51.8102 6.04209 52.014 6.09285 52.1512 6.23653L53.849 8.01324C53.9837 8.15415 54.188 8.20398 54.3724 8.14089L57.6416 7.02247C57.8294 6.95822 58.0363 7.00993 58.1706 7.15606C59.7773 8.90372 62.812 12.1866 63.6698 13.0443C64.7932 14.1677 64.7932 14.9847 63.5677 15.8017C62.3551 16.6101 60.8425 14.719 60.0193 13.6897L59.9932 13.6571C59.1762 12.6358 58.4613 12.1252 57.4401 12.6358C56.4188 13.1465 48.4529 15.189 46.0019 16.006C43.5677 16.8174 43.6517 17.6288 43.953 20.5408L43.9593 20.6017C44.2657 23.5634 51.9252 25.2995 54.6827 26.1165C57.4401 26.9335 56.3167 28.5676 55.9082 30.3038C55.4997 32.0399 59.5847 33.7761 60.4017 34.0824C60.9926 34.304 62.073 35.3768 62.6774 36.0334C62.7883 36.1539 62.8307 36.3214 62.7882 36.4796C62.5001 37.5501 61.8162 39.4837 60.9124 40.3122C59.6869 41.4356 57.0316 40.9249 53.6614 39.4952C50.2912 38.0654 46.4104 31.7335 44.5721 29.4867C43.1353 27.7307 38.3322 26.5465 35.9532 26.1437C35.8459 26.1255 35.7372 26.1441 35.641 26.195L28.8904 29.7689C28.8599 29.785 28.8279 29.7979 28.7948 29.8075L22.5326 31.6102C22.2885 31.6805 22.0305 31.5565 21.9328 31.322L21.3083 29.8232C21.19 29.5394 20.846 29.4286 20.5843 29.5899L8.05719 37.3134C7.88919 37.4169 7.68862 37.2404 7.77004 37.0606L9.93037 32.2903C9.94428 32.2596 9.96125 32.2304 9.98104 32.2031L12.8814 28.2026C12.9024 28.1737 12.9254 28.1479 12.9521 28.1241C14.5661 26.6799 17.8183 23.6589 18.2235 22.8485C18.7341 21.8272 19.4485 20.4996 21.491 20.2953C23.5336 20.0911 25.1678 18.0485 25.9849 17.5379C26.8019 17.0273 29.6614 14.7805 30.5803 14.0683Z" stroke="#7D839C" stroke-width="1.5"/>
</svg>
