<svg width="72" height="48" viewBox="0 0 72 48" fill="none" xmlns="http://www.w3.org/2000/svg">
<path d="M17.4529 18.1328C23.2848 14.8163 31.9888 9.94166 35.7715 8.04372C35.8232 8.01776 35.8712 8.00285 35.9287 7.99658C38.5254 7.71339 49.1824 7.50341 51.3461 7.50341C54.0801 7.50341 56.0209 7.32972 58.0072 9.46135C60.0153 11.6164 64.3379 17.5026 64.4818 19.2293C64.6257 20.9561 63.9062 25.9923 62.755 26.5679C61.6039 27.1435 56.5108 25.4928 52.9135 23.91C49.3161 22.3271 49.5168 18.9416 49.9485 17.6465C50.2829 16.6433 52.0338 12.9522 53.0154 11.195C53.0755 11.0876 53.0951 10.9621 53.0693 10.8418L52.9423 10.2492C52.8765 9.94216 52.5483 9.77061 52.26 9.89523C50.4993 10.6564 47.4642 12.032 46.6389 12.7541C45.4878 13.7614 45.4878 15.4881 44.6244 16.6393C43.761 17.7904 41.8904 18.2221 40.5954 18.0782C39.594 17.9669 39.4082 16.6817 39.4402 15.9895C39.4423 15.9431 39.4523 15.8977 39.4682 15.8541L40.8855 11.9621C41.0227 11.5855 40.6859 11.2152 40.3 11.3235C39.2237 11.6254 37.3523 12.1777 35.2713 12.898C31.5301 14.1931 30.6283 14.7382 30.6283 18.7672C30.6283 22.7963 35.918 24.1549 44.4402 26.9956C52.7325 29.7597 52.3747 32.824 52.2508 37.0722L52.2507 37.0741C52.1581 40.2499 52.132 41.1456 49.4281 41.6215C47.399 41.9786 23.1843 41.9646 17.5724 41.9646C11.9606 41.9646 10.1085 36.3391 10.2524 33.3174C10.328 31.7296 10.9276 30.3845 10.8432 29.2662C10.7588 28.1479 9.21563 27.8999 8.12304 27.217C5.82074 25.778 10.114 22.3063 17.4529 18.1328Z" stroke="#7D839C" strokeWidth="1.5"/>
</svg>
