<svg width="72" height="48" viewBox="0 0 72 48" fill="none" xmlns="http://www.w3.org/2000/svg">
<path d="M61.9905 27.2171L47.4358 13.8273C47.4028 13.7969 47.3748 13.7635 47.351 13.7255C46.3611 12.1413 44.2208 8.73882 43.2971 7.35337C42.1288 5.60084 40.1815 5.79557 39.0132 6.18502C37.8448 6.57447 35.7028 6.37974 34.145 5.40612C32.5872 4.43249 32.0031 4.04304 30.8347 4.82194C29.9 5.44506 26.4209 4.56094 24.7982 4.04099C22.2019 3.58693 16.3082 2.7567 13.5042 3.06826C9.99911 3.45771 9.21998 7.16019 8.6358 9.49689C8.05162 11.8336 6.29915 21.1804 8.83057 25.8538C11.362 30.5272 14.0882 30.5272 16.2301 28.9694C17.7627 27.8548 15.1521 26.0342 13.1903 25.0119C12.8769 24.8486 12.8097 24.4223 13.067 24.1801L15.8404 21.5699C18.7612 18.8433 25.7324 12.8059 30.25 10.4692C34.3832 8.33137 36.8756 11.2464 37.8166 13.3984C37.9442 13.69 37.7407 14.0074 37.4243 14.0426L33.5984 14.4677C33.226 14.5091 33.029 14.9307 33.2332 15.2448C33.9874 16.4043 35.1391 18.2308 35.8975 19.6213C37.0659 21.7633 37.2607 24.1 35.1187 27.2156C33.4051 29.7081 34.794 32.1486 35.7027 33.0574C37.0658 34.4204 40.1813 37.6529 41.7391 39.678C43.6864 42.2094 47.1914 45.1303 48.3598 45.5198C49.5281 45.9092 51.4754 43.7673 51.8648 42.5989C52.1033 41.8836 51.8247 40.9706 51.5353 40.3487C51.4124 40.0845 51.5014 39.7576 51.7598 39.6228L55.7593 37.536C56.6031 37.0168 58.9139 35.9393 61.4064 35.7835C64.522 35.5888 65.3009 33.2521 65.6903 32.2785C66.0019 31.4996 63.3536 28.5797 61.9905 27.2171Z" stroke="#7D839C" stroke-width="1.5"/>
</svg>
