<svg width="72" height="48" viewBox="0 0 72 48" fill="none" xmlns="http://www.w3.org/2000/svg">
<path d="M59.8814 38.7903L63.9045 40.1984C64.1955 40.3002 64.5 40.0842 64.5 39.7758C64.5 39.598 64.3951 39.4374 64.2326 39.3651C62.8959 38.7711 60.3369 37.5739 58.9576 36.7119C57.5471 35.8303 53.5005 30.5318 51.3943 27.6412C51.2111 27.3897 51.1583 27.0689 51.2477 26.7709L51.6443 25.449C51.7407 25.1276 51.6705 24.78 51.4538 24.5238C50.1194 22.9466 47.3989 19.8418 44.8707 17.3136C42.3161 14.7589 38.5186 13.0547 36.5536 12.3818C36.2646 12.2829 35.9488 12.3345 35.6976 12.5084L33.6821 13.9038C33.33 14.1475 32.8618 14.14 32.5176 13.8851L27.2376 9.97394C26.9973 9.79594 26.6899 9.73482 26.3998 9.80735L23.2825 10.5867C23.2032 10.6065 23.1217 10.6165 23.04 10.6165H19.4662C19.1743 10.6165 18.897 10.489 18.707 10.2673L18.0018 9.44464C17.7665 9.17003 17.4011 9.04392 17.0465 9.11485L14.1567 9.6928C12.2323 10.2316 8.24486 11.4941 7.69063 12.2331C7.30141 12.752 7.57274 13.4532 7.92877 13.9847C8.16832 14.3423 8.6431 14.4125 9.02809 14.22L10.0772 13.6955C10.4479 13.5101 10.8946 13.5727 11.2001 13.8528L16.1154 18.3585C16.1947 18.4312 16.2852 18.4906 16.3835 18.5344L28.7855 24.0711C29.0298 24.1801 29.2202 24.3826 29.3142 24.6331L29.7289 25.7389C29.8135 25.9647 29.9769 26.1522 30.1889 26.2671L35.4025 29.0911L45.3326 33.9407L51.7282 36.6817C51.7751 36.7018 51.8236 36.7183 51.8731 36.731L59.8814 38.7903Z" stroke="#7D839C" strokeWidth="1.5"/>
</svg>
