<svg width="72" height="48" viewBox="0 0 72 48" fill="none" xmlns="http://www.w3.org/2000/svg">
<path d="M23.2816 2.28018C22.6933 3.4562 14.1611 24.3672 9.51253 35.7959C9.17737 36.6199 8.96966 37.5026 9.02849 38.3902C9.62361 47.3695 19.3689 46.0284 21.8653 44.8842C24.462 43.6941 22.9762 38.7438 22.6351 37.6073L22.628 37.5837C22.3011 36.4941 20.0129 28.5398 21.9742 27.5591C23.9356 26.5785 24.3714 31.0459 25.8969 29.6294C27.4224 28.2129 35.1588 25.5978 38.1008 24.7261C41.0428 23.8544 50.0867 24.1813 51.6122 24.5082C53.1377 24.835 54.0094 26.5785 53.4645 27.886C52.9197 29.1936 48.5612 30.0653 47.2537 30.0653C45.9461 30.0653 43.9848 31.4818 43.331 33.4431C42.6772 35.4045 51.2853 37.8016 53.2466 37.4747C55.2079 37.1479 55.3169 35.2955 56.4065 33.2252C57.4962 31.1549 60.874 27.995 61.5278 24.7261C62.1816 21.4572 58.1499 19.3869 56.6245 18.7331C55.099 18.0793 48.1254 18.1883 46.8178 18.5152C45.5102 18.8421 41.5876 21.5662 38.7545 22.2199C35.9215 22.8737 31.563 21.5662 28.4031 21.0213C25.2431 20.4765 21.8653 23.3096 19.5771 23.4185C17.2888 23.5275 17.3978 21.1303 18.3785 20.2586C19.3591 19.3869 22.846 18.7331 23.9356 17.7525C25.0252 16.7718 24.6983 11.2147 24.9163 10.4519C25.1342 9.68919 26.5507 7.18392 27.7493 4.24192C28.9479 1.29993 24.0445 0.75511 23.2816 2.28018Z" stroke="#7D839C" strokeWidth="1.5"/>
</svg>
