<svg width="59" height="34" viewBox="0 0 59 34" fill="none" xmlns="http://www.w3.org/2000/svg">
<path d="M56.0048 1.38938L56.8191 2.88086C57.0473 3.19502 57.538 3.94317 57.6749 4.42246C57.8461 5.02157 54.8505 6.1342 53.9947 6.64772C53.1388 7.16124 50.9135 9.30091 50.2288 10.5847C49.5441 11.8685 42.8684 15.9767 42.1837 16.4902C41.499 17.0037 38.7602 18.0308 38.8458 17.3461C38.9142 16.7983 37.7331 16.6614 37.134 16.6614C34.0244 16.804 27.4285 17.1064 25.9222 17.1749C24.7208 17.2295 23.6573 17.0337 23.0444 16.8653C22.8218 16.8042 22.5785 16.8811 22.4516 17.0739C21.8685 17.9598 20.9677 19.4221 20.7869 20.0849C20.5302 21.0263 22.3275 25.3057 22.4131 26.4183C22.4987 27.5309 21.4716 30.0985 20.7869 30.7832C20.1022 31.4679 16.1652 31.4679 14.4535 30.7832C12.7418 30.0985 6.83605 31.8103 4.09727 32.2382C1.35849 32.6661 1.44422 31.3823 1.52981 30.7832C1.6154 30.1841 7.17855 25.9048 7.69207 25.2201C8.20559 24.5354 7.00774 23.2516 7.00774 22.5669C7.00774 21.8822 10.5166 12.5532 11.2869 10.9271C12.0572 9.30091 13.4268 8.95857 13.9403 8.61622C14.2978 8.37791 14.8538 7.94953 15.1801 7.69192C15.2643 7.6254 15.3239 7.53323 15.3522 7.42967C15.5113 6.84745 15.8069 5.86999 15.9939 5.62068C16.2507 5.27833 24.5525 4.1657 26.6065 3.99452C28.2389 3.85849 33.3849 4.83727 35.8022 5.35364C35.8351 5.36065 35.8658 5.36407 35.8994 5.36439C38.8286 5.39173 44.8951 5.327 46.1206 4.85039C47.294 4.39409 52.5427 2.29902 55.3822 1.16391C55.6173 1.06996 55.8835 1.16721 56.0048 1.38938Z" stroke="#7D839C" stroke-width="1.5"/>
</svg>
