<svg width="72" height="48" viewBox="0 0 72 48" fill="none" xmlns="http://www.w3.org/2000/svg">
<path d="M56.6982 23.8242C65.9926 25.9301 63.2663 27.6667 64.2576 31.1379C64.5054 32.0456 64.778 34.1831 63.8857 35.4719C62.7704 37.0829 60.7876 36.0915 60.1679 35.1001C59.5483 34.1087 61.9029 31.3823 61.9029 28.9038C61.9029 26.4253 59.1765 28.5321 57.3177 29.2756C55.4588 30.0192 54.2195 29.5235 52.9803 28.4081C51.741 27.2928 49.8821 27.4167 48.8907 28.0364C48.3054 28.4022 48.314 29.7353 48.4583 30.8405C48.5129 31.2587 48.0797 31.6 47.7018 31.413C41.0881 28.1408 29.2932 22.2241 28.443 21.4683C27.3277 20.4769 26.3363 21.7162 25.9645 22.2119C25.5927 22.7076 24.4774 24.0707 21.3793 21.7162C18.2811 19.3616 14.8112 18.9898 12.8284 18.4941C10.8456 17.9984 11.4652 16.2634 10.4738 15.272C9.92509 14.7233 9.02847 14.7361 8.30917 14.8919C7.93647 14.9726 7.55366 14.682 7.63777 14.31C7.83919 13.4192 8.25578 12.3459 8.98702 12.0534C10.2263 11.5577 12.457 14.6548 13.2005 15.3984C13.7954 15.9932 18.1573 16.8863 20.2639 17.2585C26.7908 18.7456 39.9437 21.5959 40.3403 21.1002C40.6311 20.7366 41.1617 20.0386 41.5705 19.4962C41.765 19.2382 42.1523 19.2263 42.3828 19.4527C42.9401 20.0002 43.831 20.7254 44.8014 21.0986C46.4125 21.7183 47.4039 21.7183 56.6982 23.8242Z" stroke="#7D839C" stroke-width="1.5"/>
</svg>
