<svg width="72" height="48" viewBox="0 0 72 48" fill="none" xmlns="http://www.w3.org/2000/svg">
<path d="M54.0715 18.4113C54.7647 18.9309 54.4326 23.9715 54.1799 26.4269C54.1439 28.9182 54.0719 34.0092 54.0719 34.4425C54.0719 34.9754 52.3937 35.0888 51.4111 34.8859C51.3793 34.8793 51.3474 34.8754 51.3149 34.8746L46.8142 34.7674C43.2216 34.6819 43.2033 36.5594 43.6549 37.5456C43.6667 37.5714 43.676 37.5979 43.6869 37.6241C43.979 38.3271 46.4632 38.2349 49.2804 38.1304L49.414 38.1255C52.3387 38.0171 52.9886 39.317 53.097 40.4002C53.2053 41.4835 51.9054 43.4333 49.9556 43.325C48.3957 43.2383 34.2848 43.1444 27.4243 43.1083L19.2814 42.734C18.8262 42.713 18.6337 42.1447 18.9835 41.8527C20.4238 40.6506 22.3628 39.041 22.9829 38.5588C23.9578 37.8005 32.1904 38.5588 33.5986 38.4504C35.0068 38.3421 36.74 36.6089 36.415 35.634C36.1652 34.8845 32.8275 33.2747 30.9973 32.4773C30.8606 32.4178 30.7579 32.3019 30.7159 32.1589L28.0741 23.1768C27.5325 21.3353 27.4241 14.7276 27.2075 13.536C26.9908 12.3445 21.6827 9.63638 20.7078 8.66147C19.7329 7.68656 20.4914 5.6297 21.7913 4.76311C22.7948 4.0941 28.7211 4.85222 31.8604 5.36106C32.0607 5.39353 32.2199 5.54458 32.2648 5.74244L32.6944 7.63159C32.7187 7.73858 32.777 7.83429 32.8616 7.90421C34.4251 9.19699 37.498 11.5638 38.2563 11.4795C38.9494 11.4025 40.9487 10.1785 42.1708 9.37459C42.4028 9.222 42.7141 9.28262 42.8679 9.51371C43.9696 11.1681 45.9404 14.1371 46.8139 15.487C48.0054 17.3285 53.205 17.7618 54.0715 18.4113Z" stroke="#7D839C" stroke-width="1.5"/>
</svg>
