<svg width="72" height="48" viewBox="0 0 72 48" fill="none" xmlns="http://www.w3.org/2000/svg">
<path d="M62.0048 9.38938L62.8191 10.8809C63.0473 11.195 63.538 11.9432 63.6749 12.4225C63.8461 13.0216 60.8505 14.1342 59.9947 14.6477C59.1388 15.1612 56.9135 17.3009 56.2288 18.5847C55.5441 19.8685 48.8684 23.9767 48.1837 24.4902C47.499 25.0037 44.7602 26.0308 44.8458 25.3461C44.9142 24.7983 43.7331 24.6614 43.134 24.6614C40.0244 24.804 33.4285 25.1064 31.9222 25.1749C30.7208 25.2295 29.6573 25.0337 29.0444 24.8653C28.8218 24.8042 28.5785 24.8811 28.4516 25.0739C27.8685 25.9598 26.9677 27.4221 26.7869 28.0849C26.5302 29.0263 28.3275 33.3057 28.4131 34.4183C28.4987 35.5309 27.4716 38.0985 26.7869 38.7832C26.1022 39.4679 22.1652 39.4679 20.4535 38.7832C18.7418 38.0985 12.8361 39.8103 10.0973 40.2382C7.35849 40.6661 7.44422 39.3823 7.52981 38.7832C7.6154 38.1841 13.1785 33.9048 13.6921 33.2201C14.2056 32.5354 13.0077 31.2516 13.0077 30.5669C13.0077 29.8822 16.5166 20.5532 17.2869 18.9271C18.0572 17.3009 19.4268 16.9586 19.9403 16.6162C20.2978 16.3779 20.8538 15.9495 21.1801 15.6919C21.2643 15.6254 21.3239 15.5332 21.3522 15.4297C21.5113 14.8474 21.8069 13.87 21.9939 13.6207C22.2507 13.2783 30.5525 12.1657 32.6065 11.9945C34.2389 11.8585 39.3849 12.8373 41.8022 13.3536C41.8351 13.3606 41.8658 13.3641 41.8994 13.3644C44.8286 13.3917 50.8951 13.327 52.1206 12.8504C53.294 12.3941 58.5427 10.299 61.3822 9.16391C61.6173 9.06996 61.8835 9.16721 62.0048 9.38938Z" stroke="#7D839C" stroke-width="1.5"/>
</svg>
