<svg width="72" height="48" viewBox="0 0 72 48" fill="none" xmlns="http://www.w3.org/2000/svg">
<path d="M32.2729 38.4509C38.301 38.3327 53.6514 37.9465 55.3215 37.8603C56.9917 37.7741 59.7951 37.7287 62.5227 36.6376C65.9322 35.2738 64.2653 31.2582 62.4848 31.2582C60.7043 31.2582 39.5654 31.2203 38.7698 31.2582C37.9743 31.2961 37.2545 30.1596 36.4211 29.8186C35.8285 29.5762 34.5335 29.7547 33.7652 29.9127C33.6013 29.9464 33.4306 29.9015 33.3083 29.7872L21.3404 18.5998C21.3173 18.5782 21.2962 18.5544 21.2776 18.5288L15.5989 10.7269C15.4963 10.586 15.3284 10.5084 15.1548 10.524C13.8201 10.6442 11.3532 10.9383 10.2816 11.3331C8.84203 11.8634 7.81972 12.6582 7.51665 13.378C7.27976 13.9406 9.62752 18.6478 10.9131 21.0894C10.9706 21.1985 11.0658 21.2809 11.1814 21.3235L11.7696 21.5401C12.0957 21.6602 12.3329 22.1381 12.3247 22.4855C12.3054 23.309 12.4434 24.9311 13.0072 27.8136C13.9528 34.3144 16.4369 37.0416 21.7512 38.2517C25.0833 39.0104 27.2384 37.8292 28.6835 36.9175C29.0139 36.7091 29.4366 36.9417 29.4366 37.3322L29.4365 37.8519C29.4364 38.1199 29.6477 38.3403 29.9154 38.3516L32.2729 38.4509Z" stroke="#7D839C" stroke-width="1.5"/>
</svg>
