<svg width="72" height="48" viewBox="0 0 72 48" fill="none" xmlns="http://www.w3.org/2000/svg">
<path d="M30.3513 38.7615C34.9851 38.7615 36.187 36.0329 36.2431 34.1694C36.2563 33.7327 36.5481 33.326 36.9802 33.2612V33.2612C37.3996 33.1982 37.6934 32.8141 37.6528 32.3919C37.5202 31.0129 37.3486 28.5854 37.3486 25.7664C37.3486 21.4604 38.1944 21.768 44.7303 17.0775C51.2663 12.387 60.7242 9.08053 62.4159 9.00364C64.1075 8.92674 64.5689 10.0801 64.492 11.4642C64.4151 12.8483 63.4155 14.9244 60.7242 14.3093C58.0329 13.6942 55.111 12.6945 51.497 14.3093C47.883 15.9241 47.3447 18.0002 46.7296 19.8456C46.1144 21.6911 48.8826 26.074 48.0368 26.2278C47.418 26.3403 46.2804 24.4893 45.6592 23.3095C45.5535 23.1087 45.3871 22.9464 45.1812 22.8512L38.1329 19.5931C37.6825 19.3848 37.1474 19.5385 36.8761 19.954L35.1145 22.6515C34.9694 22.8735 34.9194 23.1436 34.969 23.4041C35.3918 25.6273 35.8701 29.8194 34.888 31.6104C33.5808 33.9941 30.8126 35.0706 29.8899 35.0706C28.9672 35.0706 27.4293 31.0721 25.8145 31.0721C24.1998 31.0721 22.9695 32.7638 21.7392 33.5327C20.5089 34.3016 18.6634 32.8407 17.2024 32.7638C15.7415 32.6869 16.049 33.5327 14.8956 34.2247C13.9729 34.7784 12.2044 34.4554 11.4354 34.2247C10.3333 33.9941 8.02136 33.8403 7.59076 35.0706C7.05251 36.6084 9.05174 38.7615 9.82067 38.7615C10.5896 38.7615 23.6615 38.7615 30.3513 38.7615Z" stroke="#7D839C" strokeWidth="1.5"/>
</svg>
