<svg width="72" height="48" viewBox="0 0 72 48" fill="none" xmlns="http://www.w3.org/2000/svg">
<path d="M56.8576 4.71042L11.2326 23.4054C8.58893 24.289 7.86868 26.4468 7.54828 28.5294C7.22787 30.612 8.58932 30.6921 9.06992 30.3717C9.55053 30.0513 10.9123 29.5707 11.473 29.7309C12.0337 29.8911 12.9148 29.5707 12.9148 28.6095C12.9148 28.082 13.2163 27.5747 13.5091 27.2218C13.6915 27.002 14.02 27.0384 14.192 27.2666L17.8139 32.0726C17.9485 32.2511 18.1839 32.3191 18.3924 32.2385C20.5247 31.4136 24.5959 29.8364 26.2917 29.1702C28.5345 28.2891 32.2192 27.0876 36.785 26.5269C41.3507 25.9661 41.3507 29.01 42.3119 29.3304C43.2732 29.6508 46.7976 26.9274 48.6399 26.7672C50.4823 26.607 52.5649 29.0901 53.0455 29.0901C53.3977 29.0901 55.1658 29.3141 56.2196 29.4544C56.3884 29.4768 56.5334 29.5839 56.6053 29.7382L61.549 40.3415C61.7309 40.7317 62.2881 40.7249 62.4604 40.3303L64.2198 36.3002C64.3571 35.9857 64.144 35.6295 63.802 35.6018L62.0046 35.4561C61.7414 35.4347 61.54 35.217 61.5449 34.9529C61.6796 27.6911 61.902 13.5026 61.7766 11.3076C61.6164 8.50407 60.4148 8.42397 59.3735 8.10356C58.659 7.88371 57.9328 6.19513 57.5385 5.02849C57.4435 4.74742 57.1322 4.59793 56.8576 4.71042Z" stroke="#7D839C" stroke-width="1.5"/>
</svg>
