<svg width="451" height="333" viewBox="0 0 451 333" fill="none" xmlns="http://www.w3.org/2000/svg">
<path d="M231.5 132L229.438 127.424L228.742 125.955L228.046 124.487L227.349 123.018L226.653 121.549L225.957 120.081L225.493 118.767L224.796 117.298L224.1 115.829L223.404 114.361L222.708 112.892L222.089 111.81L221.393 110.341L220.696 108.873L220 107.404L219.381 106.322L218.685 104.853L217.989 103.385L217.37 102.303L216.674 100.834L215.823 99.5975L214.972 98.3608L214.431 97.6652L213.734 96.1966L212.884 94.9599L212.265 93.8778L211.26 92.8732L210.409 91.6365L209.558 90.3999L208.553 89.3952L207.702 88.1585L206.697 87.1539L205.923 86.3037L204.686 85.1445L203.681 84.1398L202.675 83.1352L201.515 82.3625L200.51 81.3578L194.711 77.4943L193.396 76.9535L191.308 75.5627L189.994 75.022L188.68 74.4812L187.365 73.9405L186.437 73.3223L185.123 72.7816L183.654 72.4729L182.572 72.0867L181.257 71.5459L180.175 71.1598L178.706 70.851L177.469 70.6968L176.386 70.3106L174.917 70.0018L173.68 69.8476L172.443 69.6934L171.361 69.3072L170.124 69.153L168.887 68.9988L167.65 68.8446L166.413 68.6904L165.176 68.5362L164.094 68.15L163.089 68.1503L161.852 67.9961L160.615 67.8419L159.532 67.4557L158.527 67.456L157.29 67.3018L156.208 66.9156L155.203 66.9159L154.12 66.5297L153.038 66.1436L152.188 65.9119L151.105 65.5257L150.023 65.1395L149.172 64.9079L148.244 64.2897L147.162 63.9035L143.218 61.2764L142.445 60.4262L141.749 59.9626L140.976 59.1125L140.434 58.4169L139.893 57.7213L139.352 57.0257L138.81 56.3301L138.037 55.4799L137.65 54.5524L137.109 53.8568L136.799 53.3157L136.412 52.3882L135.871 51.6926L135.484 50.765L134.943 50.0694L134.788 49.2964L134.246 48.6008L133.86 47.6732L133.705 46.9002L133.163 46.2046L133.009 45.4316L132.467 44.736L132.312 43.9629L132.157 43.1899L131.616 42.4943L131.461 41.7213L131.152 41.1802L130.997 40.4072L130.687 39.8661L130.533 39.0931L130.223 38.5521L130.068 37.779L129.759 37.238L129.604 36.4649L129.449 35.6919L129.372 35.3054L129.217 34.5324L129.294 33.9139L128.985 33.3728L129.062 32.7543L129.139 32.1359L128.984 31.3628L128.907 30.9763L129.216 30.5124L129.293 29.8939L129.37 29.2754L130.915 26.9557L131.456 26.6462L131.765 26.1823L132.693 25.7955L133.466 25.6406L134.394 25.2537L135.244 25.4854L136.249 25.4851L137.331 25.8713L138.259 26.4894L139.11 26.7211L143.749 29.8119L144.523 30.662L150.322 34.5255L151.559 35.6847L155.967 38.621L157.436 39.9348L160.916 42.2529L162.385 43.5666L166.328 46.1938L168.262 47.8166L170.349 49.2075L172.515 50.9849L177.154 54.0757L179.087 55.6985L181.407 57.2439L183.572 59.0213L187.98 61.9576L190.145 63.735L192.465 65.2804L194.398 66.9032L199.037 69.994L201.203 71.7714L205.61 74.7076L207.775 76.485L210.095 78.0304L212.028 79.6533L216.668 82.7441L218.601 84.3669L223.241 87.4577L225.174 89.0806L229.581 92.0168L231.746 93.7942L234.066 95.3396L235.999 96.9624L240.407 99.8987L242.572 101.676L246.98 104.612L248.913 106.235L251.233 107.781L253.166 109.403L257.573 112.34L259.507 113.963L263.914 116.899L265.847 118.522L270.255 121.458L272.188 123.081L274.276 124.472L276.441 126.249L280.617 129.031L282.55 130.654L286.725 133.435L288.658 135.058L292.834 137.84L294.767 139.463L298.943 142.244L300.876 143.867L305.052 146.649L306.753 148.117L312.784 152.135L314.717 153.758L320.749 157.776L322.45 159.245L328.481 163.263L330.182 164.731L333.894 167.203L335.827 168.826L341.395 172.535L343.096 174.004L346.808 176.476L348.277 177.79L353.844 181.499L355.313 182.813L358.793 185.131L360.494 186.599L365.366 189.844L367.067 191.313L371.706 194.404L373.176 195.717L377.815 198.808L379.053 199.967L384.852 203.831L386.089 204.99L392.584 209.317L393.822 210.476L401.709 215.731L402.482 216.581L409.209 221.063L409.983 221.913L414.854 225.158L415.628 226.008L419.107 228.326L419.417 228.867L423.592 231.649L423.902 232.19L426.221 233.736L426.763 234.431L427.691 235.049L428.232 235.745L428.773 236.441L429.315 237.136L429.624 237.677L429.779 238.45L429.934 239.223L430.089 239.996L430.012 240.615L429.78 241.465L428.698 243.089L428.003 243.63L427.307 244.172L426.611 244.713L426.07 245.023L425.375 245.564L424.525 246.337L423.829 246.879L423.52 247.343L422.979 247.652L422.283 248.193L421.742 248.503L421.433 248.967L420.892 249.276L420.351 249.586L419.655 250.127L418.805 250.9L418.11 251.442L417.414 251.983L416.719 252.524L416.255 253.22L415.559 253.762L415.25 254.226L414.709 254.535L413.782 255.927L413.705 256.545L413.628 257.164L413.551 257.782L413.706 258.555L413.783 258.942L414.324 259.638L414.634 260.179L414.943 260.72L415.253 261.261L415.562 261.802L415.717 262.575L415.872 263.348L415.64 264.198L415.563 264.817L414.636 266.209L413.94 266.75L413.245 267.291L412.471 267.446L411.776 267.988L410.848 268.375L410.153 268.916L409.225 269.303L408.452 269.458L407.911 269.767L407.37 270.076L406.829 270.386L406.056 270.541L405.515 270.85L404.974 271.16L404.201 271.314L403.428 271.469L402.732 272.011L401.959 272.165L401.186 272.32L400.413 272.475L399.64 272.63L398.867 272.785L398.094 272.94L397.244 272.708L396.471 272.863L395.697 273.018L394.847 272.786L394.229 272.709L393.378 272.478L392.528 272.246L391.909 272.169L391.059 271.937L390.363 271.473L389.744 271.396L383.713 267.378L383.172 266.683L379.228 264.056L378.378 263.824L377.682 263.36L376.831 263.129L376.213 263.052L375.362 262.82L374.744 262.743L373.893 262.511L373.12 262.666L372.347 262.821L371.574 262.976L370.801 263.131L370.028 263.285L369.255 263.44L368.559 263.982L368.018 264.291L367.091 264.678L366.55 264.987L365.854 265.529L365.545 265.993L364.85 266.534L363.922 267.926L363.381 268.235L363.15 269.086L362.377 270.246L362.145 271.096L361.682 271.792L361.605 272.411L361.373 273.261L361.296 273.879L361.219 274.498L360.987 275.348L361.142 276.121L361.065 276.74L361.22 277.513L361.143 278.131L361.297 278.904L361.22 279.523L361.53 280.064L361.685 280.837L361.994 281.378L362.149 282.151L362.226 282.538L362.536 283.079L362.691 283.852L363 284.393L363.309 284.934L363.619 285.475L363.928 286.016L364.006 286.402L364.16 287.176L364.47 287.717L364.779 288.258L365.089 288.799L365.166 289.185L365.476 289.726L365.862 290.654L366.095 291.813L366.25 292.586L366.172 293.205L366.25 293.591L366.173 294.21L366.096 294.828L365.787 295.292L365.709 295.911L364.628 297.535L364.087 297.844L363.778 298.308L363.236 298.617L362.695 298.927L362.154 299.236L361.536 299.159L360.995 299.468L360.376 299.391L359.835 299.701L359.217 299.624L358.444 299.779L357.825 299.701L357.439 299.779L356.666 299.934L356.047 299.857L355.429 299.78L354.656 299.934L354.037 299.857L353.264 300.012L352.414 299.781L351.641 299.935L351.022 299.858L350.017 299.859L349.012 299.859L348.394 299.782L347.389 299.782L346.384 299.782L345.379 299.783L344.142 299.629L343.137 299.629L342.132 299.629L340.895 299.475L339.89 299.475L338.653 299.321L337.261 299.399L336.024 299.245L334.787 299.09L333.396 299.168L331.927 298.859L330.535 298.937L329.066 298.628L327.443 298.552L325.819 298.475L324.35 298.166L322.495 297.935L320.872 297.858L319.016 297.627L317.547 297.318L315.692 297.087L314.068 297.01L312.367 296.547L310.744 296.47L309.043 296.007L307.419 295.93L305.718 295.466L303.863 295.235L302.394 294.926L300.693 294.463L298.838 294.232L297.369 293.923L295.668 293.46L294.199 293.151L292.343 292.92L290.642 292.456L289.173 292.148L287.473 291.684L285.617 291.453L283.916 290.99L282.447 290.681L280.746 290.218L278.891 289.986L277.422 289.678L275.721 289.214L274.02 288.751L272.165 288.52L270.464 288.056L268.995 287.748L267.526 287.439L265.825 286.976L264.124 286.512L262.655 286.203L260.954 285.74L259.098 285.509L257.398 285.046L255.929 284.737L254.228 284.274L252.759 283.965L251.058 283.501L249.357 283.038L247.733 282.961L246.032 282.498L244.332 282.035L242.863 281.726L241.162 281.263L239.461 280.799L237.76 280.336L236.291 280.027L234.59 279.564L232.889 279.101L231.575 278.56L229.874 278.097L228.173 277.634L226.704 277.325L225.003 276.861L223.457 276.166L221.756 275.703L220.209 275.008L218.74 274.699L217.194 274.004L215.647 273.308L214.101 272.613L212.555 271.918L211.008 271.223L209.462 270.527L207.916 269.832L206.524 268.905L204.977 268.21L203.585 267.282L202.271 266.742L199.487 264.887L197.941 264.192L190.982 259.556L189.744 258.396L186.961 256.542L185.723 255.383L184.718 254.378L183.326 253.451L182.089 252.292L180.852 251.132L179.614 249.973L178.377 248.814L177.217 248.041L176.134 246.65L174.897 245.491L173.66 244.332L172.655 243.327L171.572 241.936L170.334 240.776L169.484 239.54L168.246 238.381L167.396 237.144L166.313 235.753L165.307 234.748L164.225 233.357L163.374 232.12L162.059 230.575L161.286 229.724L160.435 228.488L159.352 227.097L158.502 225.86L157.419 224.469L156.413 223.464L155.563 222.227L154.48 220.836L153.629 219.6L152.546 218.208L151.696 216.972L150.845 215.735L149.762 214.344L148.757 213.339L147.674 211.948L146.823 210.711L145.972 209.475L144.89 208.084L144.039 206.847L143.033 205.842L141.951 204.451L140.945 203.446L139.863 202.055L138.857 201.05L137.62 199.891L136.615 198.887L135.223 197.959L133.985 196.8L132.826 196.027L131.588 194.868L122.541 188.841L120.995 188.146L113.34 183.046L111.793 182.351L106.69 178.951L105.608 178.565L100.504 175.165L99.1897 174.624L92.9264 170.451L91.612 169.911L86.9725 166.82L85.4261 166.125L79.6268 162.261L78.3124 161.72L75.9926 160.175L74.9873 159.17L70.3478 156.08L69.3425 155.075L68.1826 154.302L67.4093 153.452L66.2494 152.679L65.2441 151.675L64.4707 150.824L63.4654 149.82L62.3055 149.047L61.5321 148.197L60.5268 147.192L59.7535 146.342L58.7481 145.338L57.9748 144.487L57.2014 143.637L56.1961 142.633L55.4227 141.782L54.6494 140.932L53.6441 139.928L52.7162 139.309L51.9428 138.459L51.1694 137.609L50.3961 136.759L49.6227 135.909L48.6174 134.904L47.844 134.054L47.0707 133.204L46.3748 132.74L45.6014 131.89L44.8281 131.04L43.9002 130.422L43.1268 129.572L42.1989 128.954L41.6575 128.258L39.8017 127.022L39.2604 126.326L35.3168 123.699L34.2344 123.313L31.9146 121.767L31.0642 121.536L29.6723 120.608L28.8219 120.377L27.43 119.45L26.5796 119.218L23.7959 117.363L23.2545 116.668L22.7131 115.972L22.1717 115.277L21.8623 114.736L21.3209 114.04L20.9341 113.112L20.5472 112.185L20.3924 111.412L20.0055 110.484L20.0052 109.479L19.8503 108.706L19.85 107.701L20.0817 106.851L20.0813 105.846L20.4675 104.763L20.6992 103.913L21.0854 102.83L21.549 102.134L21.9352 101.052L23.6351 98.5003L24.3307 97.959L24.9489 97.0311L25.799 96.2577L26.6491 95.4843L27.3447 94.943L28.1949 94.1696L29.045 93.3963L29.9726 93.0094L31.0547 92.3906L31.7503 91.8492L32.6779 91.4624L33.9919 90.9981L34.9195 90.6113L35.8471 90.2244L37.0066 89.9921L37.9342 89.6053L39.0937 89.373L40.2533 89.1407L41.2583 89.1403L42.6498 89.0626L43.6548 89.0623L44.6598 89.0619L45.8968 89.2161L46.9018 89.2158L48.1388 89.37L49.3757 89.5242L50.2262 89.7559L51.4632 89.9101L52.5456 90.2963L53.7826 90.4505L54.865 90.8367L55.9475 91.2229L57.0299 91.6091L58.1123 91.9953L59.1948 92.3814L60.1227 92.9996L61.2051 93.3858L63.0609 94.6221L64.1433 95.0083L64.9167 95.8584L66.7725 97.0948L67.5458 97.9449L68.3192 98.795L68.8606 99.4906L69.6339 100.341L70.4073 101.191L71.0261 102.273L71.4129 103.201L72.1863 104.051L72.6506 105.365L73.0374 106.292L73.4242 107.22L73.8111 108.148L74.2754 109.462L74.5077 110.621L74.8945 111.549L75.1268 112.708L75.3591 113.868L75.514 114.641L75.7463 115.8L75.9786 116.96L76.3654 117.887L76.5977 119.047L76.9846 119.975L77.2169 121.134L77.6037 122.062L77.9905 122.989L78.6094 124.071L78.9962 124.999L79.5376 125.695L80.3884 126.931L80.9297 127.627L81.7031 128.477L82.4765 129.327L83.0178 130.023L83.9457 130.641L84.7191 131.491L87.2708 133.191L88.3532 133.577L89.0492 134.041L90.1316 134.427L91.214 134.813L92.0645 135.045L93.1469 135.431L93.9974 135.663L95.0798 136.049L96.0848 136.048L96.9353 136.28L97.9403 136.28L99.1773 136.434L100.182 136.434L101.187 136.433L102.192 136.433L103.197 136.433L104.202 136.432L105.207 136.432L106.212 136.432L107.217 136.431L108.222 136.431L109.227 136.431L110.232 136.43L111.237 136.43L112.088 136.662L112.938 136.893L113.943 136.893L115.026 137.279L115.876 137.511L116.727 137.742L117.577 137.974L118.505 138.592L119.355 138.824L120.051 139.288L120.902 139.519L125.309 142.455L125.851 143.151L126.547 143.615L127.088 144.31L127.784 144.774L128.325 145.469L128.867 146.165L129.563 146.629L129.872 147.17L130.259 148.097L130.8 148.793L131.342 149.489L131.651 150.03L132.192 150.725L132.347 151.498L132.889 152.194L133.43 152.889L133.585 153.662L134.126 154.358L134.513 155.286L134.9 156.213L135.209 156.754L135.596 157.682L135.983 158.609L136.524 159.305L136.911 160.233L137.53 161.315L137.917 162.242L138.381 163.556L139 164.638L139.619 165.72L140.083 167.035L140.702 168.117L141.166 169.431L141.785 170.513L142.481 171.981L143.1 173.064L143.564 174.378L144.183 175.46L144.647 176.774L145.266 177.856L145.731 179.17L146.581 180.407L147.046 181.721L147.664 182.803L148.129 184.117L148.747 185.199L149.212 186.513L149.831 187.595L150.295 188.909L150.914 189.991L151.532 191.074L151.997 192.388L152.616 193.47L153.234 194.552L153.699 195.866L154.317 196.948L154.936 198.03L155.169 199.19L155.787 200.272L156.406 201.354L156.871 202.668L157.489 203.75L158.108 204.832L158.572 206.146L159.191 207.228L159.578 208.156L160.197 209.238L160.816 210.32L161.435 211.402L162.053 212.484L162.827 213.335L163.445 214.417L164.064 215.499L164.683 216.581L165.456 217.431L165.843 218.359L166.849 219.363L167.467 220.445L168.241 221.296L169.014 222.146L169.788 222.996L170.561 223.846L171.334 224.696L172.108 225.546L173.035 226.164L173.809 227.015L174.737 227.633L175.51 228.483L176.438 229.101L177.211 229.951L183.707 234.278L184.789 234.664L186.645 235.901L187.727 236.287L188.423 236.751L189.506 237.137L190.588 237.523L191.284 237.987L192.366 238.373L193.217 238.604L194.299 238.991L195.15 239.222L196.232 239.608L197.315 239.995L198.165 240.226L199.016 240.458L200.098 240.844L200.948 241.076L201.954 241.075L203.036 241.462L204.041 241.461L204.891 241.693L205.896 241.693L206.747 241.924L207.752 241.924L208.757 241.924L209.607 242.155L210.612 242.155L211.617 242.155L212.622 242.154L213.395 241.999L214.555 241.767L215.56 241.767L216.333 241.612L217.261 241.225L218.034 241.07L219.193 240.838L220.121 240.451L220.894 240.296L221.589 239.755L222.517 239.368L223.444 238.981L224.14 238.44L224.836 237.898L225.763 237.512L226.459 236.97L227.154 236.429L227.85 235.887L228.314 235.191L229.009 234.65L229.473 233.954L230.168 233.413L233.568 228.309L233.8 227.459L235.191 225.371L235.422 224.521L235.886 223.825L236.582 223.283L237.509 221.892L238.05 221.582L238.514 220.886L239.209 220.345L239.905 219.803L240.446 219.494L241.141 218.953L241.914 218.798L242.61 218.256L243.151 217.947L243.924 217.792L244.852 217.405L245.625 217.25L246.166 216.941L246.939 216.786L247.789 217.018L248.562 216.863L249.335 216.708L250.108 216.553L250.881 216.398L251.5 216.475L252.505 216.475L253.278 216.32L253.896 216.397L254.669 216.242L255.288 216.32L256.061 216.165L256.679 216.242L257.452 216.087L258.225 215.932L258.844 216.009L259.385 215.7L260.004 215.777L260.545 215.467L261.859 215.003L262.4 214.694L262.941 214.384L263.25 213.92L263.791 213.611L265.182 211.523L265.259 210.905L265.568 210.441L265.645 209.822L265.722 209.204L265.799 208.585L265.644 207.812L265.722 207.194L265.567 206.421L265.257 205.88L265.334 205.261L265.179 204.488L264.87 203.947L264.483 203.02L264.174 202.479L264.019 201.706L263.864 200.933L263.323 200.237L262.936 199.309L262.781 198.536L262.394 197.609L262.007 196.681L261.388 195.599L261.002 194.671L260.383 193.589L259.764 192.507L259.3 191.193L258.835 189.879L258.139 188.41L257.443 186.942L256.515 185.319L255.741 183.464L254.813 181.84L254.039 179.985L253.265 178.13L252.337 176.507L251.409 174.884L250.635 173.029L249.63 171.019L248.856 169.164L247.928 167.541L247.154 165.686L246.226 164.062L245.452 162.207L244.679 160.352L243.982 158.883L243.209 157.028L242.28 155.405L241.507 153.55L240.578 151.927L239.805 150.072L239.109 148.603L238.335 146.748L237.407 145.125L236.71 143.656L235.937 141.801L235.24 140.332L234.467 138.477L233.771 137.009L232.842 135.385L232.301 133.685L231.604 132.216" stroke="#374151" stroke-width="8"/>
<path d="M231.604 132.216L232.301 133.685L232.842 135.385L233.771 137.009L234.467 138.477L235.24 140.332L235.937 141.801L236.71 143.656L237.407 145.125L238.335 146.748L239.109 148.603L239.805 150.072L240.578 151.927L241.507 153.55L242.28 155.405L243.209 157.028L243.982 158.883L244.679 160.352L245.452 162.207L246.226 164.062L247.154 165.685L247.928 167.541L248.856 169.164L249.63 171.019L250.635 173.029L251.409 174.884L252.337 176.507L253.265 178.13L254.039 179.985L254.813 181.84L255.741 183.464L256.515 185.319L257.443 186.942L258.139 188.41L258.835 189.879L259.3 191.193L259.764 192.507L260.383 193.589L261.002 194.671L261.388 195.599L262.007 196.681L262.394 197.609L262.781 198.536L262.936 199.309L263.323 200.237L263.864 200.932L264.019 201.705L264.174 202.479L264.483 203.02L264.87 203.947L265.179 204.488L265.334 205.261L265.257 205.88L265.567 206.421L265.722 207.194L265.644 207.812L265.799 208.585L265.722 209.204L265.645 209.822L265.568 210.441L265.259 210.905L265.182 211.523L263.791 213.611L263.25 213.92L262.941 214.384L262.4 214.694L261.859 215.003L260.545 215.467L260.004 215.777L259.385 215.7L258.844 216.009L258.225 215.932L257.452 216.087L256.679 216.242L256.061 216.165L255.288 216.32L254.669 216.242L253.896 216.397L253.278 216.32L252.505 216.475L251.5 216.475L250.881 216.398L250.108 216.553L249.335 216.708L248.562 216.863L247.789 217.018L246.939 216.786L246.166 216.941L245.625 217.25L244.852 217.405L243.924 217.792L243.151 217.947L242.61 218.256L241.914 218.798L241.141 218.953L240.446 219.494L239.905 219.803L239.209 220.345L238.514 220.886L238.05 221.582L237.509 221.891L236.582 223.283L235.886 223.825L235.422 224.521L235.191 225.371L233.8 227.459L233.568 228.309L230.168 233.413L229.473 233.954L229.009 234.65L228.314 235.191L227.85 235.887L227.154 236.429L226.459 236.97L225.763 237.511L224.836 237.898L224.14 238.44L223.444 238.981L222.517 239.368L221.589 239.755L220.894 240.296L220.121 240.451L219.193 240.838L218.034 241.07L217.261 241.225L216.333 241.612L215.56 241.767L214.555 241.767L213.395 241.999L212.622 242.154L211.617 242.155L210.612 242.155L209.607 242.155L208.757 241.924L207.752 241.924L206.747 241.924L205.896 241.693L204.891 241.693L204.041 241.461L203.036 241.462L201.953 241.075L200.948 241.076L200.098 240.844L199.016 240.458L198.165 240.226L197.315 239.995L196.232 239.608L195.15 239.222L194.299 238.991L193.217 238.604L192.366 238.373L191.284 237.987L190.588 237.523L189.506 237.137L188.423 236.751L187.727 236.287L186.645 235.901L184.789 234.664L183.707 234.278L177.211 229.951L176.438 229.101L175.51 228.483L174.737 227.633L173.809 227.015L173.035 226.164L172.108 225.546L171.334 224.696L170.561 223.846L169.788 222.996L169.014 222.146L168.241 221.296L167.467 220.445L166.849 219.363L165.843 218.359L165.456 217.431L164.683 216.581L164.064 215.499L163.445 214.417L162.827 213.335L162.053 212.484L161.435 211.402L160.816 210.32L160.197 209.238L159.578 208.156L159.191 207.228L158.572 206.146L158.108 204.832L157.489 203.75L156.87 202.668L156.406 201.354L155.787 200.272L155.169 199.19L154.936 198.03L154.317 196.948L153.699 195.866L153.234 194.552L152.616 193.47L151.997 192.388L151.532 191.074L150.914 189.991L150.295 188.909L149.831 187.595L149.212 186.513L148.747 185.199L148.129 184.117L147.664 182.803L147.046 181.721L146.581 180.407L145.731 179.17L145.266 177.856L144.647 176.774L144.183 175.46L143.564 174.378L143.1 173.064L142.481 171.981L141.785 170.513L141.166 169.431L140.702 168.117L140.083 167.035L139.619 165.72L139 164.638L138.381 163.556L137.917 162.242L137.53 161.315L136.911 160.232L136.524 159.305L135.983 158.609L135.596 157.682L135.209 156.754L134.9 156.213L134.513 155.286L134.126 154.358L133.585 153.662L133.43 152.889L132.889 152.194L132.347 151.498L132.192 150.725L131.651 150.03L131.342 149.489L130.8 148.793L130.259 148.097L129.872 147.17L129.563 146.629L128.867 146.165L128.325 145.469L127.784 144.774L127.088 144.31L126.547 143.615L125.851 143.151L125.309 142.455L120.902 139.519L120.051 139.288L119.355 138.824L118.505 138.592L117.577 137.974L116.727 137.742L115.876 137.511L115.026 137.279L113.943 136.893L112.938 136.893L112.088 136.662L111.237 136.43L110.232 136.43L109.227 136.431L108.222 136.431L107.217 136.431L106.212 136.432L105.207 136.432L104.202 136.432L103.197 136.433L102.192 136.433L101.187 136.433L100.182 136.434L99.1773 136.434L97.9403 136.28L96.9353 136.28L96.0848 136.048L95.0798 136.049L93.9974 135.663L93.1469 135.431L92.0645 135.045L91.214 134.813L90.1316 134.427L89.0492 134.041L88.3532 133.577L87.2708 133.191L84.7191 131.491L83.9457 130.641L83.0178 130.023L82.4765 129.327L81.7031 128.477L80.9297 127.627L80.3884 126.931L79.5376 125.695L78.9962 124.999L78.6093 124.071L77.9905 122.989L77.6037 122.062L77.2169 121.134L76.9846 119.975L76.5977 119.047L76.3654 117.887L75.9786 116.96L75.7463 115.8L75.514 114.641L75.3591 113.868L75.1268 112.708L74.8945 111.549L74.5077 110.621L74.2754 109.462L73.8111 108.147L73.4242 107.22L73.0374 106.292L72.6506 105.365L72.1863 104.051L71.4129 103.201L71.0261 102.273L70.4073 101.191L69.6339 100.341L68.8606 99.4906L68.3192 98.795L67.5458 97.9449L66.7725 97.0947L64.9167 95.8584L64.1433 95.0083L63.0609 94.6221L61.2051 93.3858L60.1227 92.9996L59.1948 92.3814L58.1123 91.9952L57.0299 91.609L55.9475 91.2229L54.865 90.8367L53.7826 90.4505L52.5456 90.2963L51.4632 89.9101L50.2262 89.7559L49.3757 89.5242L48.1387 89.37L46.9018 89.2158L45.8968 89.2161L44.6598 89.0619L43.6548 89.0622L42.6498 89.0626L41.2583 89.1403L40.2533 89.1406L39.0937 89.3729L37.9342 89.6052L37.0066 89.9921L35.8471 90.2244L34.9195 90.6112L33.9919 90.9981L32.6779 91.4623L31.7503 91.8492L31.0547 92.3906L29.9726 93.0094L29.045 93.3962L28.1949 94.1696L27.3447 94.9429L26.6491 95.4843L25.799 96.2577L24.9489 97.031L24.3307 97.9589L23.6351 98.5003L21.9352 101.052L21.549 102.134L21.0854 102.83L20.6992 103.913L20.4675 104.763L20.0813 105.846L20.0817 106.851L19.85 107.701L19.8503 108.706L20.0052 109.479L20.0055 110.484L20.3924 111.412L20.5472 112.185L20.9341 113.112L21.3209 114.04L21.8623 114.736L22.1717 115.277L22.7131 115.972L23.2545 116.668L23.7959 117.363L26.5796 119.218L27.43 119.45L28.8219 120.377L29.6723 120.608L31.0642 121.536L31.9146 121.767L34.2344 123.313L35.3168 123.699L39.2604 126.326L39.8017 127.022L41.6575 128.258L42.1989 128.954L43.1268 129.572L43.9002 130.422L44.8281 131.04L45.6014 131.89L46.3748 132.74L47.0707 133.204L47.844 134.054L48.6174 134.904L49.6227 135.909L50.3961 136.759" stroke="#EF4444" stroke-width="2"/>
<path d="M50.3961 136.759L51.1694 137.609L51.9428 138.459L52.7161 139.309L53.644 139.928L54.6494 140.932L55.4227 141.782L56.1961 142.633L57.2014 143.637L57.9748 144.487L58.7481 145.338L59.7534 146.342L60.5268 147.192L61.5321 148.197L62.3055 149.047L63.4654 149.82L64.4707 150.825L65.244 151.675L66.2494 152.679L67.4092 153.452L68.1826 154.302L69.3425 155.075L70.3478 156.08L74.9873 159.17L75.9926 160.175L78.3123 161.72L79.6268 162.261L85.4261 166.125L86.9725 166.82L91.612 169.911L92.9264 170.451L99.1897 174.624L100.504 175.165L105.608 178.565L106.69 178.951L111.793 182.351L113.34 183.046L120.995 188.146L122.541 188.841L131.588 194.868L132.826 196.027L133.985 196.8L135.223 197.959L136.615 198.887L137.62 199.891L138.857 201.05L139.863 202.055L140.945 203.446L141.951 204.451L143.033 205.842L144.039 206.847L144.89 208.084L145.972 209.475L146.823 210.711L147.674 211.948L148.757 213.339L149.762 214.344L150.845 215.735L151.695 216.972L152.546 218.208L153.629 219.6L154.48 220.836L155.563 222.227L156.413 223.464L157.419 224.469L158.501 225.86L159.352 227.097L160.435 228.488L161.286 229.724L162.059 230.575L163.374 232.12L164.225 233.357L165.307 234.748L166.313 235.753L167.396 237.144L168.246 238.381L169.484 239.54L170.334 240.776L171.572 241.936L172.655 243.327L173.66 244.332L174.897 245.491L176.134 246.65L177.217 248.041L178.377 248.814L179.614 249.973L180.852 251.132L182.089 252.292L183.326 253.451L184.718 254.378L185.723 255.383L186.961 256.542L189.744 258.396L190.982 259.556L197.941 264.192L199.487 264.887L202.271 266.742L203.585 267.282L204.977 268.21L206.524 268.905L207.916 269.832L209.462 270.527L211.008 271.223L212.555 271.918L214.101 272.613L215.647 273.308L217.194 274.004L218.74 274.699L220.209 275.008L221.756 275.703L223.456 276.166L225.003 276.861L226.704 277.325L228.173 277.634L229.874 278.097L231.575 278.56L232.889 279.101L234.59 279.564L236.291 280.027L237.76 280.336L239.461 280.799L241.162 281.263L242.863 281.726L244.332 282.035L246.032 282.498L247.733 282.961L249.357 283.038L251.058 283.501L252.759 283.965L254.228 284.274L255.929 284.737L257.398 285.046L259.098 285.509L260.954 285.74L262.655 286.203L264.124 286.512L265.825 286.976L267.526 287.439L268.995 287.748L270.464 288.056L272.164 288.52L274.02 288.751L275.721 289.214L277.422 289.678L278.891 289.986L280.746 290.218L282.447 290.681L283.916 290.99L285.617 291.453L287.472 291.684L289.173 292.148L290.642 292.456L292.343 292.92L294.199 293.151L295.668 293.46L297.369 293.923L298.838 294.232L300.693 294.463L302.394 294.926L303.863 295.235L305.718 295.466L307.419 295.93L309.043 296.007L310.744 296.47L312.367 296.547L314.068 297.01L315.692 297.087L317.547 297.318L319.016 297.627L320.871 297.858L322.495 297.935L324.35 298.166L325.819 298.475L327.443 298.552L329.066 298.628L330.535 298.937L331.927 298.859L333.396 299.168L334.787 299.09L336.024 299.245L337.261 299.399L338.653 299.321L339.89 299.475L340.895 299.475L342.132 299.629L343.137 299.629L344.142 299.629L345.379 299.783L346.384 299.782L347.389 299.782L348.394 299.782L349.012 299.859L350.017 299.859L351.022 299.858L351.641 299.935L352.414 299.78L353.264 300.012L354.037 299.857L354.656 299.934L355.429 299.78L356.047 299.857L356.666 299.934L357.439 299.779L357.825 299.701L358.444 299.779L359.217 299.624L359.835 299.701L360.376 299.391L360.995 299.468L361.536 299.159L362.154 299.236L362.695 298.927L363.236 298.617L363.777 298.308L364.087 297.844L364.628 297.535L365.709 295.911L365.787 295.292L366.096 294.828L366.173 294.21L366.25 293.591L366.172 293.205L366.249 292.586L366.095 291.813L365.862 290.654L365.475 289.726L365.166 289.185L365.089 288.799L364.779 288.258L364.47 287.717L364.16 287.175L364.006 286.402L363.928 286.016L363.619 285.475L363.309 284.934L363 284.393L362.69 283.852L362.536 283.079L362.226 282.538L362.149 282.151L361.994 281.378L361.685 280.837L361.53 280.064L361.22 279.523L361.297 278.904L361.142 278.131L361.22 277.513L361.065 276.74L361.142 276.121L360.987 275.348L361.219 274.498L361.296 273.879L361.373 273.261L361.604 272.411L361.682 271.792L362.145 271.096L362.377 270.246L363.15 269.086L363.381 268.235L363.922 267.926L364.849 266.534L365.545 265.993L365.854 265.529L366.55 264.987L367.091 264.678L368.018 264.291L368.559 263.982L369.255 263.44L370.028 263.285L370.801 263.131L371.574 262.976L372.347 262.821L373.12 262.666L373.893 262.511L374.744 262.743L375.362 262.82L376.213 263.052L376.831 263.129L377.682 263.36L378.377 263.824L379.228 264.056L383.172 266.683L383.713 267.378L389.744 271.396L390.363 271.473L391.059 271.937L391.909 272.169L392.528 272.246L393.378 272.477L394.228 272.709L394.847 272.786L395.697 273.018L396.47 272.863L397.243 272.708L398.094 272.94L398.867 272.785L399.64 272.63L400.413 272.475L401.186 272.32L401.959 272.165L402.732 272.011L403.428 271.469L404.201 271.314L404.974 271.159L405.515 270.85L406.056 270.541L406.829 270.386L407.37 270.076L407.911 269.767L408.452 269.458L409.225 269.303L410.153 268.916L410.848 268.374L411.776 267.988L412.471 267.446L413.244 267.291L413.94 266.75L414.636 266.209L415.563 264.817L415.64 264.198L415.872 263.348L415.717 262.575L415.562 261.802L415.253 261.261L414.943 260.72L414.634 260.179L414.324 259.638L413.783 258.942L413.705 258.555L413.551 257.782L413.628 257.164L413.705 256.545L413.782 255.927L414.709 254.535L415.25 254.226L415.559 253.762L416.255 253.22L416.719 252.524L417.414 251.983L418.11 251.442L418.805 250.9L419.655 250.127L420.351 249.586L420.892 249.276L421.433 248.967L421.742 248.503L422.283 248.193L422.979 247.652L423.52 247.343L423.829 246.879L424.525 246.337L425.375 245.564L426.07 245.023L426.611 244.713L427.307 244.172L428.003 243.63L428.698 243.089L429.78 241.465L430.012 240.615L430.089 239.996L429.934 239.223L429.779 238.45L429.624 237.677L429.315 237.136L428.773 236.44L428.232 235.745L427.691 235.049L426.763 234.431L426.221 233.736L423.902 232.19L423.592 231.649L419.417 228.867L419.107 228.326L416.324 226.472" stroke="#3B82F6" stroke-width="2"/>
<path d="M416.324 226.472L415.628 226.008L414.854 225.158L409.983 221.913L409.209 221.063L402.482 216.581L401.709 215.731L393.822 210.477L392.584 209.317L386.089 204.99L384.852 203.831L379.053 199.967L377.815 198.808L373.176 195.717L371.706 194.404L367.067 191.313L365.366 189.845L360.494 186.599L358.793 185.131L355.313 182.813L353.844 181.499L348.277 177.79L346.808 176.476L343.096 174.004L341.395 172.535L335.827 168.826L333.894 167.204L330.182 164.731L328.481 163.263L322.45 159.245L320.749 157.776L314.717 153.758L312.784 152.135L306.753 148.117L305.052 146.649L300.876 143.867L298.943 142.245L294.767 139.463L292.834 137.84L288.658 135.058L286.725 133.435L282.55 130.654L280.617 129.031L276.441 126.249L274.276 124.472L272.188 123.081L270.255 121.458L265.847 118.522L263.914 116.899L259.507 113.963L257.573 112.34L253.166 109.404L251.233 107.781L248.913 106.235L246.98 104.612L242.572 101.676L240.407 99.8988L235.999 96.9626L234.066 95.3397L231.746 93.7943L229.581 92.0169L225.174 89.0807L223.241 87.4578L218.601 84.367L216.668 82.7442L212.028 79.6534L210.095 78.0305L207.775 76.4851L205.61 74.7078L201.203 71.7715L199.037 69.9941L194.398 66.9033L192.465 65.2805L190.145 63.7351L187.98 61.9577L183.572 59.0214L181.407 57.244L179.087 55.6986L177.154 54.0758L172.515 50.985L170.349 49.2076L168.262 47.8168L166.329 46.1939L162.385 43.5667L160.916 42.253L157.436 39.9349L155.967 38.6211L151.559 35.6848L150.322 34.5256L144.523 30.6621L143.749 29.812L139.11 26.7212L138.259 26.4895L137.331 25.8714L136.249 25.4852L135.244 25.4855L134.394 25.2539L133.466 25.6407L132.693 25.7956L131.765 26.1824L131.456 26.6464L130.915 26.9558L129.37 29.2755L129.293 29.894L129.216 30.5125L128.907 30.9764L128.984 31.3629L129.139 32.136L129.062 32.7545L128.985 33.3729L129.294 33.914L129.217 34.5325L129.372 35.3055L129.449 35.692L129.604 36.4651L129.759 37.2381L130.068 37.7791L130.223 38.5522L130.533 39.0932L130.688 39.8663L130.997 40.4073L131.152 41.1803L131.461 41.7214L131.616 42.4944L132.157 43.19L132.312 43.963L132.467 44.7361L133.009 45.4317L133.163 46.2047L133.705 46.9003L133.86 47.6733L134.247 48.6009L134.788 49.2965L134.943 50.0695L135.484 50.7651L135.871 51.6927L136.412 52.3883L136.799 53.3158L137.109 53.8569L137.65 54.5525L138.037 55.4801L138.81 56.3302L139.352 57.0258L139.893 57.7214L140.434 58.417L140.976 59.1126L141.749 59.9627L142.445 60.4263L143.218 61.2765L147.162 63.9037L148.244 64.2898L149.172 64.908L150.023 65.1397L151.105 65.5258L152.188 65.912L153.038 66.1437L154.12 66.5299L155.203 66.916L156.208 66.9157L157.29 67.3019L158.527 67.4561L159.532 67.4558L160.615 67.842L161.852 67.9962L163.089 68.1504L164.094 68.1501L165.176 68.5363L166.413 68.6905L167.65 68.8447L168.887 68.9989L170.124 69.1531L171.361 69.3073L172.443 69.6935L173.68 69.8477L174.917 70.002L176.386 70.3107L177.469 70.6969L178.706 70.8511L180.175 71.1599L181.257 71.5461L182.572 72.0868L183.654 72.473L185.123 72.7817L186.437 73.3224L187.365 73.9406L188.68 74.4813L189.994 75.0221L191.309 75.5628L193.396 76.9537L194.711 77.4944L200.51 81.3579L201.515 82.3626L202.675 83.1353L203.681 84.1399L204.686 85.1446L205.923 86.3038L206.697 87.154L207.702 88.1587L208.553 89.3953L209.558 90.4L210.409 91.6366L211.26 92.8733L212.265 93.878L212.884 94.9601L213.735 96.1967L231.5 132" stroke="#FBBF24" stroke-width="2"/>
<path d="M247.772 117L245.03 125.03L237 122.289L247.772 117Z" fill="#979797"/>
</svg>
