<svg width="72" height="48" viewBox="0 0 72 48" fill="none" xmlns="http://www.w3.org/2000/svg">
<path d="M63.8256 15.4289L14.6279 13.5011C12.7519 13.4276 16.504 17.0969 18.8491 17.0187C21.1942 16.9405 23.4611 14.9863 26.1188 14.9081C28.7766 14.83 35.8118 19.7546 38.7823 21.318C41.7527 22.8814 45.1907 25.0089 43.0034 25.5392C40.4238 26.1645 41.0492 27.8061 40.8929 30.073C40.7365 32.3399 36.2809 32.8089 34.0921 32.8089C31.9034 32.8089 24.6336 28.1188 22.6794 27.1807C20.7252 26.2427 18.8491 28.8223 16.973 28.8223C15.1684 28.8223 13.2209 26.2427 11.5793 26.2427C9.93779 26.2427 7.28002 28.5096 7.51452 30.073C7.74903 31.6364 10.1723 31.5582 11.1103 31.4019C12.0484 31.2455 14.0808 32.1836 17.2857 32.3399C20.4907 32.4962 28.6203 32.2617 29.871 32.9653C31.1217 33.6688 37.3752 35.4667 43.5506 34.685C48.2154 34.0945 56.639 29.5547 60.8983 26.9882C61.2216 26.7934 61.2157 26.3222 60.9036 26.1098C59.768 25.3365 58.355 24.1126 58.5591 23.1941C58.8718 21.787 61.2169 22.4124 62.3894 22.4124C63.2057 22.4124 63.9628 21.1496 64.3516 20.2724C64.4447 20.0624 64.3671 19.8196 64.1778 19.6895L63.5636 19.2672C63.378 19.1396 63.3006 18.9036 63.3746 18.6909L64.2783 16.0928C64.3886 15.7756 64.1611 15.442 63.8256 15.4289Z" stroke="#7D839C" strokeWidth="1.5"/>
</svg>
