<svg width="72" height="48" viewBox="0 0 72 48" fill="none" xmlns="http://www.w3.org/2000/svg">
<path d="M50.5958 7.73138C52.139 6.86191 56.0573 5.33171 57.9515 4.53676C58.0081 4.513 58.0702 4.49976 58.1316 4.50002C60.4386 4.50993 58.754 7.66877 57.5342 9.37653C57.4784 9.45465 57.4457 9.54595 57.44 9.64178L57.3668 10.8863C57.3568 11.0564 57.4333 11.2206 57.5757 11.3142C57.988 11.5854 58.6264 11.9424 59.015 11.9424C59.4684 11.9424 59.8368 10.7269 59.9793 10.0553C59.9893 10.0083 59.9919 9.96018 59.9869 9.91234C59.9456 9.51627 59.8229 8.68806 59.6024 8.02656C59.3895 7.38785 60.0179 6.96887 60.4534 6.79873C60.5361 6.76643 60.6269 6.76464 60.7133 6.78497L62.197 7.13409C62.2293 7.14168 62.2602 7.15218 62.2903 7.16611C63.086 7.53481 64.574 8.32757 64.4971 8.71183C64.3992 9.20131 63.4203 10.6697 61.9519 12.2361C60.4834 13.8024 55.9802 18.893 52.3581 20.8509C48.736 22.8088 41.7854 21.9277 40.0233 21.634C38.6893 21.4117 36.7242 20.6459 35.7703 20.2324C35.6708 20.1893 35.5608 20.1788 35.4552 20.2032L33.2209 20.7188C33.1243 20.7411 33.0232 20.7341 32.9305 20.6988L31.0566 19.985C31.0302 19.9749 31.0055 19.9631 30.9811 19.9487C29.5311 19.0926 26.5275 17.3639 25.8284 17.1308C24.9474 16.8372 19.5631 15.6624 18.6821 15.6624C17.801 15.6624 14.7662 19.6761 14.2768 20.5572C13.9346 21.173 14.7632 22.1823 15.3915 22.7757C15.5419 22.9177 15.6029 23.1328 15.5358 23.3284C14.8858 25.2215 13.7392 28.653 13.5915 29.4657C13.4469 30.261 12.1785 30.7838 11.4197 30.9878C11.3052 31.0185 11.2022 31.0835 11.1359 31.1817C10.9314 31.4848 10.6546 31.9754 10.6546 32.3046C10.6546 32.7941 10.4588 35.3394 10.7525 36.9057C11.0462 38.4721 11.0462 38.9615 12.3188 39.1573C13.5915 39.3531 13.2978 40.5279 13.3957 41.5068C13.4936 42.4858 11.242 42.29 9.57778 41.6047C7.91355 40.9194 7.81566 39.9405 8.10934 38.9615C8.40303 37.9826 7.71741 35.731 7.52162 33.871C7.32583 32.0109 8.50093 28.5846 9.38199 26.9204C10.263 25.2562 10.7525 21.8298 11.2419 20.1656C11.7314 18.5014 14.3745 15.9561 14.8639 15.3687C15.3534 14.7813 16.0384 14.0961 16.2342 13.0192C16.43 11.9424 17.8008 12.4319 18.8776 13.3129C19.9545 14.194 24.3599 14.2919 27.1989 15.3687C30.0378 16.4456 30.1357 16.6414 31.9958 16.8372C33.8558 17.0329 35.7156 16.8372 38.163 17.3266C40.6104 17.8161 43.2539 20.0677 46.5824 18.3056C49.9108 16.5435 48.3442 14.4877 47.7568 12.0403C47.1695 9.59289 49.0295 8.61393 50.5958 7.73138Z" stroke="#7D839C" strokeWidth="1.5"/>
</svg>
