<svg width="72" height="48" viewBox="0 0 72 48" fill="none" xmlns="http://www.w3.org/2000/svg">
<path d="M54.0835 13.5466L62.9912 7.75048C63.9569 6.99742 64.8158 7.96694 64.3865 10.328C63.9572 12.689 61.2742 16.8746 58.3765 19.4503C55.4789 22.026 51.9373 21.5967 50.7568 21.382C49.5762 21.1674 46.7859 21.8113 46.4639 22.7772C46.142 23.7431 44.8541 25.4602 43.0297 25.5675C41.2052 25.6749 37.5563 27.714 37.0197 29.0018C36.4831 30.2897 34.444 32.1141 33.3708 32.1141C32.2976 32.1141 30.1512 32.758 29.6146 33.7239C29.078 34.6898 25.8583 36.5143 24.7851 36.9435C23.7119 37.3728 22.4241 37.3728 22.1021 36.9435C21.7802 36.5143 21.1362 35.8703 20.2777 36.1923C19.4191 36.5143 17.2727 36.2996 16.7361 36.1923C16.1995 36.085 15.1263 36.6216 13.7311 37.0509C12.3359 37.4801 11.1554 39.7339 10.2968 40.2705C9.43827 40.8071 8.3651 40.6998 7.61385 39.6266C7.01285 38.768 8.93725 37.7663 9.97457 37.3728C12.0139 36.5143 16.2212 34.7327 16.7363 34.4752C17.3803 34.1532 19.4188 34.4752 20.3846 33.9386C21.3505 33.402 23.0679 33.8312 23.3899 34.2605C23.7119 34.6898 24.1411 35.3337 26.6095 34.7971C29.0779 34.2605 28.1119 32.1141 29.0778 31.4702C30.0436 30.8263 31.5465 31.0409 32.9417 30.8263C33.9786 30.6667 34.4164 29.26 34.5307 28.43C34.5467 28.3141 34.5963 28.2051 34.6805 28.1239C35.1276 27.6933 35.9699 26.951 36.5904 26.6407C37.2645 26.3037 39.7165 24.9744 40.9233 24.3164C40.9685 24.2917 41.0163 24.2747 41.0668 24.2649L43.5795 23.7786C43.9303 23.7107 44.0987 23.3076 43.9005 23.0103L43.7089 22.7229C43.5668 22.5098 43.6087 22.2238 43.8059 22.0604L54.0835 13.5466Z" stroke="#7D839C" stroke-width="1.5"/>
</svg>
