<svg width="600" height="321" viewBox="0 0 600 321" fill="none" xmlns="http://www.w3.org/2000/svg">
<path d="M450.786 67.4066L448.77 69.2005L447.695 70.042L446.621 70.8835L445.547 71.725L444.472 72.5665L443.398 73.408L442.527 74.1769L441.38 74.8152L440.306 75.6567L439.232 76.4982L438.157 77.3397L437.083 78.1811L436.212 78.9501L435.138 79.7916L434.063 80.6331L432.989 81.4746L431.915 82.3161L430.841 83.1576L429.766 83.9991L428.895 84.768L427.821 85.6095L426.747 86.451L425.672 87.2925L424.598 88.134L423.524 88.9755L422.45 89.8169L421.375 90.6584L420.301 91.4999L419.227 92.3414L418.356 93.1104L417.281 93.9519L416.207 94.7934L415.133 95.6349L414.058 96.4763L412.984 97.3178L411.91 98.1593L410.836 99.0008L409.761 99.8423L408.687 100.684L407.613 101.525L406.538 102.367L405.464 103.208L404.39 104.05L403.316 104.891L402.445 105.66L401.37 106.502L400.296 107.343L399.222 108.185L398.147 109.026L397.073 109.868L395.999 110.709L394.925 111.551L393.85 112.392L392.776 113.234L391.702 114.075L390.627 114.917L389.553 115.758L388.479 116.6L387.405 117.441L386.33 118.282L385.256 119.124L384.182 119.965L383.311 120.734L382.164 121.373L381.293 122.142L380.625 122.838L379.681 123.404L379.013 124.1L378.07 124.666L377.329 125.159L376.662 125.856L376.124 126.277L375.384 126.77L374.847 127.191L374.107 127.684L373.569 128.105L373.032 128.525L372.495 128.946L372.161 129.294L371.624 129.715L371.29 130.063L370.956 130.412L370.419 130.832L369.882 131.253L369.011 132.022L368.546 132.646L368.082 133.27L367.69 134.097L367.225 134.721L366.833 135.548L366.513 136.579L366.382 136.854L366.324 137.333L366.469 137.74L366.411 138.219L366.28 138.494L366.425 138.901L366.367 139.38L366.512 139.786L366.657 140.193L366.947 141.006L367.368 141.543L367.861 142.283L368.079 142.893L368.369 143.706L368.586 144.315L368.804 144.925L369.021 145.535L369.036 146.217L369.05 146.899L369.064 147.581L369.079 148.263L368.817 148.815L368.556 149.366L368.294 149.918L368.033 150.469L367.699 150.817L367.234 151.441L366.697 151.862L366.16 152.283L365.623 152.703L365.086 153.124L364.476 153.342L363.866 153.559L363.054 153.849L362.241 154.139L361.631 154.357L360.746 154.444L359.657 154.603L358.772 154.69L358.293 154.632L357.611 154.646L356.928 154.66L356.45 154.602L355.971 154.544L355.288 154.558L354.809 154.5L354.127 154.514L353.445 154.528L352.966 154.47L352.284 154.485L351.602 154.499L350.92 154.513L350.238 154.528L349.555 154.542L348.873 154.556L348.191 154.57L347.436 154.382L346.754 154.396L345.869 154.483L345.187 154.497L344.301 154.584L343.488 154.874L342.806 154.888L341.921 154.975L341.036 155.062L340.223 155.352L339.337 155.439L338.524 155.729L337.508 156.091L336.623 156.178L335.81 156.468L334.794 156.831L333.981 157.121L333.168 157.411L332.152 157.773L331.136 158.136L330.396 158.629L329.38 158.992L328.639 159.485L327.623 159.847L326.68 160.413L325.736 160.979L324.72 161.341L323.98 161.835L323.036 162.4L322.092 162.966L321.149 163.532L320.205 164.098L319.189 164.46L318.246 165.026L317.302 165.592L316.358 166.158L315.212 166.796L314.268 167.362L313.325 167.927L312.381 168.493L311.234 169.131L310.218 169.494L309.274 170.06L308.128 170.698L307.184 171.264L306.241 171.829L305.094 172.468L304.15 173.033L303.003 173.672L301.987 174.034L300.84 174.673L299.897 175.238L298.75 175.877L297.807 176.442L296.66 177.081L295.644 177.443L294.7 178.009L293.96 178.502L292.944 178.865L292.203 179.358L291.463 179.851L290.65 180.141L289.91 180.634L289.3 180.852L288.763 181.273L288.153 181.49L287.544 181.708L287.006 182.129L286.6 182.274L285.99 182.491L285.656 182.839L284.916 183.333L284.176 183.826L283.508 184.522L282.84 185.219L282.709 185.495L282.375 185.843L282.114 186.394L281.983 186.67L281.649 187.018L281.591 187.497L281.199 188.324L281.01 189.079L280.821 189.834L280.632 190.588L280.516 191.546L280.327 192.301L280.269 192.78L280.211 193.259L280.152 193.738L280.094 194.217L280.036 194.696L279.978 195.175L279.789 195.929L279.731 196.408L279.469 196.96L279.483 197.642L279.222 198.193L278.961 198.745L278.772 199.499L278.714 199.978L278.249 200.602L278.191 201.081L277.799 201.908L277.537 202.46L277.276 203.011L276.811 203.635L276.346 204.259L275.882 204.883L275.62 205.435L275.156 206.059L274.415 206.552L273.951 207.176L273.486 207.8L272.949 208.22L272.209 208.714L271.671 209.134L270.931 209.628L270.394 210.048L269.654 210.542L269.044 210.759L268.304 211.252L267.694 211.47L266.881 211.76L266.068 212.05L265.459 212.268L264.646 212.558L263.833 212.848L263.02 213.138L262.338 213.152L261.525 213.442L260.64 213.529L259.754 213.616L259.072 213.63L258.187 213.717L257.229 213.6L256.547 213.615L255.589 213.498L254.631 213.382L253.876 213.193L252.918 213.077L252.164 212.888L251.206 212.771L250.451 212.582L249.493 212.466L248.738 212.277L247.781 212.161L246.823 212.044L245.937 212.131L244.979 212.015L244.022 211.898L243.136 211.985L242.251 212.072L241.365 212.159L240.48 212.246L239.391 212.405L238.506 212.492L237.621 212.579L236.532 212.738L235.719 213.028L234.631 213.187L233.818 213.477L232.802 213.84L231.989 214.13L230.973 214.492L230.232 214.986L229.289 215.551L228.548 216.045L227.808 216.538L226.864 217.104L226.124 217.597L225.456 218.293L224.788 218.99L224.121 219.686L223.453 220.383L222.785 221.079L222.393 221.906L221.725 222.603L221.333 223.43L220.868 224.054L220.273 224.954L219.881 225.781L219.416 226.405L219.024 227.232L218.835 227.987L218.443 228.814L218.051 229.641L217.862 230.396L217.542 231.426L217.281 231.978L216.889 232.805L216.7 233.559L216.308 234.387L215.843 235.011L215.378 235.635L214.914 236.258L214.522 237.086L214.057 237.71L213.317 238.203L212.852 238.827L212.387 239.451L211.85 239.872L211.386 240.495L210.645 240.989L210.108 241.409L209.571 241.83L208.831 242.323L208.293 242.744L207.481 243.034L206.943 243.455L206.203 243.948L205.593 244.166L204.78 244.456L204.171 244.673L203.358 244.963L202.618 245.457L202.008 245.674L201.195 245.964L200.31 246.051L199.497 246.341L198.684 246.631L197.799 246.718L196.986 247.008L196.1 247.095L195.287 247.385L194.402 247.472L193.792 247.689L192.907 247.776L192.022 247.863L191.136 247.95L190.178 247.833L189.496 247.847L188.538 247.731L187.856 247.745L187.102 247.556L186.347 247.368L185.592 247.179L184.765 246.787L184.01 246.598L183.386 246.133L182.632 245.944L182.008 245.479L181.253 245.291L180.629 244.826L180.005 244.361L179.454 244.1L178.627 243.708L178.003 243.243L177.451 242.982L176.827 242.517L176.406 241.98L175.782 241.515L175.159 241.051L174.81 240.717L174.186 240.252L173.562 239.787L173.142 239.25L172.518 238.786L171.966 238.524L171.342 238.06L170.994 237.726L170.37 237.261L169.819 237L169.195 236.535L168.643 236.274L168.092 236.012L167.54 235.751L166.786 235.562L166.234 235.3L165.683 235.039L164.928 234.85L164.377 234.589L163.825 234.327L163.143 234.342L162.592 234.08L161.909 234.094L161.227 234.109L160.473 233.92L159.79 233.934L159.108 233.948L158.354 233.76L157.671 233.774L156.989 233.788L156.307 233.802L155.625 233.817L154.74 233.904L154.057 233.918L153.244 234.208L152.562 234.222L151.677 234.309L150.792 234.396L150.109 234.41L149.297 234.7L148.411 234.787L147.526 234.874L146.64 234.961L145.755 235.047L144.942 235.337L144.057 235.424L143.171 235.511L142.286 235.598L141.401 235.685L140.312 235.844L139.427 235.931L138.338 236.09L137.453 236.177L136.364 236.336L135.479 236.423L134.39 236.582L133.505 236.669L132.416 236.829L131.328 236.988L130.239 237.147L129.354 237.234L128.265 237.393L127.176 237.553L126.088 237.712L124.999 237.871L123.983 238.234L122.895 238.393L121.806 238.553L120.717 238.712L119.701 239.074L118.613 239.234L117.321 239.466L116.305 239.828L115.216 239.987L113.924 240.219L112.908 240.582L111.82 240.741L110.6 241.176L109.584 241.539L108.292 241.771L107.276 242.133L106.057 242.568L105.041 242.931L103.822 243.366L102.806 243.728L101.586 244.163L100.367 244.598L99.3509 244.961L98.1316 245.396L96.9123 245.831L95.8962 246.194L94.6769 246.629L93.4576 247.064L92.2383 247.499L91.2222 247.861L90.0754 248.5L88.8561 248.935L87.6368 249.37L86.4175 249.805L85.1982 250.24L84.1821 250.602L83.0353 251.241L81.816 251.676L80.5967 252.111L79.3774 252.546L78.1581 252.981L76.9388 253.416L75.792 254.054L74.5727 254.489L73.5566 254.852L72.3373 255.287L71.118 255.722L69.9712 256.36L68.7519 256.795L67.5326 257.23L66.3133 257.665L65.094 258.1L63.9472 258.739L62.7279 259.174L61.5086 259.609L60.2893 260.044L59.1425 260.682L57.9232 261.117L56.7039 261.552L55.5571 262.19L54.3378 262.625L53.1185 263.06L51.7684 263.771L50.5491 264.206L49.3298 264.641L48.183 265.28L46.9637 265.715L45.9476 266.077L44.9316 266.44L43.988 267.006L42.9719 267.368L42.159 267.658L41.2154 268.224L40.4026 268.514L39.7929 268.731L39.0526 269.225L38.3122 269.718L37.7026 269.935L37.1654 270.356L36.5558 270.574L36.2218 270.922L35.6847 271.343L35.1475 271.763L34.8136 272.112L34.4797 272.46L33.9425 272.881L33.6811 273.432L33.3472 273.78L33.0858 274.332L32.7519 274.68L32.4904 275.231L32.229 275.783L31.9676 276.334L31.7062 276.886L31.5755 277.162L31.3141 277.713L31.0526 278.264L30.9944 278.743L30.733 279.295L30.6748 279.774L30.6891 280.456L30.6309 280.935L30.5727 281.414L30.5145 281.893L30.4563 282.372L30.6739 282.981L30.6157 283.46L30.5575 283.939L30.7025 284.346L30.7168 285.028L30.8618 285.434L31.0068 285.841L31.2243 286.45L31.3694 286.857L31.5144 287.263L31.6594 287.67L31.8044 288.076L32.0219 288.686L32.3702 289.02L32.8634 289.76L33.3567 290.5L34.0531 291.168L34.5464 291.909L35.1703 292.373L36.07 292.969L36.694 293.433L37.5212 293.825L38.1451 294.29L38.8998 294.479L39.9302 294.799L40.6849 294.988L41.2363 295.249L41.7153 295.307L42.1942 295.365L42.7457 295.627L43.4278 295.612L43.9068 295.671L44.3857 295.729L45.0679 295.715L45.5468 295.773L46.229 295.758L46.9111 295.744L47.3901 295.802L48.0722 295.788L48.6819 295.57L49.364 295.556L49.9737 295.339L50.6559 295.324L51.2655 295.107L51.8752 294.889L52.688 294.599L53.2977 294.382L53.9073 294.164L54.517 293.947L55.3299 293.657L55.867 293.236L56.4767 293.018L57.217 292.525L57.7542 292.104L58.4945 291.611L59.0317 291.19L59.5688 290.77L60.3092 290.276L60.977 289.58L61.5142 289.159L62.182 288.463L62.7192 288.042L63.387 287.345L63.8516 286.722L64.5195 286.025L64.9116 285.198L65.5795 284.501L66.2473 283.805L66.6395 282.978L67.3073 282.281L67.9752 281.585L68.3673 280.758L69.0351 280.061L69.6305 279.161L70.2983 278.465L70.8937 277.565L71.5615 276.869L72.1569 275.969L72.8247 275.273L73.6233 274.301L74.2911 273.604L74.959 272.908L75.7576 271.935L76.4254 271.239L77.0933 270.542L77.9643 269.773L78.7047 269.28L79.5758 268.511L80.2436 267.815L81.1872 267.249L81.9276 266.756L82.8711 266.19L83.539 265.494L84.5551 265.131L85.2954 264.638L86.0358 264.144L87.0519 263.782L87.7923 263.289L88.8083 262.926L89.5487 262.433L90.3616 262.143L91.3777 261.78L92.118 261.287L92.9309 260.997L93.7438 260.707L94.7598 260.344L95.5727 260.054L96.4581 259.968L97.4742 259.605L98.287 259.315L99.3031 258.952L100.392 258.793L101.277 258.706L102.293 258.344L103.179 258.257L104.267 258.098L105.356 257.938L106.241 257.851L107.33 257.692L108.418 257.533L109.376 257.649L110.465 257.49L111.626 257.534L112.787 257.578L113.672 257.491L114.834 257.535L115.995 257.579L117.156 257.623L118.114 257.739L119.275 257.783L120.436 257.827L121.597 257.871L122.758 257.915L123.919 257.958L125.08 258.002L126.241 258.046L127.199 258.163L128.36 258.207L129.521 258.25L130.683 258.294L131.64 258.411L132.729 258.251L133.89 258.295L134.979 258.136L136.067 257.977L136.953 257.89L137.969 257.527L138.854 257.44L139.943 257.281L140.756 256.991L141.641 256.904L142.454 256.614L143.267 256.324L143.949 256.31L144.559 256.092L145.168 255.875L145.85 255.861L146.46 255.643L147.142 255.629L147.752 255.411L148.231 255.469L148.913 255.455L149.595 255.441L150.074 255.499L150.756 255.485L151.438 255.47L151.917 255.529L152.396 255.587L153.078 255.572L153.63 255.834L154.109 255.892L154.66 256.153L155.342 256.139L155.894 256.401L156.373 256.459L156.924 256.72L157.272 257.054L157.824 257.316L158.375 257.577L158.724 257.911L159.275 258.172L159.696 258.709L160.247 258.971L160.799 259.232L161.219 259.769L161.64 260.307L162.192 260.568L162.612 261.105L163.033 261.642L163.454 262.179L164.005 262.441L164.426 262.978L165.05 263.443L165.471 263.98L166.095 264.444L166.719 264.909L167.067 265.243L167.691 265.708L168.315 266.172L168.866 266.434L169.49 266.898L170.042 267.16L170.666 267.624L171.42 267.813L171.972 268.075L172.726 268.264L173.278 268.525L174.033 268.714L174.715 268.7L175.266 268.961L175.948 268.947L176.703 269.136L177.385 269.121L177.937 269.383L178.619 269.368L179.301 269.354L179.983 269.34L180.665 269.326L181.144 269.384L181.826 269.369L182.509 269.355L183.191 269.341L183.8 269.123L184.483 269.109L184.889 268.964L185.571 268.95L186.181 268.732L186.994 268.442L187.676 268.428L188.285 268.21L189.098 267.92L189.78 267.906L190.593 267.616L191.203 267.398L192.016 267.108L192.829 266.818L193.438 266.601L194.179 266.107L194.992 265.817L195.804 265.527L196.617 265.237L197.43 264.947L198.171 264.454L198.983 264.164L199.927 263.598L200.74 263.308L201.48 262.815L202.424 262.249L203.237 261.959L204.18 261.393L204.921 260.9L205.864 260.334L206.605 259.841L207.476 259.072L208.216 258.579L209.16 258.013L210.031 257.244L210.771 256.751L211.642 255.982L212.31 255.286L213.181 254.517L214.052 253.748L214.72 253.051L215.591 252.282L216.462 251.513L217.13 250.817L218.001 250.048L218.8 249.075L219.671 248.307L220.338 247.61L221.21 246.841L222.008 245.869L222.879 245.1L223.75 244.331L224.621 243.562L225.492 242.793L226.363 242.024L227.235 241.255L228.106 240.486L228.977 239.717L230.051 238.876L230.922 238.107L231.793 237.338L232.94 236.699L233.811 235.93L234.682 235.161L235.756 234.32L236.7 233.754L237.774 232.913L238.718 232.347L239.661 231.781L240.736 230.94L241.679 230.374L242.826 229.736L243.77 229.17L244.713 228.604L245.932 228.169L246.876 227.603L247.892 227.241L249.039 226.602L250.055 226.24L251.071 225.877L252.087 225.515L253.307 225.08L254.323 224.717L255.339 224.355L256.558 223.92L257.574 223.557L258.793 223.122L259.809 222.76L261.029 222.324L262.045 221.962L263.061 221.599L264.208 220.961L265.224 220.599L266.443 220.164L267.59 219.525L268.534 218.959L269.753 218.524L270.696 217.959L271.916 217.524L273.063 216.885L274.006 216.32L275.153 215.681L276.3 215.043L277.243 214.477L278.318 213.636L279.464 212.998L280.335 212.229L281.482 211.59L282.556 210.749L283.5 210.183L284.574 209.342L285.721 208.703L286.592 207.934L287.666 207.093L288.538 206.324L289.539 205.279L290.41 204.51L291.485 203.669L292.283 202.696L293.082 201.724L294.156 200.883L294.955 199.911L295.753 198.938L296.552 197.966L297.278 196.791L298.076 195.819L298.875 194.846L299.674 193.874L300.472 192.902L301.343 192.133L302.142 191.161L302.94 190.189L303.811 189.42L304.61 188.447L305.481 187.678L306.28 186.706L307.151 185.937L308.022 185.168L308.893 184.399L309.764 183.63L310.766 182.586L311.637 181.817L312.508 181.048L313.582 180.206L314.526 179.64L315.6 178.799L316.471 178.03L317.618 177.392L318.489 176.623L319.636 175.984L320.782 175.346L321.654 174.577L322.597 174.011L323.744 173.373L324.891 172.735L326.037 172.097L327.184 171.458L328.2 171.096L329.347 170.458L330.566 170.023L331.713 169.384L332.933 168.949L334.152 168.514L335.299 167.876L336.518 167.441L337.737 167.006L338.957 166.571L340.176 166.136L341.395 165.701L342.614 165.266L343.834 164.831L345.126 164.599L346.345 164.164L347.637 163.932L348.856 163.497L350.148 163.265L351.44 163.033L352.731 162.801L354.096 162.773L355.388 162.541L356.679 162.309L357.768 162.15L358.857 161.99L359.945 161.831L360.831 161.744L361.919 161.585L362.805 161.498L363.617 161.208L364.503 161.121L365.112 160.904L365.998 160.817L366.607 160.599L367.29 160.585L367.899 160.367L368.306 160.222L368.915 160.005L369.525 159.787L370.135 159.57L370.744 159.352L371.078 159.004L371.688 158.787L372.298 158.569L372.835 158.148L373.241 158.003L373.778 157.583L374.112 157.234L374.649 156.814L374.983 156.465L375.52 156.045L375.782 155.493L376.116 155.145L376.653 154.724L376.987 154.376L377.248 153.825L377.582 153.476L377.844 152.925L378.308 152.301L378.642 151.953L378.904 151.401L379.165 150.85L379.63 150.226L380.022 149.399L380.283 148.847L380.472 148.092L380.733 147.541L380.995 146.99L381.184 146.235L381.445 145.683L381.707 145.132L382.171 144.508L382.433 143.957L382.622 143.202L383.086 142.578L383.348 142.026L383.812 141.403L384.277 140.779L384.466 140.024L384.931 139.4L385.395 138.776L385.932 138.355L386.397 137.731L386.862 137.107L387.326 136.483L388.067 135.99L388.531 135.366L389.068 134.945L389.736 134.249L390.273 133.828L391.014 133.335L391.682 132.638L392.219 132.218L392.959 131.724L393.699 131.231L394.44 130.738L395.18 130.245L395.993 129.955L396.733 129.461L397.546 129.171L398.287 128.678L399.303 128.316L400.116 128.026L400.856 127.532L401.669 127.242L402.482 126.952L403.295 126.662L404.107 126.372L404.993 126.285L405.602 126.068L406.488 125.981L407.373 125.894L408.259 125.807L409.144 125.721L410.029 125.634L410.915 125.547L411.8 125.46L412.685 125.373L413.643 125.49L414.732 125.33L415.69 125.447L416.575 125.36L417.533 125.476L418.694 125.52L419.58 125.433L420.537 125.55L421.568 125.869L422.729 125.913L423.687 126.03L424.645 126.146L425.806 126.19L426.764 126.306L427.794 126.626L428.955 126.67L429.986 126.99L431.147 127.033L432.177 127.353L433.338 127.397L434.369 127.717L435.53 127.76L436.56 128.08L437.721 128.124L438.955 128.371L439.985 128.691L441.146 128.735L442.38 128.982L443.541 129.026L444.702 129.069L445.863 129.113L447.024 129.157L448.185 129.201L449.347 129.245L450.508 129.289L451.669 129.333L453.033 129.304L454.122 129.145L455.283 129.189L456.647 129.16L457.736 129.001L459.1 128.972L460.189 128.813L461.48 128.581L462.772 128.349L463.861 128.19L465.153 127.958L466.444 127.726L467.533 127.567L468.825 127.335L470.044 126.9L471.336 126.668L472.555 126.233L473.571 125.871L474.863 125.639L475.879 125.276L477.099 124.841L478.245 124.203L479.465 123.768L480.684 123.333L481.831 122.695L483.05 122.26L484.197 121.621L485.416 121.186L486.563 120.548L487.71 119.91L488.653 119.344L489.728 118.502L490.874 117.864L491.949 117.023L493.096 116.384L494.17 115.543L495.113 114.977L496.188 114.136L497.262 113.294L498.409 112.656L499.483 111.814L500.63 111.176L501.704 110.335L502.648 109.769L503.722 108.927L504.796 108.086L505.943 107.448L507.017 106.606L508.092 105.765L509.166 104.923L510.037 104.154L511.111 103.313L512.186 102.471L513.187 101.427L514.058 100.658L515.133 99.816L515.931 98.8438L517.006 98.0024L518.007 96.9577L518.878 96.1887L519.88 95.144L520.679 94.1718L521.681 93.1271L522.479 92.1549L523.481 91.1102L524.279 90.138L525.078 89.1658L526.08 88.1211L526.878 87.1489L527.677 86.1767L528.606 84.9288L529.405 83.9566L530.203 82.9844L530.929 81.809L531.931 80.7643L532.73 79.7921L533.456 78.6167L534.182 77.4412L534.98 76.469L535.706 75.2936L536.432 74.1182L537.159 72.9428L537.957 71.9706L538.683 70.7952L539.409 69.6198L539.932 68.5169L540.658 67.3415L541.384 66.166L542.038 64.7874L542.561 63.6845L543.287 62.5091L544.013 61.3337L544.535 60.2308L545.261 59.0554L545.915 57.6767L546.438 56.5738L546.888 55.2677L547.614 54.0923L548.065 52.7862L548.515 51.48L549.038 50.3771L549.488 49.071L549.938 47.7649L550.389 46.4588L550.839 45.1526L551.289 43.8465L551.74 42.5404L552.19 41.2343L552.64 39.9282L552.887 38.6945L553.41 37.5916L553.861 36.2855L554.108 35.0519L554.427 34.0215L554.747 32.9911L554.994 31.7575L555.314 30.7271L555.706 29.8999L556.025 28.8695L556.142 27.9116L556.534 27.0844L556.65 26.1266L557.043 25.2994L557.231 24.5447L557.42 23.79L557.609 23.0354L557.871 22.4839L558.06 21.7292L558.321 21.1778L558.379 20.6988L558.568 19.9442L558.83 19.3927L558.888 18.9138L559.149 18.3623L559.207 17.8834L559.266 17.4044L559.527 16.853L559.585 16.374L559.643 15.8951L559.702 15.4162L559.76 14.9372L559.818 14.4583L559.876 13.9793L559.862 13.2972L559.92 12.8182L559.703 12.2086L559.761 11.7296L559.616 11.3232L559.674 10.8442L559.529 10.4378L559.311 9.82815L559.094 9.21849L558.804 8.40562L558.311 7.66527L557.614 6.99741L557.121 6.25705L556.221 5.66171L555.597 5.19707L554.77 4.80495L554.015 4.61603L553.188 4.2239L552.433 4.03499L551.679 3.84609L550.924 3.65718L550.039 3.74399L549.357 3.75831L548.544 4.04834L547.658 4.13515L546.773 4.22197L545.96 4.512L545.35 4.72953L544.407 5.29528L543.594 5.58531L543.057 6.00607L542.65 6.15108L542.113 6.57182L541.707 6.71684L541.373 7.06508L540.763 7.28259L540.226 7.70335L539.82 7.84836L539.283 8.2691L538.745 8.68985L538.339 8.83486L537.802 9.25561L537.265 9.67636L536.728 10.0971L536.19 10.5178L535.653 10.9386L534.84 11.2286L534.303 11.6494L533.766 12.0701L533.026 12.5634L532.489 12.9841L531.748 13.4774L531.211 13.8981L530.471 14.3913L529.73 14.8846L528.99 15.3779L528.25 15.8711L527.509 16.3644L526.769 16.8576L525.956 17.1476L525.216 17.6409L524.475 18.1341L523.532 18.6999L522.791 19.1932L522.051 19.6864L521.107 20.2522L520.367 20.7454L519.424 21.3112L518.48 21.8769L517.74 22.3702L516.796 22.9359L515.852 23.5017L515.112 23.995L514.168 24.5607L513.225 25.1265L512.281 25.6923L511.338 26.258L510.394 26.8238L509.451 27.3895L508.507 27.9553L507.563 28.5211L506.62 29.0868L505.749 29.8558L504.805 30.4216L503.862 30.9873L502.918 31.5531L501.974 32.1188L501.031 32.6846L500.087 33.2504L499.013 34.0918L498.069 34.6576L497.126 35.2234L496.182 35.7891L495.108 36.6306L494.164 37.1964L493.018 37.8346L492.074 38.4004L491.203 39.1694L490.056 39.8077L489.113 40.3734L487.966 41.0117L487.095 41.7807L485.948 42.4189L484.801 43.0572L483.858 43.623L482.783 44.4644L481.84 45.0302L480.765 45.8717L479.619 46.51L478.675 47.0757L477.601 47.9172L476.454 48.5555L475.583 49.3245L474.436 49.9627L473.362 50.8042L472.418 51.37L471.344 52.2115L470.197 52.8497L469.326 53.6187L468.252 54.4602L467.105 55.0985L466.031 55.9399L465.16 56.7089L464.013 57.3472L462.939 58.1887L461.864 59.0302L460.993 59.7991L459.919 60.6406L458.772 61.2789L457.901 62.0479L456.827 62.8894L455.752 63.7309L454.678 64.5723L453.604 65.4138L452.733 66.1828L451.659 67.0243L451.121 67.445" stroke="#374151" strokeWidth="5.60172"/>
<path d="M450.716 67.5899L449.642 68.4314L448.771 69.2004L447.697 70.0418L446.622 70.8833L445.548 71.7248L444.474 72.5663L443.4 73.4078L442.529 74.1768L441.382 74.815L440.307 75.6565L439.233 76.498L438.159 77.3395L437.085 78.181L436.214 78.95L435.139 79.7915L434.065 80.6329L432.991 81.4744L431.916 82.3159L430.842 83.1574L429.768 83.9989L428.897 84.7679L427.822 85.6094L426.748 86.4508L425.674 87.2923L424.6 88.1338L423.525 88.9753L422.451 89.8168L421.377 90.6583L420.302 91.4998L419.228 92.3413L418.357 93.1102L417.283 93.9517L416.208 94.7932L415.134 95.6347L414.06 96.4762L412.986 97.3177L411.911 98.1592L410.837 99.0006L409.763 99.8421L408.688 100.684L407.614 101.525L406.54 102.367L405.466 103.208L404.391 104.05L403.317 104.891L402.446 105.66L401.372 106.502L400.297 107.343L399.223 108.184L398.149 109.026L397.075 109.867L396 110.709L394.926 111.55L393.852 112.392L392.777 113.233L391.703 114.075L390.629 114.916L389.555 115.758L388.48 116.599L387.406 117.441L386.332 118.282L385.257 119.124L384.183 119.965L383.312 120.734L382.165 121.373L381.294 122.142L380.626 122.838L379.683 123.404L379.015 124.1L378.071 124.666L377.331 125.159L376.663 125.856L376.126 126.276L375.386 126.77L374.848 127.19L374.108 127.684L373.571 128.104L373.034 128.525L372.497 128.946L372.163 129.294L371.626 129.715L371.292 130.063L370.958 130.411L370.421 130.832L369.883 131.253L369.012 132.022L368.548 132.646L368.083 133.27L367.691 134.097L367.226 134.721L366.834 135.548L366.515 136.578L366.384 136.854L366.326 137.333L366.471 137.74L366.412 138.219L366.282 138.494L366.427 138.901L366.369 139.38L366.514 139.786L366.659 140.193L366.949 141.005L367.369 141.543L367.863 142.283L368.08 142.893L368.37 143.705L368.588 144.315L368.805 144.925L369.023 145.534L369.037 146.217L369.051 146.899L369.066 147.581L369.08 148.263L368.819 148.814L368.557 149.366L368.296 149.917L368.034 150.469L367.7 150.817L367.236 151.441L366.699 151.862L366.161 152.283L365.624 152.703L365.087 153.124L364.478 153.342L363.868 153.559L363.055 153.849L362.242 154.139L361.632 154.357L360.747 154.443L359.659 154.603L358.773 154.69L358.294 154.631L357.612 154.646L356.93 154.66L356.451 154.602L355.972 154.544L355.29 154.558L354.811 154.5L354.129 154.514L353.447 154.528L352.968 154.47L352.285 154.484L351.603 154.499L350.921 154.513L350.239 154.527L349.557 154.542L348.875 154.556L348.192 154.57L347.438 154.381L346.756 154.396L345.87 154.483L345.188 154.497L344.303 154.584L343.49 154.874L342.808 154.888L341.922 154.975L341.037 155.062L340.224 155.352L339.339 155.438L338.526 155.729L337.51 156.091L336.624 156.178L335.812 156.468L334.795 156.83L333.983 157.12L333.17 157.411L332.154 157.773L331.138 158.136L330.397 158.629L329.381 158.991L328.641 159.485L327.625 159.847L326.681 160.413L325.737 160.979L324.721 161.341L323.981 161.835L323.037 162.4L322.094 162.966L321.15 163.532L320.207 164.098L319.191 164.46L318.247 165.026L317.303 165.592L316.36 166.157L315.213 166.796L314.269 167.361L313.326 167.927L312.382 168.493L311.236 169.131L310.219 169.494L309.276 170.06L308.129 170.698L307.185 171.264L306.242 171.829L305.095 172.468L304.152 173.033L303.005 173.672L301.989 174.034L300.842 174.672L299.898 175.238L298.751 175.876L297.808 176.442L296.661 177.08L295.645 177.443L294.701 178.009L293.961 178.502L292.945 178.865L292.205 179.358L291.464 179.851L290.651 180.141L289.911 180.634L289.301 180.852L288.764 181.273L288.155 181.49L287.545 181.708L287.008 182.128L286.601 182.273L285.992 182.491L285.658 182.839L284.917 183.332L284.177 183.826L283.509 184.522L282.841 185.219L282.711 185.494L282.377 185.843L282.115 186.394L281.985 186.67L281.651 187.018L281.592 187.497L281.2 188.324L281.011 189.079L280.823 189.833L280.634 190.588L280.517 191.546L280.328 192.301L280.27 192.78L280.212 193.259L280.154 193.738L280.095 194.216L280.037 194.695L279.979 195.174L279.79 195.929L279.732 196.408L279.471 196.959L279.485 197.642L279.223 198.193L278.962 198.745L278.773 199.499L278.715 199.978L278.25 200.602L278.192 201.081L277.8 201.908L277.539 202.46L277.277 203.011L276.812 203.635L276.348 204.259L275.883 204.883L275.622 205.434L275.157 206.058L274.417 206.552L273.952 207.176L273.488 207.8L272.95 208.22L272.21 208.714L271.673 209.134L270.933 209.628L270.395 210.048L269.655 210.542L269.045 210.759L268.305 211.252L267.695 211.47L266.882 211.76L266.07 212.05L265.46 212.267L264.647 212.558L263.834 212.848L263.021 213.138L262.339 213.152L261.526 213.442L260.641 213.529L259.756 213.616L259.073 213.63L258.188 213.717L257.23 213.6L256.548 213.615L255.59 213.498L254.632 213.382L253.878 213.193L252.92 213.076L252.165 212.888L251.207 212.771L250.452 212.582L249.495 212.466L248.74 212.277L247.782 212.161L246.824 212.044L245.939 212.131L244.981 212.015L244.023 211.898L243.138 211.985L242.252 212.072L241.367 212.159L240.481 212.245L239.393 212.405L238.507 212.492L237.622 212.578L236.533 212.738L235.721 213.028L234.632 213.187L233.819 213.477L232.803 213.84L231.99 214.13L230.974 214.492L230.234 214.985L229.29 215.551L228.55 216.044L227.809 216.538L226.866 217.103L226.126 217.597L225.458 218.293L224.79 218.99L224.122 219.686L223.454 220.383L222.786 221.079L222.394 221.906L221.726 222.603L221.334 223.43L220.869 224.054L220.274 224.954L219.882 225.781L219.417 226.405L219.025 227.232L218.836 227.987L218.444 228.814L218.052 229.641L217.863 230.396L217.544 231.426L217.282 231.977L216.89 232.805L216.701 233.559L216.309 234.386L215.844 235.01L215.38 235.634L214.915 236.258L214.523 237.086L214.058 237.709L213.318 238.203L212.853 238.827L212.389 239.451L211.852 239.871L211.387 240.495L210.647 240.989L210.109 241.409L209.572 241.83L208.832 242.323L208.295 242.744L207.482 243.034L206.945 243.455L206.204 243.948L205.595 244.166L204.782 244.456L204.172 244.673L203.359 244.963L202.619 245.457L202.009 245.674L201.196 245.964L200.311 246.051L199.498 246.341L198.685 246.631L197.8 246.718L196.987 247.008L196.102 247.095L195.289 247.385L194.403 247.471L193.794 247.689L192.908 247.776L192.023 247.863L191.138 247.949L190.18 247.833L189.498 247.847L188.54 247.731L187.858 247.745L187.103 247.556L186.348 247.367L185.594 247.179L184.766 246.786L184.012 246.597L183.388 246.133L182.633 245.944L182.009 245.479L181.254 245.29L180.631 244.826L180.007 244.361L179.455 244.1L178.628 243.708L178.004 243.243L177.452 242.982L176.829 242.517L176.408 241.98L175.784 241.515L175.16 241.05L174.812 240.717L174.188 240.252L173.564 239.787L173.143 239.25L172.519 238.785L171.968 238.524L171.344 238.059L170.995 237.726L170.371 237.261L169.82 236.999L169.196 236.535L168.645 236.273L168.093 236.012L167.542 235.751L166.787 235.562L166.236 235.3L165.684 235.039L164.929 234.85L164.378 234.588L163.826 234.327L163.144 234.341L162.593 234.08L161.911 234.094L161.229 234.109L160.474 233.92L159.792 233.934L159.11 233.948L158.355 233.759L157.673 233.774L156.991 233.788L156.308 233.802L155.626 233.817L154.741 233.903L154.059 233.918L153.246 234.208L152.564 234.222L151.678 234.309L150.793 234.396L150.111 234.41L149.298 234.7L148.413 234.787L147.527 234.874L146.642 234.961L145.756 235.047L144.944 235.337L144.058 235.424L143.173 235.511L142.287 235.598L141.402 235.685L140.313 235.844L139.428 235.931L138.339 236.09L137.454 236.177L136.365 236.336L135.48 236.423L134.391 236.582L133.506 236.669L132.418 236.829L131.329 236.988L130.24 237.147L129.355 237.234L128.266 237.393L127.178 237.553L126.089 237.712L125.001 237.871L123.984 238.234L122.896 238.393L121.807 238.552L120.719 238.712L119.703 239.074L118.614 239.234L117.322 239.466L116.306 239.828L115.218 239.987L113.926 240.219L112.91 240.582L111.821 240.741" stroke="#EF4444" strokeWidth="2.69014"/>
<path d="M111.82 240.741L110.6 241.176L109.584 241.539L108.292 241.771L107.276 242.133L106.057 242.568L105.041 242.931L103.822 243.366L102.806 243.728L101.586 244.163L100.367 244.598L99.3509 244.961L98.1316 245.396L96.9123 245.831L95.8962 246.194L94.6769 246.629L93.4576 247.064L92.2383 247.499L91.2222 247.861L90.0754 248.5L88.8561 248.935L87.6368 249.37L86.4175 249.805L85.1982 250.24L84.1821 250.602L83.0353 251.241L81.816 251.676L80.5967 252.111L79.3774 252.546L78.1581 252.981L76.9388 253.416L75.792 254.054L74.5727 254.489L73.5566 254.852L72.3373 255.287L71.118 255.722L69.9712 256.36L68.7519 256.795L67.5326 257.23L66.3133 257.665L65.094 258.1L63.9472 258.739L62.7279 259.174L61.5086 259.609L60.2893 260.044L59.1425 260.682L57.9232 261.117L56.7039 261.552L55.5571 262.19L54.3378 262.625L53.1185 263.06L51.7684 263.771L50.5491 264.206L49.3298 264.641L48.183 265.28L46.9637 265.715L45.9476 266.077L44.9316 266.44L43.988 267.006L42.9719 267.368L42.159 267.658L41.2154 268.224L40.4026 268.514L39.7929 268.731L39.0526 269.225L38.3122 269.718L37.7025 269.935L37.1654 270.356L36.5558 270.574L36.2218 270.922L35.6847 271.343L35.1475 271.763L34.8136 272.112L34.4797 272.46L33.9425 272.881L33.6811 273.432L33.3472 273.78L33.0858 274.332L32.7519 274.68L32.4904 275.231L32.229 275.783L31.9676 276.334L31.7062 276.886L31.5755 277.162L31.3141 277.713L31.0526 278.264L30.9944 278.743L30.733 279.295L30.6748 279.774L30.6891 280.456L30.6309 280.935L30.5727 281.414L30.5145 281.893L30.4563 282.372L30.6739 282.981L30.6157 283.46L30.5575 283.939L30.7025 284.346L30.7168 285.028L30.8618 285.434L31.0068 285.841L31.2243 286.45L31.3694 286.857L31.5144 287.263L31.6594 287.67L31.8044 288.076L32.0219 288.686L32.3702 289.02L32.8634 289.76L33.3567 290.5L34.0531 291.168L34.5464 291.909L35.1703 292.373L36.07 292.969L36.694 293.433L37.5212 293.825L38.1451 294.29L38.8998 294.479L39.9302 294.799L40.6849 294.988L41.2363 295.249L41.7153 295.307L42.1942 295.365L42.7457 295.627L43.4278 295.612L43.9068 295.671L44.3857 295.729L45.0679 295.715L45.5468 295.773L46.229 295.758L46.9111 295.744L47.3901 295.802L48.0722 295.788L48.6819 295.57L49.364 295.556L49.9737 295.339L50.6559 295.324L51.2655 295.107L51.8752 294.889L52.688 294.599L53.2977 294.382L53.9073 294.164L54.517 293.947L55.3299 293.657L55.867 293.236L56.4767 293.018L57.217 292.525L57.7542 292.104L58.4945 291.611L59.0317 291.19L59.5688 290.77L60.3092 290.276L60.977 289.58L61.5142 289.159L62.182 288.463L62.7192 288.042L63.387 287.345L63.8516 286.722L64.5195 286.025L64.9116 285.198L65.5795 284.501L66.2473 283.805L66.6395 282.978L67.3073 282.281L67.9752 281.585L68.3673 280.758L69.0351 280.061L69.6305 279.161L70.2983 278.465L70.8937 277.565L71.5615 276.869L72.1569 275.969L72.8247 275.273L73.6233 274.301L74.2912 273.604L74.959 272.908L75.7576 271.935L76.4254 271.239L77.0933 270.542L77.9643 269.773L78.7047 269.28L79.5758 268.511L80.2436 267.815L81.1872 267.249L81.9276 266.756L82.8711 266.19L83.539 265.494L84.5551 265.131L85.2954 264.638L86.0358 264.144L87.0519 263.782L87.7923 263.289L88.8083 262.926L89.5487 262.433L90.3616 262.143L91.3777 261.78L92.118 261.287L92.9309 260.997L93.7438 260.707L94.7598 260.344L95.5727 260.054L96.4581 259.968L97.4742 259.605L98.287 259.315L99.3031 258.952L100.392 258.793L101.277 258.706L102.293 258.344L103.179 258.257L104.267 258.098L105.356 257.938L106.241 257.851L107.33 257.692L108.418 257.533L109.376 257.649L110.465 257.49L111.626 257.534L112.787 257.578L113.672 257.491L114.834 257.535L115.995 257.579L117.156 257.623L118.114 257.739L119.275 257.783L120.436 257.827L121.597 257.871L122.758 257.915L123.919 257.958L125.08 258.002L126.241 258.046L127.199 258.163L128.36 258.207L129.521 258.25L130.683 258.294L131.64 258.411L132.729 258.251L133.89 258.295L134.979 258.136L136.067 257.977L136.953 257.89L137.969 257.527L138.854 257.44L139.943 257.281L140.756 256.991L141.641 256.904L142.454 256.614L143.267 256.324L143.949 256.31L144.559 256.092L145.168 255.875L145.85 255.861L146.46 255.643L147.142 255.629L147.752 255.411L148.231 255.469L148.913 255.455L149.595 255.441L150.074 255.499L150.756 255.485L151.438 255.47L151.917 255.529L152.396 255.587L153.078 255.572L153.63 255.834L154.109 255.892L154.66 256.153L155.342 256.139L155.894 256.401L156.373 256.459L156.924 256.72L157.272 257.054L157.824 257.316L158.375 257.577L158.724 257.911L159.275 258.172L159.696 258.709L160.247 258.971L160.799 259.232L161.219 259.769L161.64 260.307L162.192 260.568L162.612 261.105L163.033 261.642L163.454 262.179L164.005 262.441L164.426 262.978L165.05 263.443L165.471 263.98L166.095 264.444L166.719 264.909L167.067 265.243L167.691 265.708L168.315 266.172L168.866 266.434L169.49 266.898L170.042 267.16L170.666 267.624L171.42 267.813L171.972 268.075L172.726 268.264L173.278 268.525L174.033 268.714L174.715 268.7L175.266 268.961L175.948 268.947L176.703 269.136L177.385 269.121L177.937 269.383L178.619 269.368L179.301 269.354L179.983 269.34L180.665 269.326L181.144 269.384L181.826 269.369L182.509 269.355L183.191 269.341L183.8 269.123L184.483 269.109L184.889 268.964L185.571 268.95L186.181 268.732L186.994 268.442L187.676 268.428L188.285 268.21L189.098 267.92L189.78 267.906L190.593 267.616L191.203 267.398L192.016 267.108L192.829 266.818L193.438 266.601L194.179 266.107L194.992 265.817L195.805 265.527L196.617 265.237L197.43 264.947L198.171 264.454L198.983 264.164L199.927 263.598L200.74 263.308L201.48 262.815L202.424 262.249L203.237 261.959L204.18 261.393L204.921 260.9L205.864 260.334L206.605 259.841L207.476 259.072L208.216 258.579L209.16 258.013L210.031 257.244L210.771 256.751L211.642 255.982L212.31 255.286L213.181 254.517L214.052 253.748L214.72 253.051L215.591 252.282L216.462 251.513L217.13 250.817L218.001 250.048L218.8 249.075L219.671 248.307L220.339 247.61L221.21 246.841L222.008 245.869L222.879 245.1L223.75 244.331L224.621 243.562L225.492 242.793L226.364 242.024L227.235 241.255L228.106 240.486L228.977 239.717L230.051 238.876L230.922 238.107L231.793 237.338L232.94 236.699L233.811 235.93L234.682 235.161L235.756 234.32L236.7 233.754L237.774 232.913L238.718 232.347L239.661 231.781L240.736 230.94L241.679 230.374L242.826 229.736L243.77 229.17L244.713 228.604L245.933 228.169L246.876 227.603L247.892 227.241L249.039 226.602L250.055 226.24L251.071 225.877L252.087 225.515L253.307 225.08L254.323 224.717L255.339 224.355L256.558 223.92L257.574 223.557L258.793 223.122L259.809 222.759L261.029 222.324L262.045 221.962L263.061 221.599L264.208 220.961L265.224 220.599L266.443 220.163L267.59 219.525L268.534 218.959L269.753 218.524L270.696 217.959L271.916 217.524L273.063 216.885L274.006 216.32L275.153 215.681L276.3 215.043L277.243 214.477L278.318 213.636L279.464 212.998L280.335 212.229L281.482 211.59L282.557 210.749L283.5 210.183L284.574 209.342L285.721 208.703L286.592 207.934L287.667 207.093L288.538 206.324L289.539 205.279L290.41 204.51L291.485 203.669L292.283 202.696L293.082 201.724L294.156 200.883L294.955 199.911L295.753 198.938L296.552 197.966L297.278 196.791L298.076 195.819L298.875 194.846L299.674 193.874L300.472 192.902L301.343 192.133L302.142 191.161L302.94 190.189L303.811 189.42L304.61 188.447L305.481 187.678L306.28 186.706L307.151 185.937" stroke="#3B82F6" strokeWidth="2.69014"/>
<path d="M307.149 185.936L308.02 185.167L308.892 184.398L309.763 183.629L310.764 182.585L311.635 181.816L312.507 181.047L313.581 180.205L314.524 179.639L315.599 178.798L316.47 178.029L317.617 177.391L318.488 176.622L319.634 175.983L320.781 175.345L321.652 174.576L322.596 174.01L323.743 173.372L324.889 172.734L326.036 172.096L327.183 171.457L328.199 171.095L329.346 170.457L330.565 170.022L331.712 169.383L332.931 168.948L334.151 168.513L335.297 167.875L336.517 167.44L337.736 167.005L338.955 166.57L340.175 166.135L341.394 165.7L342.613 165.265L343.833 164.83L345.124 164.598L346.344 164.163L347.636 163.931L348.855 163.496L350.147 163.264L351.438 163.032L352.73 162.8L354.095 162.772L355.386 162.54L356.678 162.308L357.767 162.149L358.855 161.989L359.944 161.83L360.829 161.743L361.918 161.584L362.803 161.497L363.616 161.207L364.502 161.12L365.111 160.903L365.997 160.816L366.606 160.598L367.288 160.584L367.898 160.366L368.305 160.221L368.914 160.004L369.524 159.786L370.133 159.569L370.743 159.351L371.077 159.003L371.687 158.786L372.296 158.568L372.833 158.147L373.24 158.002L373.777 157.582L374.111 157.233L374.648 156.813L374.982 156.464L375.519 156.044L375.781 155.492L376.115 155.144L376.652 154.723L376.986 154.375L377.247 153.823L377.581 153.475L377.842 152.924L378.307 152.3L378.641 151.952L378.902 151.4L379.164 150.849L379.628 150.225L380.021 149.398L380.282 148.846L380.471 148.091L380.732 147.54L380.994 146.989L381.183 146.234L381.444 145.682L381.705 145.131L382.17 144.507L382.432 143.956L382.62 143.201L383.085 142.577L383.346 142.025L383.811 141.401L384.276 140.778L384.465 140.023L384.929 139.399L385.394 138.775L385.931 138.354L386.396 137.73L386.86 137.106L387.325 136.482L388.065 135.989L388.53 135.365L389.067 134.944L389.735 134.248L390.272 133.827L391.012 133.334L391.68 132.637L392.217 132.217L392.958 131.723L393.698 131.23L394.439 130.737L395.179 130.244L395.992 129.954L396.732 129.46L397.545 129.17L398.285 128.677L399.301 128.315L400.114 128.025L400.855 127.531L401.668 127.241L402.48 126.951L403.293 126.661L404.106 126.371L404.992 126.284L405.601 126.067L406.487 125.98L407.372 125.893L408.257 125.806L409.143 125.72L410.028 125.633L410.913 125.546L411.799 125.459L412.684 125.372L413.642 125.489L414.731 125.329L415.689 125.446L416.574 125.359L417.532 125.475L418.693 125.519L419.578 125.432L420.536 125.549L421.567 125.868L422.728 125.912L423.686 126.029L424.644 126.145L425.805 126.189L426.762 126.305L427.793 126.625L428.954 126.669L429.984 126.989L431.145 127.032L432.176 127.352L433.337 127.396L434.367 127.716L435.528 127.759L436.559 128.079L437.72 128.123L438.954 128.37L439.984 128.69L441.145 128.734L442.379 128.981L443.54 129.025L444.701 129.068L445.862 129.112L447.023 129.156L448.184 129.2L449.345 129.244L450.506 129.288L451.668 129.332L453.032 129.303L454.12 129.144L455.282 129.188L456.646 129.159L457.734 129L459.099 128.971L460.187 128.812L461.479 128.58L462.771 128.348L463.86 128.189L465.151 127.957L466.443 127.725L467.532 127.566L468.824 127.334L470.043 126.899L471.335 126.667L472.554 126.232L473.57 125.87L474.862 125.638L475.878 125.275L477.097 124.84L478.244 124.202L479.463 123.767L480.683 123.332L481.83 122.694L483.049 122.258L484.196 121.62L485.415 121.185L486.562 120.547L487.709 119.909L488.652 119.343L489.726 118.501L490.873 117.863L491.948 117.022L493.094 116.383L494.169 115.542L495.112 114.976L496.186 114.135L497.261 113.293L498.408 112.655L499.482 111.813L500.629 111.175L501.703 110.334L502.647 109.768L503.721 108.926L504.795 108.085L505.942 107.447L507.016 106.605L508.09 105.764L509.165 104.922L510.036 104.153L511.11 103.312L512.184 102.47L513.186 101.425L514.057 100.657L515.132 99.815L515.93 98.8428L517.004 98.0013L518.006 96.9566L518.877 96.1877L519.879 95.1429L520.678 94.1708L521.679 93.126L522.478 92.1539L523.48 91.1091L524.278 90.137L525.077 89.1648L526.079 88.1201L526.877 87.1479L527.676 86.1757L528.605 84.9277L529.404 83.9555L530.202 82.9833L530.928 81.8079L531.93 80.7632L532.728 79.791L533.455 78.6156L534.181 77.4402L534.979 76.468L535.705 75.2926L536.431 74.1172L537.157 72.9418L537.956 71.9696L538.682 70.7942L539.408 69.6187L539.931 68.5158L540.657 67.3404L541.383 66.165L542.036 64.7864L542.559 63.6835L543.285 62.5081L544.011 61.3326L544.534 60.2297L545.26 59.0543L545.914 57.6757L546.437 56.5728L546.887 55.2667L547.613 54.0912L548.063 52.7851L548.514 51.479L549.037 50.3761L549.487 49.07L549.937 47.7638L550.388 46.4577L550.838 45.1516L551.288 43.8455L551.739 42.5394L552.189 41.2332L552.639 39.9271L552.886 38.6935L553.409 37.5906L553.859 36.2845L554.107 35.0509L554.426 34.0205L554.746 32.9901L554.993 31.7564L555.313 30.7261L555.705 29.8989L556.024 28.8685L556.141 27.9106L556.533 27.0834L556.649 26.1255L557.041 25.2983L557.23 24.5437L557.419 23.789L557.608 23.0343L557.869 22.4829L558.058 21.7282L558.32 21.1768L558.378 20.6978L558.567 19.9431L558.828 19.3917L558.887 18.9127L559.148 18.3613L559.206 17.8823L559.264 17.4034L559.526 16.8519L559.584 16.373L559.642 15.8941L559.7 15.4151L559.759 14.9362L559.817 14.4572L559.875 13.9783L559.861 13.2961L559.919 12.8172L559.701 12.2075L559.76 11.7286L559.615 11.3221L559.673 10.8432L559.528 10.4368L559.31 9.82711L559.093 9.21746L558.803 8.40459L558.309 7.66422L557.613 6.99638L557.12 6.25601L556.22 5.66066L555.596 5.19603L554.769 4.8039L554.014 4.61499L553.187 4.22287L552.432 4.03396L551.678 3.84505L550.923 3.65613L550.038 3.74295L549.355 3.75727L548.543 4.0473L547.657 4.13411L546.772 4.22093L545.959 4.51097L545.349 4.72849L544.406 5.29424L543.593 5.58428L543.056 6.00503L542.649 6.15005L542.112 6.57079L541.706 6.7158L541.372 7.06403L540.762 7.28156L540.225 7.70231L539.819 7.84732L539.281 8.26807L538.744 8.68881L538.338 8.83383L537.801 9.25457L537.263 9.67532L536.726 10.0961L536.189 10.5168L535.652 10.9375L534.839 11.2276L534.302 11.6483L533.765 12.0691L533.025 12.5623L532.487 12.9831L531.747 13.4763L531.21 13.8971L530.47 14.3903L529.729 14.8836L528.989 15.3768L528.248 15.8701L527.508 16.3633L526.768 16.8566L525.955 17.1466L525.215 17.6399L524.474 18.1331L523.531 18.6989L522.79 19.1921L522.05 19.6854L521.106 20.2511L520.366 20.7444L519.422 21.3101L518.479 21.8759L517.738 22.3692L516.795 22.9349L515.851 23.5007L515.111 23.9939L514.167 24.5597L513.224 25.1255L512.28 25.6912L511.337 26.257L510.393 26.8227L509.449 27.3885L508.506 27.9543L507.562 28.52L506.619 29.0858L505.748 29.8548L504.804 30.4205L503.86 30.9863L502.917 31.552L501.973 32.1178L501.03 32.6836L500.086 33.2493L499.012 34.0908L498.068 34.6566L497.125 35.2223L496.181 35.7881L495.107 36.6296L494.163 37.1953L493.016 37.8336L492.073 38.3994L491.202 39.1683L490.055 39.8066L489.111 40.3724L487.965 41.0106L487.094 41.7796L485.947 42.4179L484.8 43.0562L483.856 43.6219L482.782 44.4634L481.839 45.0292L480.764 45.8707L479.617 46.5089L478.674 47.0747L477.6 47.9162L476.453 48.5544L475.582 49.3234L474.435 49.9617L473.361 50.8032L472.417 51.3689L471.343 52.2104L470.196 52.8487L469.325 53.6177L468.251 54.4592L467.104 55.0974L466.029 55.9389L465.158 56.7079L464.012 57.3462L462.937 58.1876L461.863 59.0291L460.992 59.7981L459.918 60.6396L458.771 61.2779L457.9 62.0468L456.826 62.8883L455.751 63.7298L454.677 64.5713L453.603 65.4128L452.732 66.1818L451.657 67.0233L451.12 67.444" stroke="#FBBF24" strokeWidth="2.69014"/>
<path d="M448.132 52.6142L440.261 51.7149L441.16 43.8441L448.132 52.6142Z" fill="#979797"/>
</svg>
