<svg width="72" height="48" viewBox="0 0 72 48" fill="none" xmlns="http://www.w3.org/2000/svg">
<path d="M62.9086 10.9809L64.5 28.009C64.5 28.8776 64.4349 30.7939 64.1743 31.5104C63.8486 32.4062 62.3014 34.1162 61.7314 34.4419C61.1614 34.7676 51.39 33.6276 50.9014 33.3019C50.4129 32.9762 50.25 31.1847 49.8429 30.6147C49.4357 30.0447 45.12 29.8819 44.55 30.2076C43.98 30.5333 43.41 32.8947 42.5143 33.0576C41.6186 33.2204 35.8371 32.1619 35.2671 31.5104C34.8867 31.0757 34.8955 29.8174 34.9718 28.9551C34.9948 28.6958 34.8277 28.4542 34.5737 28.3971C33.4823 28.1518 31.7171 27.7463 30.87 27.5204C29.7249 27.2151 24.7868 22.6873 23.8385 22.1224C23.7561 22.0734 23.664 22.0881 23.5889 22.1477C21.3345 23.9356 18.7303 35.6825 18.33 36.8033C17.9229 37.9433 17.2714 41.7704 16.7014 40.6304C16.1314 39.4904 13.6071 37.8619 12.4671 36.8033C11.3271 35.7447 11.8971 33.3019 11.8971 32.4876C11.8971 31.892 10.8081 31.7048 10.1236 31.6771C10.0067 31.6724 9.89365 31.6323 9.80379 31.5574L7.83628 29.9178C7.64377 29.7574 7.59919 29.4801 7.73271 29.2681C9.97538 25.7064 14.1626 19.0367 14.6657 18.1562C15.3171 17.0162 17.19 15.1433 18.33 15.3062C19.1589 15.4246 21.1942 17.9737 22.516 19.6395C22.7105 19.8846 23.0792 19.8922 23.284 19.6558L27.8982 14.3317C28.0615 14.1434 28.3373 14.1032 28.5465 14.2386C31.8914 16.4038 38.1711 20.4784 39.1757 21.169C40.1868 21.8641 48.0479 22.36 48.518 22.3891C48.5333 22.39 48.5451 22.3912 48.5602 22.3935C49.0279 22.4645 57.47 23.7295 58.23 22.7162C59.2071 21.4133 57.7414 16.2833 56.8457 13.5962C55.95 10.909 57.09 8.05901 57.4971 7.57044C57.9043 7.08187 59.4514 9.28045 60.3471 9.68758C60.897 9.93751 61.8217 10.3247 62.4811 10.5011C62.7068 10.5615 62.8869 10.7484 62.9086 10.9809Z" stroke="#7D839C" stroke-width="1.5"/>
</svg>
