<svg width="72" height="48" viewBox="0 0 72 48" fill="none" xmlns="http://www.w3.org/2000/svg">
<path d="M15.7872 32.2987H56.9095C57.198 32.298 58.2367 32.2677 60.0836 32.1523C62.3922 32.008 64.1237 30.8537 64.4122 29.1222C64.7008 27.3908 64.2679 24.2164 63.2579 24.2164C62.2479 24.2164 62.8251 22.9178 62.9693 20.8978C63.1136 18.8777 62.5365 18.7334 59.2178 17.2905C55.8992 15.8477 54.6006 16.1362 53.5906 18.7334C52.5806 21.3306 58.2078 22.1964 59.0735 24.0721C59.9393 25.9479 59.0736 27.2465 57.775 27.3908C56.4764 27.5351 46.3761 21.1863 42.336 18.3006C38.2959 15.4148 35.5545 16.7134 34.4002 18.012C33.2458 19.3106 30.5044 22.7735 30.2158 25.2264C29.9272 27.6793 29.2058 28.5451 25.4542 28.8337C21.7027 29.1222 20.1156 26.9579 16.6526 25.2264C13.1897 23.495 14.344 22.3407 15.4983 21.6192C16.6526 20.8978 19.3941 21.4749 22.857 21.7635C26.32 22.0521 27.33 19.0228 26.7528 16.5699C26.1757 14.117 21.559 15.2714 15.2103 15.2714C8.86155 15.2714 7.12979 20.324 7.56266 22.7769C7.99552 25.2298 12.4685 26.3822 14.0557 28.258C15.6429 30.1337 13.6229 32.2987 15.7872 32.2987Z" stroke="#7D839C" strokeWidth="1.5"/>
</svg>
