<svg width="72" height="48" viewBox="0 0 72 48" fill="none" xmlns="http://www.w3.org/2000/svg">
<path d="M30.6543 43.2154L8.23497 30.4349C7.90449 30.2465 7.89708 29.7727 8.22152 29.5741L15.6787 25.0086C15.8878 24.8806 16.1577 24.9222 16.3206 25.1054C17.5291 26.4644 19.952 28.9457 21.8808 30.103C24.4955 31.6718 26.8487 29.7544 27.8074 29.1443C28.5361 28.6806 28.6407 26.8163 28.5994 25.8092C28.5954 25.7102 28.5598 25.616 28.4998 25.5372L24.3941 20.1435C24.2502 19.9544 24.2624 19.6866 24.4734 19.5774C24.8073 19.4045 25.347 19.2787 26.0643 19.47C27.3716 19.8186 28.156 21.6489 28.679 22.3462C29.2019 23.0434 31.2936 22.9563 31.9909 22.7819C32.5129 22.6514 32.3632 21.544 32.199 20.9024C32.1779 20.82 32.1337 20.7458 32.0736 20.6857L28.169 16.7811C28.007 16.6191 28.0772 16.343 28.2975 16.2801C30.2922 15.7097 35.3461 14.2411 43.234 11.8875C51.4562 9.43405 60.1199 5.31626 63.9476 3.29516C64.1202 3.20403 64.3076 3.38831 64.2211 3.56323C62.5197 7.00125 59.5132 13.1225 59.1835 13.9798C58.7477 15.1128 52.4725 17.8142 51.8624 16.8554C51.2523 15.8967 49.3349 15.4612 48.289 16.9429C47.2432 18.4245 45.5 19.3866 44.7156 19.3866C43.9312 19.3866 42.7982 18.5109 40.7936 18.7723C38.789 19.0338 38.5276 21.213 38.4404 22.346C38.3533 23.479 37.4817 24.7888 36.1744 25.3117C34.867 25.8347 35.2156 26.9674 34.6056 28.7105C33.9955 30.4537 30.4221 32.2839 29.5505 33.417C28.679 34.55 28.3303 36.6417 29.2019 37.7748C29.7521 38.49 30.7002 40.8451 31.3611 42.6206C31.5225 43.0541 31.0561 43.4444 30.6543 43.2154Z" stroke="#7D839C" stroke-width="1.5"/>
</svg>
